{"glyphs":{"0":{"ha":958,"x_min":49,"x_max":910,"o":"m 479 992 q 711 928 615 992 q 858 752 807 865 q 910 486 910 639 q 858 221 910 335 q 711 44 807 107 q 479 -19 615 -19 q 248 44 344 -19 q 100 221 151 107 q 49 486 49 335 q 100 752 49 639 q 248 928 151 865 q 479 992 344 992 m 479 922 q 374 816 407 922 q 340 486 340 710 q 374 156 340 263 q 479 50 407 50 q 585 156 551 50 q 618 486 618 263 q 585 816 618 710 q 479 922 551 922 z "},"1":{"ha":589,"x_min":42,"x_max":547,"o":"m 547 0 l 547 14 l 518 14 q 465 35 488 14 q 442 88 442 57 l 442 992 l 428 992 q 337 953 390 969 q 226 927 283 938 q 120 910 169 917 q 42 903 71 904 l 42 889 l 67 889 q 133 868 108 889 q 158 793 158 847 l 158 89 q 136 36 158 58 q 82 14 114 14 l 53 14 l 51 0 l 547 0 z "},"2":{"ha":914,"x_min":42,"x_max":867,"o":"m 135 633 l 42 883 q 142 943 83 919 q 270 979 201 967 q 406 992 339 992 q 608 958 518 992 q 751 860 699 924 q 803 707 803 797 q 774 582 803 640 q 700 474 746 524 q 600 381 654 424 q 493 305 546 339 q 399 244 440 271 l 663 244 q 738 260 704 244 q 801 308 772 276 q 853 390 829 340 l 867 390 l 772 0 l 50 0 l 50 14 q 173 161 110 88 q 295 308 236 235 q 401 453 354 381 q 476 596 449 525 q 504 736 504 667 q 456 878 504 826 q 326 922 408 929 q 194 842 239 915 q 149 633 149 769 l 135 633 z "},"3":{"ha":836,"x_min":42,"x_max":781,"o":"m 388 989 q 577 960 499 989 q 698 879 656 932 q 740 750 740 826 q 717 650 740 692 q 657 583 694 608 q 576 551 619 558 q 492 554 532 543 q 583 541 533 554 q 677 497 632 528 q 751 412 722 465 q 781 278 781 358 q 735 106 781 181 q 614 -16 690 32 q 442 -84 538 -64 q 247 -95 347 -104 q 54 -44 146 -86 l 57 -31 q 219 -10 143 -32 q 355 56 296 13 q 448 162 414 100 q 482 300 482 224 q 442 435 482 385 q 344 510 403 486 q 225 533 285 533 l 228 547 q 346 577 292 546 q 431 663 400 608 q 454 785 461 718 q 425 867 450 836 q 363 911 400 899 q 285 919 326 924 q 167 847 201 913 q 135 650 132 781 l 121 650 l 42 890 q 185 962 94 935 q 388 989 275 989 z "},"4":{"ha":893,"x_min":-21,"x_max":874,"o":"m 425 692 l 696 992 l 710 992 l 710 1 l 425 1 l 425 692 m 696 992 l 708 889 l 214 408 l 769 408 q 828 423 808 408 q 860 464 847 438 l 874 464 l 831 263 l -21 263 l -21 276 l 696 992 m 710 89 q 733 36 710 58 q 786 14 756 14 l 801 14 l 801 0 l 332 0 l 333 14 l 347 14 q 402 35 379 14 q 425 89 425 57 l 710 89 z "},"5":{"ha":821,"x_min":14,"x_max":756,"o":"m 664 739 l 238 704 l 211 589 q 447 608 344 621 q 619 549 550 596 q 722 431 689 503 q 751 269 756 358 q 694 92 747 167 q 559 -28 642 17 q 379 -91 476 -74 q 187 -96 282 -108 q 14 -43 92 -83 l 17 -29 q 106 -22 53 -31 q 216 6 158 -14 q 325 58 274 25 q 410 136 376 90 q 447 244 443 182 q 404 369 453 324 q 272 419 356 414 q 82 381 188 424 l 69 389 l 185 922 l 599 957 q 668 976 643 957 q 708 1026 693 996 l 722 1026 l 664 739 z "},"6":{"ha":938,"x_min":56,"x_max":885,"o":"m 776 1019 l 782 1010 q 549 907 633 964 q 426 778 465 850 q 378 615 388 706 q 368 408 368 524 q 374 216 368 293 q 401 101 379 139 q 474 63 424 63 q 551 97 525 63 q 588 185 578 131 q 597 303 597 240 q 588 426 597 382 q 564 492 579 471 q 528 522 549 514 q 469 526 497 535 q 424 507 442 518 l 413 518 q 474 590 432 563 q 571 625 517 617 q 681 620 625 633 q 783 570 736 607 q 857 472 829 533 q 882 318 885 410 q 835 149 879 225 q 703 27 792 72 q 478 -21 615 -18 q 247 26 342 -22 q 104 176 153 74 q 56 438 56 279 q 100 703 56 586 q 235 899 144 821 q 460 1009 325 976 q 776 1019 596 1042 z "},"7":{"ha":794,"x_min":7,"x_max":782,"o":"m 7 646 l 21 646 q 60 708 36 688 q 125 729 83 729 l 569 729 l 497 575 q 450 481 479 538 q 384 359 421 425 q 310 226 347 293 q 238 101 272 160 q 178 0 203 42 l 414 0 q 441 92 424 38 q 479 211 458 147 q 522 340 500 275 q 565 463 544 406 q 604 560 586 519 l 782 972 l 46 969 l 7 646 z "},"8":{"ha":883,"x_min":35,"x_max":849,"o":"m 94 701 q 140 859 94 794 q 263 958 185 924 q 436 992 340 992 q 606 963 528 992 q 733 880 685 933 q 781 756 781 826 q 739 647 781 690 q 635 581 697 603 q 508 560 572 560 l 461 560 q 516 609 496 569 q 544 697 536 649 q 550 779 551 744 q 519 877 549 836 q 432 921 489 918 q 352 890 381 924 q 324 804 324 856 q 342 737 324 765 q 406 678 361 708 q 529 606 450 649 q 653 540 596 571 q 756 473 711 508 q 824 391 800 438 q 849 278 849 344 q 794 114 849 181 q 642 14 740 47 q 414 -19 544 -19 q 282 -9 349 -19 q 159 27 215 1 q 69 100 103 53 q 35 221 35 147 q 62 332 35 286 q 131 406 89 378 q 217 451 172 435 q 298 472 261 467 q 350 478 335 478 l 417 493 q 311 417 353 474 q 269 263 269 361 q 311 111 269 165 q 425 50 353 57 q 509 60 471 46 q 570 102 547 74 q 593 167 593 131 q 583 212 593 190 q 547 256 572 233 q 480 306 522 279 q 374 364 438 332 q 289 410 336 383 q 197 474 242 436 q 124 569 153 513 q 94 701 94 625 z "},"9":{"ha":938,"x_min":53,"x_max":882,"o":"m 161 -53 l 156 -43 q 388 60 304 3 q 511 189 472 117 q 560 352 550 261 q 569 558 569 443 q 564 751 569 674 q 537 866 558 828 q 464 904 515 904 q 386 870 413 904 q 350 782 360 836 q 340 664 340 728 q 349 540 340 585 q 374 474 358 496 q 410 444 390 453 q 469 440 442 432 q 514 460 496 449 l 524 449 q 463 378 504 406 q 367 342 421 350 q 257 347 313 333 q 155 397 201 360 q 81 496 108 433 q 56 649 53 558 q 101 818 58 742 q 233 940 144 894 q 460 988 322 986 q 773 879 664 990 q 882 529 882 768 q 838 263 882 381 q 703 68 793 146 q 478 -42 613 -10 q 161 -53 343 -75 z "},"A":{"ha":1000,"x_min":-56,"x_max":1056,"o":"m 488 1006 l 968 8 l 635 8 l 367 650 l 488 1006 m 189 101 q 183 54 176 74 q 208 24 190 35 q 242 14 225 14 l 254 14 l 254 0 l -56 0 l -56 14 q -49 14 -56 14 q -43 14 -43 14 q 23 34 -11 14 q 79 101 57 54 l 189 101 m 488 1006 l 488 789 l 146 4 l 33 4 l 396 799 q 415 838 403 811 q 440 897 426 865 q 463 958 453 929 q 475 1006 474 988 l 488 1006 m 601 300 l 601 231 l 208 231 l 208 300 l 601 300 m 594 101 l 922 101 q 979 34 946 54 q 1044 14 1013 14 q 1050 14 1044 14 q 1056 14 1056 14 l 1056 0 l 529 0 l 529 14 l 542 14 q 591 37 569 14 q 594 101 613 60 z "},"Á":{"ha":1000,"x_min":-56,"x_max":1056,"o":"m 488 1006 l 968 8 l 635 8 l 367 650 l 488 1006 m 189 101 q 183 54 176 74 q 208 24 190 35 q 242 14 225 14 l 254 14 l 254 0 l -56 0 l -56 14 q -49 14 -56 14 q -43 14 -43 14 q 23 34 -11 14 q 79 101 57 54 l 189 101 m 488 1006 l 488 789 l 146 4 l 33 4 l 396 799 q 415 838 403 811 q 440 897 426 865 q 463 958 453 929 q 475 1006 474 988 l 488 1006 m 601 300 l 601 231 l 208 231 l 208 300 l 601 300 m 594 101 l 922 101 q 979 34 946 54 q 1044 14 1013 14 q 1050 14 1044 14 q 1056 14 1056 14 l 1056 0 l 529 0 l 529 14 l 542 14 q 591 37 569 14 q 594 101 613 60 z "},"Ă":{"ha":1000,"x_min":-56,"x_max":1056,"o":"m 488 1006 l 968 8 l 635 8 l 367 650 l 488 1006 m 189 101 q 183 54 176 74 q 208 24 190 35 q 242 14 225 14 l 254 14 l 254 0 l -56 0 l -56 14 q -49 14 -56 14 q -43 14 -43 14 q 23 34 -11 14 q 79 101 57 54 l 189 101 m 488 1006 l 488 789 l 146 4 l 33 4 l 396 799 q 415 838 403 811 q 440 897 426 865 q 463 958 453 929 q 475 1006 474 988 l 488 1006 m 601 300 l 601 231 l 208 231 l 208 300 l 601 300 m 594 101 l 922 101 q 979 34 946 54 q 1044 14 1013 14 q 1050 14 1044 14 q 1056 14 1056 14 l 1056 0 l 529 0 l 529 14 l 542 14 q 591 37 569 14 q 594 101 613 60 z "},"Â":{"ha":1000,"x_min":-56,"x_max":1056,"o":"m 488 1006 l 968 8 l 635 8 l 367 650 l 488 1006 m 189 101 q 183 54 176 74 q 208 24 190 35 q 242 14 225 14 l 254 14 l 254 0 l -56 0 l -56 14 q -49 14 -56 14 q -43 14 -43 14 q 23 34 -11 14 q 79 101 57 54 l 189 101 m 488 1006 l 488 789 l 146 4 l 33 4 l 396 799 q 415 838 403 811 q 440 897 426 865 q 463 958 453 929 q 475 1006 474 988 l 488 1006 m 601 300 l 601 231 l 208 231 l 208 300 l 601 300 m 594 101 l 922 101 q 979 34 946 54 q 1044 14 1013 14 q 1050 14 1044 14 q 1056 14 1056 14 l 1056 0 l 529 0 l 529 14 l 542 14 q 591 37 569 14 q 594 101 613 60 z "},"Ä":{"ha":1000,"x_min":-56,"x_max":1056,"o":"m 488 1006 l 968 8 l 635 8 l 367 650 l 488 1006 m 189 101 q 183 54 176 74 q 208 24 190 35 q 242 14 225 14 l 254 14 l 254 0 l -56 0 l -56 14 q -49 14 -56 14 q -43 14 -43 14 q 23 34 -11 14 q 79 101 57 54 l 189 101 m 488 1006 l 488 789 l 146 4 l 33 4 l 396 799 q 415 838 403 811 q 440 897 426 865 q 463 958 453 929 q 475 1006 474 988 l 488 1006 m 601 300 l 601 231 l 208 231 l 208 300 l 601 300 m 594 101 l 922 101 q 979 34 946 54 q 1044 14 1013 14 q 1050 14 1044 14 q 1056 14 1056 14 l 1056 0 l 529 0 l 529 14 l 542 14 q 591 37 569 14 q 594 101 613 60 z "},"À":{"ha":1000,"x_min":-56,"x_max":1056,"o":"m 488 1006 l 968 8 l 635 8 l 367 650 l 488 1006 m 189 101 q 183 54 176 74 q 208 24 190 35 q 242 14 225 14 l 254 14 l 254 0 l -56 0 l -56 14 q -49 14 -56 14 q -43 14 -43 14 q 23 34 -11 14 q 79 101 57 54 l 189 101 m 488 1006 l 488 789 l 146 4 l 33 4 l 396 799 q 415 838 403 811 q 440 897 426 865 q 463 958 453 929 q 475 1006 474 988 l 488 1006 m 601 300 l 601 231 l 208 231 l 208 300 l 601 300 m 594 101 l 922 101 q 979 34 946 54 q 1044 14 1013 14 q 1050 14 1044 14 q 1056 14 1056 14 l 1056 0 l 529 0 l 529 14 l 542 14 q 591 37 569 14 q 594 101 613 60 z "},"Ā":{"ha":1000,"x_min":-56,"x_max":1056,"o":"m 488 1006 l 968 8 l 635 8 l 367 650 l 488 1006 m 189 101 q 183 54 176 74 q 208 24 190 35 q 242 14 225 14 l 254 14 l 254 0 l -56 0 l -56 14 q -49 14 -56 14 q -43 14 -43 14 q 23 34 -11 14 q 79 101 57 54 l 189 101 m 488 1006 l 488 789 l 146 4 l 33 4 l 396 799 q 415 838 403 811 q 440 897 426 865 q 463 958 453 929 q 475 1006 474 988 l 488 1006 m 601 300 l 601 231 l 208 231 l 208 300 l 601 300 m 594 101 l 922 101 q 979 34 946 54 q 1044 14 1013 14 q 1050 14 1044 14 q 1056 14 1056 14 l 1056 0 l 529 0 l 529 14 l 542 14 q 591 37 569 14 q 594 101 613 60 z "},"Ą":{"ha":1000,"x_min":-56,"x_max":1056,"o":"m 488 992 l 947 51 l 624 33 l 367 636 l 488 992 m 488 992 l 488 775 l 146 4 l 33 4 l 396 785 q 415 824 403 797 q 440 883 426 851 q 463 944 453 915 q 475 992 474 974 l 488 992 m 601 300 l 601 231 l 208 231 l 208 300 l 601 300 m 189 101 q 183 54 176 74 q 208 24 190 35 q 242 14 225 14 l 254 14 l 254 0 l -56 0 l -56 14 q -49 14 -56 14 q -43 14 -43 14 q 23 34 -11 14 q 79 101 57 54 l 189 101 m 696 0 q 622 -41 640 -12 q 607 -101 604 -69 q 635 -166 611 -143 q 694 -188 660 -189 q 763 -160 729 -187 l 771 -168 q 735 -253 768 -225 q 658 -286 703 -282 q 570 -271 613 -290 q 503 -212 528 -251 q 488 -117 478 -174 q 523 -45 496 -68 q 585 0 550 -22 q 609 38 607 15 q 594 101 611 60 l 922 101 q 979 39 946 54 q 1044 17 1013 24 q 1050 15 1044 17 q 1056 14 1056 14 l 1056 0 q 999 3 1042 0 q 901 10 957 7 q 789 10 844 13 q 696 0 733 8 z "},"Å":{"ha":1000,"x_min":-56,"x_max":1056,"o":"m 488 992 l 968 8 l 635 8 l 367 636 l 488 992 m 189 101 q 183 54 176 74 q 208 24 190 35 q 242 14 225 14 l 254 14 l 254 0 l -56 0 l -56 14 q -49 14 -56 14 q -43 14 -43 14 q 23 34 -11 14 q 79 101 57 54 l 189 101 m 488 992 l 488 775 l 146 4 l 33 4 l 396 785 q 415 824 403 797 q 440 883 426 851 q 463 944 453 915 q 475 992 474 974 l 488 992 m 601 300 l 601 231 l 208 231 l 208 300 l 601 300 m 594 101 l 922 101 q 979 34 946 54 q 1044 14 1013 14 q 1050 14 1044 14 q 1056 14 1056 14 l 1056 0 l 529 0 l 529 14 l 542 14 q 591 37 569 14 q 594 101 613 60 m 483 1171 q 580 1143 540 1171 q 619 1068 619 1115 q 579 992 619 1022 q 482 963 539 963 q 386 992 428 963 q 346 1067 344 1021 q 386 1142 344 1114 q 483 1171 428 1171 m 482 1140 q 440 1119 457 1140 q 424 1067 424 1099 q 440 1015 424 1036 q 482 994 457 994 q 526 1015 508 994 q 542 1067 543 1036 q 526 1119 543 1099 q 482 1140 508 1140 z "},"Ã":{"ha":1000,"x_min":-56,"x_max":1056,"o":"m 488 1006 l 968 8 l 635 8 l 367 650 l 488 1006 m 189 101 q 183 54 176 74 q 208 24 190 35 q 242 14 225 14 l 254 14 l 254 0 l -56 0 l -56 14 q -49 14 -56 14 q -43 14 -43 14 q 23 34 -11 14 q 79 101 57 54 l 189 101 m 488 1006 l 488 789 l 146 4 l 33 4 l 396 799 q 415 838 403 811 q 440 897 426 865 q 463 958 453 929 q 475 1006 474 988 l 488 1006 m 601 300 l 601 231 l 208 231 l 208 300 l 601 300 m 594 101 l 922 101 q 979 34 946 54 q 1044 14 1013 14 q 1050 14 1044 14 q 1056 14 1056 14 l 1056 0 l 529 0 l 529 14 l 542 14 q 591 37 569 14 q 594 101 613 60 z "},"Æ":{"ha":1413,"x_min":-46,"x_max":1390,"o":"m 219 101 q 210 54 203 74 q 235 24 217 35 q 272 14 254 14 l 285 14 l 285 0 l -46 0 l -46 14 q -40 14 -46 14 q -33 14 -33 14 q 27 34 -1 14 q 89 101 56 54 l 219 101 m 932 972 l 932 0 l 647 0 l 647 908 l 932 972 m 650 81 l 650 0 l 564 0 l 565 14 q 572 14 565 14 q 578 14 578 14 q 626 34 606 14 q 647 81 646 54 l 650 81 m 1307 71 l 1307 0 l 928 0 l 928 71 l 1307 71 m 1233 510 l 1233 440 l 407 440 l 414 510 l 1233 510 m 1306 972 l 1306 901 l 765 901 l 678 840 l 160 4 l 22 4 l 629 890 q 638 938 649 918 q 600 958 626 958 l 593 958 l 593 972 l 1306 972 m 1390 322 l 1338 0 l 1039 0 l 1089 71 q 1267 137 1189 71 q 1376 322 1344 203 l 1390 322 m 1233 444 l 1233 282 l 1219 282 l 1219 289 q 1177 397 1219 354 q 1068 440 1135 439 l 1068 444 l 1233 444 m 1233 668 l 1233 507 l 1068 507 l 1068 510 q 1177 554 1135 511 q 1219 661 1219 597 l 1219 668 l 1233 668 m 1306 906 l 1306 711 l 1292 711 l 1292 722 q 1245 853 1292 806 q 1114 903 1199 901 l 1114 906 l 1306 906 m 1306 997 l 1306 957 l 1136 972 q 1201 976 1167 972 q 1264 986 1235 981 q 1306 997 1293 992 z "},"B":{"ha":1015,"x_min":42,"x_max":982,"o":"m 225 972 l 525 972 q 717 951 629 972 q 858 878 804 931 q 911 731 911 826 q 885 619 911 664 q 817 553 858 575 q 729 529 776 531 q 855 496 797 526 q 947 410 913 465 q 982 278 982 356 q 926 120 982 182 q 772 29 869 58 q 547 0 674 0 l 421 0 q 422 18 421 0 q 422 53 422 36 q 422 71 422 71 l 451 71 q 553 93 507 71 q 628 165 600 115 q 656 299 656 215 q 644 388 656 349 q 612 456 633 428 q 558 499 590 485 q 481 514 525 514 l 481 526 q 539 539 514 526 q 580 574 564 551 q 604 631 596 597 q 613 708 613 665 q 591 826 613 783 q 533 885 569 868 q 451 903 497 903 l 239 903 q 235 921 239 904 q 228 955 232 938 q 225 972 225 972 m 433 972 l 433 0 l 149 0 l 149 972 l 433 972 m 153 101 l 153 0 l 42 0 l 42 14 q 51 14 44 14 q 60 14 58 14 q 122 40 96 14 q 149 101 147 65 l 153 101 m 153 871 l 149 871 q 122 933 147 907 q 60 958 96 958 q 51 958 58 958 q 42 958 44 958 l 42 972 l 153 972 l 153 871 z "},"C":{"ha":1101,"x_min":49,"x_max":1046,"o":"m 1013 406 l 1046 153 q 969 68 1018 107 q 842 5 919 29 q 656 -19 765 -19 q 333 41 469 -18 q 122 213 196 100 q 49 488 49 325 q 121 759 49 646 q 329 932 193 872 q 657 992 465 992 q 865 972 774 992 q 1014 928 956 953 l 1000 663 l 988 663 q 867 866 946 810 q 681 922 788 922 q 505 871 578 922 q 393 724 432 819 q 354 492 354 628 q 390 258 354 356 q 494 106 426 160 q 656 50 561 53 q 835 83 768 50 q 939 195 901 117 q 1001 406 976 274 l 1013 406 z "},"Ć":{"ha":1101,"x_min":49,"x_max":1046,"o":"m 1013 406 l 1046 153 q 969 68 1018 107 q 842 5 919 29 q 656 -19 765 -19 q 333 41 469 -18 q 122 213 196 100 q 49 488 49 325 q 121 759 49 646 q 329 932 193 872 q 657 992 465 992 q 865 972 774 992 q 1014 928 956 953 l 1000 663 l 988 663 q 867 866 946 810 q 681 922 788 922 q 505 871 578 922 q 393 724 432 819 q 354 492 354 628 q 390 258 354 356 q 494 106 426 160 q 656 50 561 53 q 835 83 768 50 q 939 195 901 117 q 1001 406 976 274 l 1013 406 z "},"Č":{"ha":1101,"x_min":49,"x_max":1046,"o":"m 1013 406 l 1046 153 q 969 68 1018 107 q 842 5 919 29 q 656 -19 765 -19 q 333 41 469 -18 q 122 213 196 100 q 49 488 49 325 q 121 759 49 646 q 329 932 193 872 q 657 992 465 992 q 865 972 774 992 q 1014 928 956 953 l 1000 663 l 988 663 q 867 866 946 810 q 681 922 788 922 q 505 871 578 922 q 393 724 432 819 q 354 492 354 628 q 390 258 354 356 q 494 106 426 160 q 656 50 561 53 q 835 83 768 50 q 939 195 901 117 q 1001 406 976 274 l 1013 406 z "},"Ç":{"ha":1101,"x_min":49,"x_max":1046,"o":"m 1013 406 l 1046 153 q 969 68 1018 107 q 842 5 919 29 q 656 -19 765 -19 q 333 41 469 -18 q 122 213 196 100 q 49 488 49 325 q 121 759 49 646 q 329 932 193 872 q 657 992 465 992 q 865 972 774 992 q 1014 928 956 953 l 1000 663 l 988 663 q 867 866 946 810 q 681 922 788 922 q 505 871 578 922 q 393 724 432 819 q 354 492 354 628 q 390 258 354 356 q 494 106 426 160 q 656 50 561 53 q 835 83 768 50 q 939 195 901 117 q 1001 406 976 274 l 1013 406 z "},"Ċ":{"ha":1101,"x_min":49,"x_max":1046,"o":"m 1013 406 l 1046 153 q 969 68 1018 107 q 842 5 919 29 q 656 -19 765 -19 q 333 41 469 -18 q 122 213 196 100 q 49 488 49 325 q 121 759 49 646 q 329 932 193 872 q 657 992 465 992 q 865 972 774 992 q 1014 928 956 953 l 1000 663 l 988 663 q 867 866 946 810 q 681 922 788 922 q 505 871 578 922 q 393 724 432 819 q 354 492 354 628 q 390 258 354 356 q 494 106 426 160 q 656 50 561 53 q 835 83 768 50 q 939 195 901 117 q 1001 406 976 274 l 1013 406 z "},"D":{"ha":1169,"x_min":42,"x_max":1122,"o":"m 568 972 q 866 915 742 972 q 1056 748 990 857 q 1122 486 1122 639 q 1056 224 1122 333 q 866 58 990 115 q 568 0 742 0 l 215 0 l 214 69 q 333 69 281 69 q 425 69 386 69 q 490 69 464 69 q 528 69 515 69 q 540 69 540 69 q 690 119 628 69 q 784 263 751 169 q 817 486 817 356 q 784 710 817 617 q 690 853 751 803 q 540 903 628 903 q 527 903 540 903 q 487 903 514 903 q 419 903 460 903 q 324 903 379 903 q 200 903 269 903 l 200 972 l 568 972 m 433 972 l 433 0 l 149 0 l 149 972 l 433 972 m 153 101 l 153 0 l 42 0 l 42 14 q 51 14 42 14 q 60 14 60 14 q 122 40 96 14 q 149 101 147 65 l 153 101 m 153 871 l 149 871 q 122 933 149 907 q 60 958 96 958 q 51 958 60 958 q 43 958 43 958 l 42 972 l 153 972 l 153 871 z "},"Ð":{"ha":1169,"x_min":42,"x_max":1122,"o":"m 42 521 l 583 521 l 583 451 l 42 451 l 42 521 m 568 972 q 866 915 742 972 q 1056 748 990 857 q 1122 486 1122 639 q 1056 224 1122 333 q 866 58 990 115 q 568 0 742 0 l 215 0 l 214 69 q 333 69 281 69 q 425 69 386 69 q 490 69 464 69 q 528 69 515 69 q 540 69 540 69 q 691 119 628 69 q 789 263 754 169 q 824 486 824 356 q 789 710 824 617 q 691 853 754 803 q 540 903 628 903 q 527 903 540 903 q 487 903 514 903 q 419 903 460 903 q 324 903 379 903 q 200 903 269 903 l 200 972 l 568 972 m 433 972 l 433 0 l 149 0 l 149 972 l 433 972 m 153 101 l 153 0 l 42 0 l 42 14 q 51 14 42 14 q 60 14 60 14 q 122 40 96 14 q 149 101 147 65 l 153 101 m 153 871 l 149 871 q 122 933 149 907 q 60 958 96 958 q 51 958 60 958 q 43 958 43 958 l 42 972 l 153 972 l 153 871 z "},"Ď":{"ha":1169,"x_min":42,"x_max":1122,"o":"m 568 972 q 866 915 742 972 q 1056 748 990 857 q 1122 486 1122 639 q 1056 224 1122 333 q 866 58 990 115 q 568 0 742 0 l 215 0 l 214 69 q 333 69 281 69 q 425 69 386 69 q 490 69 464 69 q 528 69 515 69 q 540 69 540 69 q 690 119 628 69 q 784 263 751 169 q 817 486 817 356 q 784 710 817 617 q 690 853 751 803 q 540 903 628 903 q 527 903 540 903 q 487 903 514 903 q 419 903 460 903 q 324 903 379 903 q 200 903 269 903 l 200 972 l 568 972 m 433 972 l 433 0 l 149 0 l 149 972 l 433 972 m 153 101 l 153 0 l 42 0 l 42 14 q 51 14 42 14 q 60 14 60 14 q 122 40 96 14 q 149 101 147 65 l 153 101 m 153 871 l 149 871 q 122 933 149 907 q 60 958 96 958 q 51 958 60 958 q 43 958 43 958 l 42 972 l 153 972 l 153 871 z "},"Đ":{"ha":1169,"x_min":42,"x_max":1122,"o":"m 568 972 q 866 915 742 972 q 1056 748 990 857 q 1122 486 1122 639 q 1056 224 1122 333 q 866 58 990 115 q 568 0 742 0 l 215 0 l 214 69 q 333 69 281 69 q 425 69 386 69 q 490 69 464 69 q 528 69 515 69 q 540 69 540 69 q 690 119 628 69 q 784 263 751 169 q 817 486 817 356 q 784 710 817 617 q 690 853 751 803 q 540 903 628 903 q 527 903 540 903 q 487 903 514 903 q 419 903 460 903 q 324 903 379 903 q 200 903 269 903 l 200 972 l 568 972 m 433 972 l 433 0 l 149 0 l 149 972 l 433 972 m 153 101 l 153 0 l 42 0 l 42 14 q 51 14 42 14 q 60 14 60 14 q 122 40 96 14 q 149 101 147 65 l 153 101 m 153 871 l 149 871 q 122 933 149 907 q 60 958 96 958 q 51 958 60 958 q 43 958 43 958 l 42 972 l 153 972 l 153 871 z "},"E":{"ha":926,"x_min":42,"x_max":907,"o":"m 433 972 l 433 0 l 149 0 l 149 972 l 433 972 m 794 71 l 850 0 l 429 0 l 429 71 l 794 71 m 749 514 l 749 444 l 429 444 l 429 514 l 749 514 m 822 972 l 822 901 l 429 901 l 429 972 l 822 972 m 907 322 l 854 0 l 554 0 l 604 71 q 728 101 671 71 q 829 187 786 131 q 893 322 872 243 l 907 322 m 749 447 l 749 286 l 735 286 l 735 293 q 692 401 735 358 q 585 444 650 443 l 585 447 l 749 447 m 749 672 l 749 511 l 585 511 l 585 514 q 693 558 650 515 q 735 667 736 601 l 735 672 l 749 672 m 822 906 l 822 711 l 808 711 l 808 722 q 761 853 808 806 q 629 903 714 901 l 629 906 l 822 906 m 822 997 l 822 957 l 653 972 q 717 976 683 972 q 781 986 751 981 q 822 997 810 992 m 153 101 l 153 0 l 42 0 l 42 14 q 51 14 42 14 q 60 14 60 14 q 122 40 96 14 q 149 101 147 65 l 153 101 m 153 871 l 149 871 q 122 933 147 907 q 60 958 96 958 q 51 958 60 958 q 42 958 42 958 l 42 972 l 153 972 l 153 871 z "},"É":{"ha":926,"x_min":42,"x_max":907,"o":"m 433 972 l 433 0 l 149 0 l 149 972 l 433 972 m 794 71 l 850 0 l 429 0 l 429 71 l 794 71 m 749 514 l 749 444 l 429 444 l 429 514 l 749 514 m 822 972 l 822 901 l 429 901 l 429 972 l 822 972 m 907 322 l 854 0 l 554 0 l 604 71 q 728 101 671 71 q 829 187 786 131 q 893 322 872 243 l 907 322 m 749 447 l 749 286 l 735 286 l 735 293 q 692 401 735 358 q 585 444 650 443 l 585 447 l 749 447 m 749 672 l 749 511 l 585 511 l 585 514 q 693 558 650 515 q 735 667 736 601 l 735 672 l 749 672 m 822 906 l 822 711 l 808 711 l 808 722 q 761 853 808 806 q 629 903 714 901 l 629 906 l 822 906 m 822 997 l 822 957 l 653 972 q 717 976 683 972 q 781 986 751 981 q 822 997 810 992 m 153 101 l 153 0 l 42 0 l 42 14 q 51 14 42 14 q 60 14 60 14 q 122 40 96 14 q 149 101 147 65 l 153 101 m 153 871 l 149 871 q 122 933 147 907 q 60 958 96 958 q 51 958 60 958 q 42 958 42 958 l 42 972 l 153 972 l 153 871 z "},"Ě":{"ha":926,"x_min":42,"x_max":907,"o":"m 433 972 l 433 0 l 149 0 l 149 972 l 433 972 m 794 71 l 850 0 l 429 0 l 429 71 l 794 71 m 749 514 l 749 444 l 429 444 l 429 514 l 749 514 m 822 972 l 822 901 l 429 901 l 429 972 l 822 972 m 907 322 l 854 0 l 554 0 l 604 71 q 728 101 671 71 q 829 187 786 131 q 893 322 872 243 l 907 322 m 749 447 l 749 286 l 735 286 l 735 293 q 692 401 735 358 q 585 444 650 443 l 585 447 l 749 447 m 749 672 l 749 511 l 585 511 l 585 514 q 693 558 650 515 q 735 667 736 601 l 735 672 l 749 672 m 822 906 l 822 711 l 808 711 l 808 722 q 761 853 808 806 q 629 903 714 901 l 629 906 l 822 906 m 822 997 l 822 957 l 653 972 q 717 976 683 972 q 781 986 751 981 q 822 997 810 992 m 153 101 l 153 0 l 42 0 l 42 14 q 51 14 42 14 q 60 14 60 14 q 122 40 96 14 q 149 101 147 65 l 153 101 m 153 871 l 149 871 q 122 933 147 907 q 60 958 96 958 q 51 958 60 958 q 42 958 42 958 l 42 972 l 153 972 l 153 871 z "},"Ê":{"ha":926,"x_min":42,"x_max":907,"o":"m 433 972 l 433 0 l 149 0 l 149 972 l 433 972 m 794 71 l 850 0 l 429 0 l 429 71 l 794 71 m 749 514 l 749 444 l 429 444 l 429 514 l 749 514 m 822 972 l 822 901 l 429 901 l 429 972 l 822 972 m 907 322 l 854 0 l 554 0 l 604 71 q 728 101 671 71 q 829 187 786 131 q 893 322 872 243 l 907 322 m 749 447 l 749 286 l 735 286 l 735 293 q 692 401 735 358 q 585 444 650 443 l 585 447 l 749 447 m 749 672 l 749 511 l 585 511 l 585 514 q 693 558 650 515 q 735 667 736 601 l 735 672 l 749 672 m 822 906 l 822 711 l 808 711 l 808 722 q 761 853 808 806 q 629 903 714 901 l 629 906 l 822 906 m 822 997 l 822 957 l 653 972 q 717 976 683 972 q 781 986 751 981 q 822 997 810 992 m 153 101 l 153 0 l 42 0 l 42 14 q 51 14 42 14 q 60 14 60 14 q 122 40 96 14 q 149 101 147 65 l 153 101 m 153 871 l 149 871 q 122 933 147 907 q 60 958 96 958 q 51 958 60 958 q 42 958 42 958 l 42 972 l 153 972 l 153 871 z "},"Ë":{"ha":926,"x_min":42,"x_max":907,"o":"m 433 972 l 433 0 l 149 0 l 149 972 l 433 972 m 794 71 l 850 0 l 429 0 l 429 71 l 794 71 m 749 514 l 749 444 l 429 444 l 429 514 l 749 514 m 822 972 l 822 901 l 429 901 l 429 972 l 822 972 m 907 322 l 854 0 l 554 0 l 604 71 q 728 101 671 71 q 829 187 786 131 q 893 322 872 243 l 907 322 m 749 447 l 749 286 l 735 286 l 735 293 q 692 401 735 358 q 585 444 650 443 l 585 447 l 749 447 m 749 672 l 749 511 l 585 511 l 585 514 q 693 558 650 515 q 735 667 736 601 l 735 672 l 749 672 m 822 906 l 822 711 l 808 711 l 808 722 q 761 853 808 806 q 629 903 714 901 l 629 906 l 822 906 m 822 997 l 822 957 l 653 972 q 717 976 683 972 q 781 986 751 981 q 822 997 810 992 m 153 101 l 153 0 l 42 0 l 42 14 q 51 14 42 14 q 60 14 60 14 q 122 40 96 14 q 149 101 147 65 l 153 101 m 153 871 l 149 871 q 122 933 147 907 q 60 958 96 958 q 51 958 60 958 q 42 958 42 958 l 42 972 l 153 972 l 153 871 z "},"Ė":{"ha":926,"x_min":42,"x_max":907,"o":"m 433 972 l 433 0 l 149 0 l 149 972 l 433 972 m 794 71 l 850 0 l 429 0 l 429 71 l 794 71 m 749 514 l 749 444 l 429 444 l 429 514 l 749 514 m 822 972 l 822 901 l 429 901 l 429 972 l 822 972 m 907 322 l 854 0 l 554 0 l 604 71 q 728 101 671 71 q 829 187 786 131 q 893 322 872 243 l 907 322 m 749 447 l 749 286 l 735 286 l 735 293 q 692 401 735 358 q 585 444 650 443 l 585 447 l 749 447 m 749 672 l 749 511 l 585 511 l 585 514 q 693 558 650 515 q 735 667 736 601 l 735 672 l 749 672 m 822 906 l 822 711 l 808 711 l 808 722 q 761 853 808 806 q 629 903 714 901 l 629 906 l 822 906 m 822 997 l 822 957 l 653 972 q 717 976 683 972 q 781 986 751 981 q 822 997 810 992 m 153 101 l 153 0 l 42 0 l 42 14 q 51 14 42 14 q 60 14 60 14 q 122 40 96 14 q 149 101 147 65 l 153 101 m 153 871 l 149 871 q 122 933 147 907 q 60 958 96 958 q 51 958 60 958 q 42 958 42 958 l 42 972 l 153 972 l 153 871 z "},"È":{"ha":926,"x_min":42,"x_max":907,"o":"m 433 972 l 433 0 l 149 0 l 149 972 l 433 972 m 794 71 l 850 0 l 429 0 l 429 71 l 794 71 m 749 514 l 749 444 l 429 444 l 429 514 l 749 514 m 822 972 l 822 901 l 429 901 l 429 972 l 822 972 m 907 322 l 854 0 l 554 0 l 604 71 q 728 101 671 71 q 829 187 786 131 q 893 322 872 243 l 907 322 m 749 447 l 749 286 l 735 286 l 735 293 q 692 401 735 358 q 585 444 650 443 l 585 447 l 749 447 m 749 672 l 749 511 l 585 511 l 585 514 q 693 558 650 515 q 735 667 736 601 l 735 672 l 749 672 m 822 906 l 822 711 l 808 711 l 808 722 q 761 853 808 806 q 629 903 714 901 l 629 906 l 822 906 m 822 997 l 822 957 l 653 972 q 717 976 683 972 q 781 986 751 981 q 822 997 810 992 m 153 101 l 153 0 l 42 0 l 42 14 q 51 14 42 14 q 60 14 60 14 q 122 40 96 14 q 149 101 147 65 l 153 101 m 153 871 l 149 871 q 122 933 147 907 q 60 958 96 958 q 51 958 60 958 q 42 958 42 958 l 42 972 l 153 972 l 153 871 z "},"Ē":{"ha":926,"x_min":42,"x_max":907,"o":"m 433 972 l 433 0 l 149 0 l 149 972 l 433 972 m 794 71 l 850 0 l 429 0 l 429 71 l 794 71 m 749 514 l 749 444 l 429 444 l 429 514 l 749 514 m 822 972 l 822 901 l 429 901 l 429 972 l 822 972 m 907 322 l 854 0 l 554 0 l 604 71 q 728 101 671 71 q 829 187 786 131 q 893 322 872 243 l 907 322 m 749 447 l 749 286 l 735 286 l 735 293 q 692 401 735 358 q 585 444 650 443 l 585 447 l 749 447 m 749 672 l 749 511 l 585 511 l 585 514 q 693 558 650 515 q 735 667 736 601 l 735 672 l 749 672 m 822 906 l 822 711 l 808 711 l 808 722 q 761 853 808 806 q 629 903 714 901 l 629 906 l 822 906 m 822 997 l 822 957 l 653 972 q 717 976 683 972 q 781 986 751 981 q 822 997 810 992 m 153 101 l 153 0 l 42 0 l 42 14 q 51 14 42 14 q 60 14 60 14 q 122 40 96 14 q 149 101 147 65 l 153 101 m 153 871 l 149 871 q 122 933 147 907 q 60 958 96 958 q 51 958 60 958 q 42 958 42 958 l 42 972 l 153 972 l 153 871 z "},"Ę":{"ha":926,"x_min":42,"x_max":926,"o":"m 433 972 l 433 0 l 149 0 l 149 972 l 433 972 m 794 71 l 850 0 l 429 0 l 429 71 l 794 71 m 749 514 l 749 444 l 429 444 l 429 514 l 749 514 m 822 972 l 822 901 l 429 901 l 429 972 l 822 972 m 907 322 l 854 0 l 554 0 l 604 71 q 728 101 671 71 q 829 187 786 131 q 893 322 872 243 l 907 322 m 749 447 l 749 286 l 735 286 l 735 293 q 692 401 735 358 q 585 444 650 443 l 585 447 l 749 447 m 749 672 l 749 511 l 585 511 l 585 514 q 693 558 650 515 q 735 667 736 601 l 735 672 l 749 672 m 822 906 l 822 711 l 808 711 l 808 722 q 761 853 808 806 q 629 903 714 901 l 629 906 l 822 906 m 822 997 l 822 957 l 653 972 q 717 976 683 972 q 781 986 751 981 q 822 997 810 992 m 153 101 l 153 0 l 42 0 l 42 14 q 51 14 42 14 q 60 14 60 14 q 122 40 96 14 q 149 101 147 65 l 153 101 m 153 871 l 149 871 q 122 933 147 907 q 60 958 96 958 q 51 958 60 958 q 42 958 42 958 l 42 972 l 153 972 l 153 871 z "},"F":{"ha":876,"x_min":42,"x_max":822,"o":"m 433 972 l 433 0 l 149 0 l 149 972 l 433 972 m 749 514 l 749 444 l 429 444 l 429 514 l 749 514 m 822 972 l 822 901 l 429 901 l 429 972 l 822 972 m 749 447 l 749 286 l 735 286 l 735 293 q 692 401 735 358 q 585 444 650 443 l 585 447 l 749 447 m 749 672 l 749 511 l 585 511 l 585 514 q 693 558 650 515 q 735 667 736 601 l 735 672 l 749 672 m 822 906 l 822 711 l 808 711 l 808 722 q 761 853 808 806 q 629 903 714 901 l 629 906 l 822 906 m 822 997 l 822 957 l 653 972 q 717 976 683 972 q 781 986 751 981 q 822 997 810 992 m 153 101 l 153 0 l 42 0 l 42 14 q 51 14 42 14 q 60 14 60 14 q 122 40 96 14 q 149 101 147 65 l 153 101 m 153 871 l 149 871 q 122 933 147 907 q 60 958 96 958 q 51 958 60 958 q 42 958 42 958 l 42 972 l 153 972 l 153 871 m 429 101 l 433 101 q 460 40 435 65 q 522 14 486 14 q 531 14 522 14 q 540 14 539 14 l 540 0 l 429 0 l 429 101 z "},"G":{"ha":1196,"x_min":49,"x_max":1179,"o":"m 1089 389 l 1089 160 q 982 76 1056 118 q 808 8 908 35 q 590 -19 707 -19 q 305 41 426 -19 q 116 215 183 101 q 49 489 49 329 q 115 758 49 646 q 306 931 181 871 q 604 992 431 992 q 760 983 681 992 q 909 960 840 974 q 1018 928 978 946 l 1004 663 l 992 663 q 911 823 963 767 q 798 901 860 879 q 674 922 736 922 q 492 869 563 922 q 388 717 421 817 q 354 475 354 618 q 383 249 354 344 q 470 101 411 153 q 621 50 529 50 q 708 67 667 50 q 777 117 750 83 q 804 199 804 150 l 806 389 q 735 451 806 451 l 713 451 l 713 465 l 1179 465 l 1179 451 l 1158 451 q 1089 389 1086 451 z "},"Ğ":{"ha":1196,"x_min":49,"x_max":1179,"o":"m 1089 389 l 1089 160 q 982 76 1056 118 q 808 8 908 35 q 590 -19 707 -19 q 305 41 426 -19 q 116 215 183 101 q 49 489 49 329 q 115 758 49 646 q 306 931 181 871 q 604 992 431 992 q 760 983 681 992 q 909 960 840 974 q 1018 928 978 946 l 1004 663 l 992 663 q 911 823 963 767 q 798 901 860 879 q 674 922 736 922 q 492 869 563 922 q 388 717 421 817 q 354 475 354 618 q 383 249 354 344 q 470 101 411 153 q 621 50 529 50 q 708 67 667 50 q 777 117 750 83 q 804 199 804 150 l 806 389 q 735 451 806 451 l 713 451 l 713 465 l 1179 465 l 1179 451 l 1158 451 q 1089 389 1086 451 z "},"Ģ":{"ha":1196,"x_min":49,"x_max":1179,"o":"m 1089 389 l 1089 160 q 982 76 1056 118 q 808 8 908 35 q 590 -19 707 -19 q 305 41 426 -19 q 116 215 183 101 q 49 489 49 329 q 115 758 49 646 q 306 931 181 871 q 604 992 431 992 q 760 983 681 992 q 909 960 840 974 q 1018 928 978 946 l 1004 663 l 992 663 q 911 823 963 767 q 798 901 860 879 q 674 922 736 922 q 492 869 563 922 q 388 717 421 817 q 354 475 354 618 q 383 249 354 344 q 470 101 411 153 q 621 50 529 50 q 708 67 667 50 q 777 117 750 83 q 804 199 804 150 l 806 389 q 735 451 806 451 l 713 451 l 713 465 l 1179 465 l 1179 451 l 1158 451 q 1089 389 1086 451 m 525 -176 q 549 -112 525 -136 q 608 -89 574 -89 q 685 -126 658 -89 q 713 -215 713 -162 q 664 -336 713 -290 q 535 -382 615 -382 l 531 -367 q 561 -342 547 -360 q 575 -301 575 -325 q 569 -272 575 -287 q 549 -242 564 -257 q 531 -211 536 -228 q 525 -176 525 -194 z "},"Ġ":{"ha":1196,"x_min":49,"x_max":1179,"o":"m 1089 389 l 1089 160 q 982 76 1056 118 q 808 8 908 35 q 590 -19 707 -19 q 305 41 426 -19 q 116 215 183 101 q 49 489 49 329 q 115 758 49 646 q 306 931 181 871 q 604 992 431 992 q 760 983 681 992 q 909 960 840 974 q 1018 928 978 946 l 1004 663 l 992 663 q 911 823 963 767 q 798 901 860 879 q 674 922 736 922 q 492 869 563 922 q 388 717 421 817 q 354 475 354 618 q 383 249 354 344 q 470 101 411 153 q 621 50 529 50 q 708 67 667 50 q 777 117 750 83 q 804 199 804 150 l 806 389 q 735 451 806 451 l 713 451 l 713 465 l 1179 465 l 1179 451 l 1158 451 q 1089 389 1086 451 z "},"H":{"ha":1240,"x_min":42,"x_max":1199,"o":"m 1092 972 l 1092 0 l 807 0 l 807 972 l 1092 972 m 433 972 l 433 0 l 149 0 l 149 972 l 433 972 m 819 521 l 819 451 l 419 451 l 419 521 l 819 521 m 153 101 l 153 0 l 42 0 l 42 14 q 51 14 42 14 q 60 14 60 14 q 122 40 96 14 q 149 101 147 65 l 153 101 m 153 871 l 149 871 q 122 933 147 907 q 60 958 96 958 q 51 958 60 958 q 42 958 42 958 l 42 972 l 153 972 l 153 871 m 429 101 l 433 101 q 460 40 435 65 q 522 14 486 14 q 531 14 522 14 q 540 14 539 14 l 540 0 l 429 0 l 429 101 m 429 871 l 429 972 l 540 972 l 540 958 q 531 958 539 958 q 522 958 522 958 q 460 933 486 958 q 433 871 435 907 l 429 871 m 811 101 l 811 0 l 700 0 l 700 14 q 710 14 701 14 q 718 14 718 14 q 781 40 754 14 q 807 101 807 65 l 811 101 m 811 871 l 807 871 q 781 933 807 907 q 718 958 754 958 q 710 958 718 958 q 700 958 701 958 l 700 972 l 811 972 l 811 871 m 1088 101 l 1092 101 q 1119 40 1093 65 q 1181 14 1144 14 q 1190 14 1181 14 q 1199 14 1199 14 l 1199 0 l 1088 0 l 1088 101 m 1088 871 l 1088 972 l 1199 972 l 1199 958 q 1190 958 1199 958 q 1181 958 1181 958 q 1119 933 1144 958 q 1092 871 1093 907 l 1088 871 z "},"Ħ":{"ha":1240,"x_min":42,"x_max":1199,"o":"m 1185 747 l 1185 678 l 58 678 l 58 747 l 1185 747 m 1092 972 l 1092 0 l 807 0 l 807 972 l 1092 972 m 433 972 l 433 0 l 149 0 l 149 972 l 433 972 m 819 521 l 819 451 l 419 451 l 419 521 l 819 521 m 153 101 l 153 0 l 42 0 l 42 14 q 51 14 42 14 q 60 14 60 14 q 122 40 96 14 q 149 101 147 65 l 153 101 m 153 871 l 149 871 q 122 933 147 907 q 60 958 96 958 q 51 958 60 958 q 42 958 42 958 l 42 972 l 153 972 l 153 871 m 429 101 l 433 101 q 461 40 435 65 q 522 14 488 14 q 531 14 522 14 q 540 14 539 14 l 540 0 l 429 0 l 429 101 m 429 871 l 429 972 l 540 972 l 540 958 q 531 958 539 958 q 522 958 522 958 q 461 933 488 958 q 433 871 435 907 l 429 871 m 811 101 l 811 0 l 700 0 l 700 14 q 710 14 701 14 q 718 14 718 14 q 781 40 754 14 q 807 101 807 65 l 811 101 m 811 871 l 807 871 q 781 933 807 907 q 718 958 754 958 q 710 958 718 958 q 700 958 701 958 l 700 972 l 811 972 l 811 871 m 1088 101 l 1092 101 q 1119 40 1093 65 q 1181 14 1144 14 q 1190 14 1181 14 q 1199 14 1199 14 l 1199 0 l 1088 0 l 1088 101 m 1088 871 l 1088 972 l 1199 972 l 1199 958 q 1190 958 1199 958 q 1181 958 1181 958 q 1119 933 1144 958 q 1092 871 1093 907 l 1088 871 z "},"I":{"ha":581,"x_min":42,"x_max":540,"o":"m 433 972 l 433 0 l 149 0 l 149 972 l 433 972 m 153 101 l 153 0 l 42 0 l 42 14 q 51 14 42 14 q 60 14 60 14 q 122 40 96 14 q 149 101 147 65 l 153 101 m 153 871 l 149 871 q 122 933 147 907 q 60 958 96 958 q 51 958 60 958 q 42 958 42 958 l 42 972 l 153 972 l 153 871 m 429 101 l 433 101 q 460 40 435 65 q 522 14 486 14 q 531 14 522 14 q 540 14 539 14 l 540 0 l 429 0 l 429 101 m 429 871 l 429 972 l 540 972 l 540 958 q 531 958 539 958 q 522 958 522 958 q 460 933 486 958 q 433 871 435 907 l 429 871 z "},"Ĳ":{"ha":1169,"x_min":42,"x_max":1128,"o":"m 433 972 l 433 0 l 149 0 l 149 972 l 433 972 m 153 101 l 153 0 l 42 0 l 42 14 q 51 14 42 14 q 60 14 60 14 q 122 40 96 14 q 149 101 147 65 l 153 101 m 153 871 l 149 871 q 122 933 147 907 q 60 958 96 958 q 51 958 60 958 q 42 958 42 958 l 42 972 l 153 972 l 153 871 m 429 101 l 433 101 q 460 40 435 65 q 522 14 486 14 q 531 14 522 14 q 540 14 539 14 l 540 0 l 429 0 l 429 101 m 429 871 l 429 972 l 540 972 l 540 958 q 531 958 539 958 q 522 958 522 958 q 460 933 486 958 q 433 871 435 907 l 429 871 m 1021 972 l 1021 69 q 983 -88 1021 -19 q 882 -203 946 -157 q 738 -269 818 -250 q 574 -278 658 -289 l 574 -265 q 676 -181 640 -235 q 724 -60 711 -126 q 736 74 736 7 l 736 972 l 1021 972 m 740 871 l 736 871 q 709 933 735 907 q 647 958 683 958 q 638 958 647 958 q 629 958 629 958 l 629 972 l 740 972 l 740 871 m 1017 871 l 1017 972 l 1128 972 l 1128 958 q 1119 958 1128 958 q 1110 958 1110 958 q 1048 933 1074 958 q 1021 871 1022 907 l 1017 871 z "},"Í":{"ha":581,"x_min":42,"x_max":590,"o":"m 433 972 l 433 0 l 149 0 l 149 972 l 433 972 m 153 101 l 153 0 l 42 0 l 42 14 q 51 14 42 14 q 60 14 60 14 q 122 40 96 14 q 149 101 147 65 l 153 101 m 153 871 l 149 871 q 122 933 147 907 q 60 958 96 958 q 51 958 60 958 q 42 958 42 958 l 42 972 l 153 972 l 153 871 m 429 101 l 433 101 q 460 40 435 65 q 522 14 486 14 q 531 14 522 14 q 540 14 539 14 l 540 0 l 429 0 l 429 101 m 429 871 l 429 972 l 540 972 l 540 958 q 531 958 539 958 q 522 958 522 958 q 460 933 486 958 q 433 871 435 907 l 429 871 z "},"Î":{"ha":581,"x_min":42,"x_max":544,"o":"m 433 972 l 433 0 l 149 0 l 149 972 l 433 972 m 153 101 l 153 0 l 42 0 l 42 14 q 51 14 42 14 q 60 14 60 14 q 122 40 96 14 q 149 101 147 65 l 153 101 m 153 871 l 149 871 q 122 933 147 907 q 60 958 96 958 q 51 958 60 958 q 42 958 42 958 l 42 972 l 153 972 l 153 871 m 429 101 l 433 101 q 460 40 435 65 q 522 14 486 14 q 531 14 522 14 q 540 14 539 14 l 540 0 l 429 0 l 429 101 m 429 871 l 429 972 l 540 972 l 540 958 q 531 958 539 958 q 522 958 522 958 q 460 933 486 958 q 433 871 435 907 l 429 871 z "},"Ï":{"ha":581,"x_min":0,"x_max":568,"o":"m 433 972 l 433 0 l 149 0 l 149 972 l 433 972 m 153 101 l 153 0 l 42 0 l 42 14 q 51 14 42 14 q 60 14 60 14 q 122 40 96 14 q 149 101 147 65 l 153 101 m 153 871 l 149 871 q 122 933 147 907 q 60 958 96 958 q 51 958 60 958 q 42 958 42 958 l 42 972 l 153 972 l 153 871 m 429 101 l 433 101 q 460 40 435 65 q 522 14 486 14 q 531 14 522 14 q 540 14 539 14 l 540 0 l 429 0 l 429 101 m 429 871 l 429 972 l 540 972 l 540 958 q 531 958 539 958 q 522 958 522 958 q 460 933 486 958 q 433 871 435 907 l 429 871 z "},"İ":{"ha":581,"x_min":42,"x_max":540,"o":"m 433 972 l 433 0 l 149 0 l 149 972 l 433 972 m 153 101 l 153 0 l 42 0 l 42 14 q 51 14 42 14 q 60 14 60 14 q 122 40 96 14 q 149 101 147 65 l 153 101 m 153 871 l 149 871 q 122 933 147 907 q 60 958 96 958 q 51 958 60 958 q 42 958 42 958 l 42 972 l 153 972 l 153 871 m 429 101 l 433 101 q 460 40 435 65 q 522 14 486 14 q 531 14 522 14 q 540 14 539 14 l 540 0 l 429 0 l 429 101 m 429 871 l 429 972 l 540 972 l 540 958 q 531 958 539 958 q 522 958 522 958 q 460 933 486 958 q 433 871 435 907 l 429 871 z "},"Ì":{"ha":581,"x_min":7,"x_max":540,"o":"m 433 972 l 433 0 l 149 0 l 149 972 l 433 972 m 153 101 l 153 0 l 42 0 l 42 14 q 51 14 42 14 q 60 14 60 14 q 122 40 96 14 q 149 101 147 65 l 153 101 m 153 871 l 149 871 q 122 933 147 907 q 60 958 96 958 q 51 958 60 958 q 42 958 42 958 l 42 972 l 153 972 l 153 871 m 429 101 l 433 101 q 460 40 435 65 q 522 14 486 14 q 531 14 522 14 q 540 14 539 14 l 540 0 l 429 0 l 429 101 m 429 871 l 429 972 l 540 972 l 540 958 q 531 958 539 958 q 522 958 522 958 q 460 933 486 958 q 433 871 435 907 l 429 871 m 340 1071 l 331 1061 q 222 1088 281 1068 q 108 1134 164 1107 q 7 1190 51 1161 q 49 1273 22 1239 q 125 1329 75 1307 q 200 1260 157 1303 q 282 1167 243 1217 q 340 1071 321 1117 z "},"Ī":{"ha":581,"x_min":42,"x_max":540,"o":"m 433 972 l 433 0 l 149 0 l 149 972 l 433 972 m 153 101 l 153 0 l 42 0 l 42 14 q 51 14 42 14 q 60 14 60 14 q 122 40 96 14 q 149 101 147 65 l 153 101 m 153 871 l 149 871 q 122 933 147 907 q 60 958 96 958 q 51 958 60 958 q 42 958 42 958 l 42 972 l 153 972 l 153 871 m 429 101 l 433 101 q 460 40 435 65 q 522 14 486 14 q 531 14 522 14 q 540 14 539 14 l 540 0 l 429 0 l 429 101 m 429 871 l 429 972 l 540 972 l 540 958 q 531 958 539 958 q 522 958 522 958 q 460 933 486 958 q 433 871 435 907 l 429 871 z "},"Į":{"ha":581,"x_min":42,"x_max":540,"o":"m 433 972 l 433 0 l 149 0 l 149 972 l 433 972 m 153 101 l 153 0 l 42 0 l 42 14 q 51 14 42 14 q 60 14 60 14 q 122 40 96 14 q 149 101 147 65 l 153 101 m 153 871 l 149 871 q 122 933 147 907 q 60 958 96 958 q 51 958 60 958 q 42 958 42 958 l 42 972 l 153 972 l 153 871 m 429 101 l 433 101 q 460 40 435 65 q 522 14 486 14 q 531 14 522 14 q 540 14 539 14 l 540 0 l 429 0 l 429 101 m 429 871 l 429 972 l 540 972 l 540 958 q 531 958 539 958 q 522 958 522 958 q 460 933 486 958 q 433 871 435 907 l 429 871 z "},"J":{"ha":589,"x_min":-7,"x_max":547,"o":"m 440 972 l 440 69 q 403 -88 440 -19 q 301 -203 365 -157 q 158 -269 238 -250 q -7 -278 78 -289 l -7 -265 q 95 -181 60 -235 q 143 -60 131 -126 q 156 74 156 7 l 156 972 l 440 972 m 160 871 l 156 871 q 128 933 154 907 q 67 958 103 958 q 58 958 67 958 q 49 958 49 958 l 49 972 l 160 972 l 160 871 m 436 871 l 436 972 l 547 972 l 547 958 q 538 958 547 958 q 529 958 529 958 q 467 933 493 958 q 440 871 442 907 l 436 871 z "},"K":{"ha":1142,"x_min":42,"x_max":1178,"o":"m 685 639 l 1029 119 q 1099 42 1063 68 q 1178 14 1135 15 l 1178 0 l 1028 0 q 971 1 1013 0 q 875 14 929 3 q 766 54 821 25 q 671 139 711 83 q 642 181 660 154 q 602 242 624 208 q 558 311 581 276 q 518 375 536 346 q 489 423 500 404 q 478 442 478 442 l 685 639 m 999 963 l 579 456 l 478 442 l 860 963 l 999 963 m 1097 972 l 1097 960 l 1092 960 q 1006 941 1046 960 q 939 892 967 922 l 810 894 q 816 939 826 918 q 776 960 806 960 l 763 960 l 763 972 l 1092 972 l 1097 972 m 433 972 l 433 0 l 149 0 l 149 972 l 433 972 m 153 101 l 153 0 l 42 0 l 42 14 q 51 14 44 14 q 60 14 58 14 q 122 40 96 14 q 149 101 147 65 l 153 101 m 153 871 l 149 871 q 122 933 147 907 q 60 958 96 958 q 51 958 58 958 q 42 958 44 958 l 42 972 l 153 972 l 153 871 m 429 101 l 433 101 q 460 40 435 65 q 522 14 486 14 q 532 14 525 14 q 540 14 539 14 l 540 0 l 429 0 l 429 101 m 429 871 l 429 972 l 540 972 l 540 958 q 532 958 539 958 q 522 958 525 958 q 460 933 486 958 q 433 871 435 907 l 429 871 z "},"Ķ":{"ha":1142,"x_min":42,"x_max":1178,"o":"m 685 639 l 1029 119 q 1099 42 1063 68 q 1178 14 1135 15 l 1178 0 l 1028 0 q 971 1 1013 0 q 875 14 929 3 q 766 54 821 25 q 671 139 711 83 q 642 181 660 154 q 602 242 624 208 q 558 311 581 276 q 518 375 536 346 q 489 423 500 404 q 478 442 478 442 l 685 639 m 999 963 l 579 456 l 478 442 l 860 963 l 999 963 m 1097 972 l 1097 960 l 1092 960 q 1006 941 1046 960 q 939 892 967 922 l 810 894 q 816 939 826 918 q 776 960 806 960 l 763 960 l 763 972 l 1092 972 l 1097 972 m 433 972 l 433 0 l 149 0 l 149 972 l 433 972 m 153 101 l 153 0 l 42 0 l 42 14 q 51 14 44 14 q 60 14 58 14 q 122 40 96 14 q 149 101 147 65 l 153 101 m 153 871 l 149 871 q 122 933 147 907 q 60 958 96 958 q 51 958 58 958 q 42 958 44 958 l 42 972 l 153 972 l 153 871 m 429 101 l 433 101 q 460 40 435 65 q 522 14 486 14 q 532 14 525 14 q 540 14 539 14 l 540 0 l 429 0 l 429 101 m 429 871 l 429 972 l 540 972 l 540 958 q 532 958 539 958 q 522 958 525 958 q 460 933 486 958 q 433 871 435 907 l 429 871 m 561 -176 q 585 -112 561 -136 q 644 -89 610 -89 q 722 -126 694 -89 q 749 -215 749 -162 q 700 -336 749 -290 q 571 -382 651 -382 l 567 -367 q 597 -342 583 -360 q 611 -301 611 -325 q 606 -272 611 -287 q 585 -242 600 -257 q 567 -211 572 -228 q 561 -176 561 -194 z "},"L":{"ha":906,"x_min":42,"x_max":907,"o":"m 433 972 l 433 0 l 149 0 l 149 972 l 433 972 m 794 71 l 850 0 l 429 0 l 429 71 l 794 71 m 907 322 l 854 0 l 554 0 l 604 71 q 728 101 671 71 q 829 187 786 131 q 893 322 872 243 l 907 322 m 153 101 l 153 0 l 42 0 l 42 14 q 51 14 42 14 q 60 14 60 14 q 122 40 96 14 q 149 101 147 65 l 153 101 m 153 871 l 149 871 q 122 933 147 907 q 60 958 96 958 q 51 958 60 958 q 42 958 42 958 l 42 972 l 153 972 l 153 871 m 429 871 l 429 972 l 540 972 l 540 958 q 531 958 539 958 q 522 958 522 958 q 460 933 486 958 q 433 871 435 907 l 429 871 z "},"Ĺ":{"ha":906,"x_min":42,"x_max":907,"o":"m 433 972 l 433 0 l 149 0 l 149 972 l 433 972 m 794 71 l 850 0 l 429 0 l 429 71 l 794 71 m 907 322 l 854 0 l 554 0 l 604 71 q 728 101 671 71 q 829 187 786 131 q 893 322 872 243 l 907 322 m 153 101 l 153 0 l 42 0 l 42 14 q 51 14 42 14 q 60 14 60 14 q 122 40 96 14 q 149 101 147 65 l 153 101 m 153 871 l 149 871 q 122 933 147 907 q 60 958 96 958 q 51 958 60 958 q 42 958 42 958 l 42 972 l 153 972 l 153 871 m 429 871 l 429 972 l 540 972 l 540 958 q 531 958 539 958 q 522 958 522 958 q 460 933 486 958 q 433 871 435 907 l 429 871 z "},"Ľ":{"ha":906,"x_min":42,"x_max":907,"o":"m 433 972 l 433 0 l 149 0 l 149 972 l 433 972 m 794 71 l 850 0 l 429 0 l 429 71 l 794 71 m 907 322 l 854 0 l 554 0 l 604 71 q 728 101 671 71 q 829 187 786 131 q 893 322 872 243 l 907 322 m 153 101 l 153 0 l 42 0 l 42 14 q 51 14 42 14 q 60 14 60 14 q 122 40 96 14 q 149 101 147 65 l 153 101 m 153 871 l 149 871 q 122 933 147 907 q 60 958 96 958 q 51 958 60 958 q 42 958 42 958 l 42 972 l 153 972 l 153 871 m 429 871 l 429 972 l 540 972 l 540 958 q 531 958 539 958 q 522 958 522 958 q 460 933 486 958 q 433 871 435 907 l 429 871 m 626 968 q 676 985 649 985 q 729 970 704 985 q 767 928 754 956 q 781 840 786 885 q 749 758 775 794 q 685 704 724 722 q 603 694 647 686 l 600 707 q 631 733 618 715 q 644 777 644 751 q 617 832 643 803 q 594 905 590 863 q 626 968 597 947 z "},"Ļ":{"ha":906,"x_min":42,"x_max":907,"o":"m 433 972 l 433 0 l 149 0 l 149 972 l 433 972 m 794 71 l 850 0 l 429 0 l 429 71 l 794 71 m 907 322 l 854 0 l 554 0 l 604 71 q 728 101 671 71 q 829 187 786 131 q 893 322 872 243 l 907 322 m 153 101 l 153 0 l 42 0 l 42 14 q 51 14 42 14 q 60 14 60 14 q 122 40 96 14 q 149 101 147 65 l 153 101 m 153 871 l 149 871 q 122 933 147 907 q 60 958 96 958 q 51 958 60 958 q 42 958 42 958 l 42 972 l 153 972 l 153 871 m 429 871 l 429 972 l 540 972 l 540 958 q 531 958 539 958 q 522 958 522 958 q 460 933 486 958 q 433 871 435 907 l 429 871 m 400 -176 q 424 -112 400 -136 q 483 -89 449 -89 q 560 -126 533 -89 q 588 -215 588 -162 q 539 -336 588 -290 q 410 -382 490 -382 l 406 -367 q 436 -342 422 -360 q 450 -301 450 -325 q 444 -272 450 -287 q 424 -242 439 -257 q 406 -211 411 -228 q 400 -176 400 -194 z "},"Ŀ":{"ha":906,"x_min":42,"x_max":907,"o":"m 433 972 l 433 0 l 149 0 l 149 972 l 433 972 m 153 101 l 153 0 l 42 0 l 42 14 q 51 14 42 14 q 60 14 60 14 q 122 40 96 14 q 149 101 147 65 l 153 101 m 794 71 l 850 0 l 429 0 l 429 71 l 794 71 m 907 322 l 854 0 l 554 0 l 604 71 q 728 101 671 71 q 829 187 786 131 q 893 322 872 243 l 907 322 m 153 972 l 153 871 l 149 871 q 122 933 147 907 q 60 958 96 958 q 51 958 60 958 q 42 958 42 958 l 42 972 l 153 972 m 540 972 l 540 958 q 531 958 539 958 q 522 958 522 958 q 460 933 486 958 q 433 871 435 907 l 429 871 l 429 972 l 540 972 m 651 456 q 578 485 608 456 q 549 557 549 514 q 578 630 549 600 q 651 660 608 660 q 723 630 693 660 q 753 557 753 600 q 723 485 753 514 q 651 456 693 456 z "},"Ł":{"ha":906,"x_min":25,"x_max":907,"o":"m 433 972 l 433 0 l 149 0 l 149 972 l 433 972 m 153 972 l 153 871 l 149 871 q 122 933 147 907 q 60 958 96 958 q 51 958 60 958 q 42 958 42 958 l 42 972 l 153 972 m 540 972 l 540 958 q 531 958 539 958 q 522 958 522 958 q 460 933 486 958 q 433 871 435 907 l 429 871 l 429 972 l 540 972 m 153 101 l 153 0 l 42 0 l 42 14 q 51 14 42 14 q 60 14 60 14 q 122 40 96 14 q 149 101 147 65 l 153 101 m 794 71 l 850 0 l 429 0 l 429 71 l 794 71 m 907 322 l 854 0 l 554 0 l 604 71 q 728 101 671 71 q 829 187 786 131 q 893 322 872 243 l 907 322 m 25 381 l 540 679 l 576 615 l 61 317 l 25 381 z "},"M":{"ha":1344,"x_min":-35,"x_max":1381,"o":"m 1118 992 l 1129 803 l 675 128 q 660 103 675 128 q 630 41 644 78 q 617 -33 615 4 l 604 -33 l 526 110 l 1118 992 m 119 101 l 119 0 l -35 0 l -35 14 q -23 14 -33 14 q -12 14 -12 14 q 54 37 25 14 q 89 101 83 60 l 119 101 m 194 79 q 194 76 194 78 q 194 72 194 75 q 210 31 194 50 q 249 13 226 13 l 271 13 l 271 0 l 185 0 l 185 79 l 194 79 m 211 992 l 224 992 l 286 815 l 185 0 l 75 0 l 211 992 m 224 992 l 713 324 l 604 -33 l 182 550 l 224 992 m 1131 992 l 1271 0 l 974 0 l 907 507 l 1118 992 l 1131 992 m 1226 101 l 1257 101 q 1292 37 1264 60 q 1358 14 1321 14 q 1369 14 1358 14 q 1381 14 1379 14 l 1381 0 l 1226 0 l 1226 101 m 964 79 l 974 79 l 974 0 l 888 0 l 888 13 l 910 13 q 948 31 932 13 q 964 72 964 50 q 964 76 964 75 q 964 79 964 78 z "},"N":{"ha":1224,"x_min":28,"x_max":1196,"o":"m 135 993 l 1072 160 l 1090 -19 l 153 813 l 135 993 m 143 99 l 143 0 l 28 0 l 28 14 q 40 14 28 14 q 54 14 53 14 q 114 39 89 14 q 139 99 139 64 l 143 99 m 425 99 q 450 39 425 64 q 510 14 475 14 q 524 14 511 14 q 536 14 536 14 l 536 0 l 421 0 l 421 99 l 425 99 m 135 993 l 424 693 l 425 0 l 139 0 l 139 819 q 130 947 139 901 q 121 993 121 993 l 135 993 m 1085 972 l 1085 158 q 1090 61 1085 101 q 1099 1 1094 21 q 1103 -19 1103 -19 l 1090 -19 l 800 303 l 800 972 l 1085 972 m 1196 972 l 1196 958 q 1183 958 1196 958 q 1171 958 1171 958 q 1111 934 1136 958 q 1085 874 1086 910 l 1081 874 l 1081 972 l 1196 972 m 688 972 l 803 972 l 803 874 l 800 874 q 774 934 799 910 q 714 958 750 958 q 701 958 714 958 q 688 958 689 958 l 688 972 z "},"Ń":{"ha":1224,"x_min":28,"x_max":1196,"o":"m 135 993 l 1072 160 l 1090 -19 l 153 813 l 135 993 m 143 99 l 143 0 l 28 0 l 28 14 q 40 14 28 14 q 54 14 53 14 q 114 39 89 14 q 139 99 139 64 l 143 99 m 425 99 q 450 39 425 64 q 510 14 475 14 q 524 14 511 14 q 536 14 536 14 l 536 0 l 421 0 l 421 99 l 425 99 m 135 993 l 424 693 l 425 0 l 139 0 l 139 819 q 130 947 139 901 q 121 993 121 993 l 135 993 m 1085 972 l 1085 158 q 1090 61 1085 101 q 1099 1 1094 21 q 1103 -19 1103 -19 l 1090 -19 l 800 303 l 800 972 l 1085 972 m 1196 972 l 1196 958 q 1183 958 1196 958 q 1171 958 1171 958 q 1111 934 1136 958 q 1085 874 1086 910 l 1081 874 l 1081 972 l 1196 972 m 688 972 l 803 972 l 803 874 l 800 874 q 774 934 799 910 q 714 958 750 958 q 701 958 714 958 q 688 958 689 958 l 688 972 z "},"Ň":{"ha":1224,"x_min":28,"x_max":1196,"o":"m 135 993 l 1072 160 l 1090 -19 l 153 813 l 135 993 m 143 99 l 143 0 l 28 0 l 28 14 q 40 14 28 14 q 54 14 53 14 q 114 39 89 14 q 139 99 139 64 l 143 99 m 425 99 q 450 39 425 64 q 510 14 475 14 q 524 14 511 14 q 536 14 536 14 l 536 0 l 421 0 l 421 99 l 425 99 m 135 993 l 424 693 l 425 0 l 139 0 l 139 819 q 130 947 139 901 q 121 993 121 993 l 135 993 m 1085 972 l 1085 158 q 1090 61 1085 101 q 1099 1 1094 21 q 1103 -19 1103 -19 l 1090 -19 l 800 303 l 800 972 l 1085 972 m 1196 972 l 1196 958 q 1183 958 1196 958 q 1171 958 1171 958 q 1111 934 1136 958 q 1085 874 1086 910 l 1081 874 l 1081 972 l 1196 972 m 688 972 l 803 972 l 803 874 l 800 874 q 774 934 799 910 q 714 958 750 958 q 701 958 714 958 q 688 958 689 958 l 688 972 z "},"Ņ":{"ha":1224,"x_min":28,"x_max":1196,"o":"m 135 993 l 1072 160 l 1090 -19 l 153 813 l 135 993 m 143 99 l 143 0 l 28 0 l 28 14 q 40 14 28 14 q 54 14 53 14 q 114 39 89 14 q 139 99 139 64 l 143 99 m 425 99 q 450 39 425 64 q 510 14 475 14 q 524 14 511 14 q 536 14 536 14 l 536 0 l 421 0 l 421 99 l 425 99 m 135 993 l 424 693 l 425 0 l 139 0 l 139 819 q 130 947 139 901 q 121 993 121 993 l 135 993 m 1085 972 l 1085 158 q 1090 61 1085 101 q 1099 1 1094 21 q 1103 -19 1103 -19 l 1090 -19 l 800 303 l 800 972 l 1085 972 m 1196 972 l 1196 958 q 1183 958 1196 958 q 1171 958 1171 958 q 1111 934 1136 958 q 1085 874 1086 910 l 1081 874 l 1081 972 l 1196 972 m 688 972 l 803 972 l 803 874 l 800 874 q 774 934 799 910 q 714 958 750 958 q 701 958 714 958 q 688 958 689 958 l 688 972 m 614 -176 q 638 -112 614 -136 q 697 -89 663 -89 q 774 -126 747 -89 q 801 -215 801 -162 q 753 -336 801 -290 q 624 -382 704 -382 l 619 -367 q 650 -342 636 -360 q 664 -301 664 -325 q 658 -272 664 -287 q 638 -242 653 -257 q 619 -211 625 -228 q 614 -176 614 -194 z "},"Ŋ":{"ha":1238,"x_min":28,"x_max":1196,"o":"m 135 993 l 410 693 l 411 0 l 139 0 l 139 819 q 130 947 139 901 q 121 993 121 993 l 135 993 m 143 99 l 143 0 l 28 0 l 28 14 q 40 14 28 14 q 54 14 53 14 q 114 39 89 14 q 139 99 139 64 l 143 99 m 411 99 q 436 39 411 64 q 496 14 461 14 q 510 14 497 14 q 522 14 522 14 l 522 0 l 407 0 l 407 99 l 411 99 m 1090 -19 l 153 813 l 135 993 l 1072 160 l 1090 -19 m 1090 -6 q 1058 -141 1090 -82 q 972 -237 1026 -200 q 847 -284 917 -274 q 699 -276 776 -294 l 692 -265 q 749 -213 725 -237 q 787 -157 772 -189 q 808 -74 801 -125 q 814 58 814 -22 l 814 972 l 1085 972 l 1090 -6 m 701 972 l 817 972 l 817 874 l 814 874 q 788 934 813 910 q 728 958 764 958 q 715 958 728 958 q 701 958 703 958 l 701 972 m 1196 972 l 1196 958 q 1183 958 1196 958 q 1171 958 1171 958 q 1111 934 1136 958 q 1085 874 1086 910 l 1081 874 l 1081 972 l 1196 972 z "},"Ñ":{"ha":1224,"x_min":28,"x_max":1196,"o":"m 135 993 l 1072 160 l 1090 -19 l 153 813 l 135 993 m 143 99 l 143 0 l 28 0 l 28 14 q 40 14 28 14 q 54 14 53 14 q 114 39 89 14 q 139 99 139 64 l 143 99 m 425 99 q 450 39 425 64 q 510 14 475 14 q 524 14 511 14 q 536 14 536 14 l 536 0 l 421 0 l 421 99 l 425 99 m 135 993 l 424 693 l 425 0 l 139 0 l 139 819 q 130 947 139 901 q 121 993 121 993 l 135 993 m 1085 972 l 1085 158 q 1090 61 1085 101 q 1099 1 1094 21 q 1103 -19 1103 -19 l 1090 -19 l 800 303 l 800 972 l 1085 972 m 1196 972 l 1196 958 q 1183 958 1196 958 q 1171 958 1171 958 q 1111 934 1136 958 q 1085 874 1086 910 l 1081 874 l 1081 972 l 1196 972 m 688 972 l 803 972 l 803 874 l 800 874 q 774 934 799 910 q 714 958 750 958 q 701 958 714 958 q 688 958 689 958 l 688 972 z "},"O":{"ha":1257,"x_min":49,"x_max":1203,"o":"m 625 992 q 934 931 804 992 q 1133 758 1064 871 q 1203 486 1203 646 q 1133 215 1203 328 q 934 41 1064 101 q 625 -19 804 -19 q 317 41 446 -19 q 118 214 188 101 q 49 486 49 326 q 118 758 49 644 q 317 931 188 871 q 625 992 446 992 m 625 50 q 772 102 711 50 q 864 251 832 154 q 896 486 896 349 q 864 721 896 624 q 772 870 832 818 q 625 922 711 922 q 480 870 540 922 q 388 721 419 818 q 356 486 356 624 q 388 251 356 349 q 480 102 419 154 q 625 50 540 50 z "},"Ó":{"ha":1257,"x_min":49,"x_max":1203,"o":"m 625 992 q 934 931 804 992 q 1133 758 1064 871 q 1203 486 1203 646 q 1133 215 1203 328 q 934 41 1064 101 q 625 -19 804 -19 q 317 41 446 -19 q 118 214 188 101 q 49 486 49 326 q 118 758 49 644 q 317 931 188 871 q 625 992 446 992 m 625 50 q 772 102 711 50 q 864 251 832 154 q 896 486 896 349 q 864 721 896 624 q 772 870 832 818 q 625 922 711 922 q 480 870 540 922 q 388 721 419 818 q 356 486 356 624 q 388 251 356 349 q 480 102 419 154 q 625 50 540 50 z "},"Ô":{"ha":1257,"x_min":49,"x_max":1203,"o":"m 625 992 q 934 931 804 992 q 1133 758 1064 871 q 1203 486 1203 646 q 1133 215 1203 328 q 934 41 1064 101 q 625 -19 804 -19 q 317 41 446 -19 q 118 214 188 101 q 49 486 49 326 q 118 758 49 644 q 317 931 188 871 q 625 992 446 992 m 625 50 q 772 102 711 50 q 864 251 832 154 q 896 486 896 349 q 864 721 896 624 q 772 870 832 818 q 625 922 711 922 q 480 870 540 922 q 388 721 419 818 q 356 486 356 624 q 388 251 356 349 q 480 102 419 154 q 625 50 540 50 z "},"Ö":{"ha":1257,"x_min":49,"x_max":1203,"o":"m 625 992 q 934 931 804 992 q 1133 758 1064 871 q 1203 486 1203 646 q 1133 215 1203 328 q 934 41 1064 101 q 625 -19 804 -19 q 317 41 446 -19 q 118 214 188 101 q 49 486 49 326 q 118 758 49 644 q 317 931 188 871 q 625 992 446 992 m 625 50 q 772 102 711 50 q 864 251 832 154 q 896 486 896 349 q 864 721 896 624 q 772 870 832 818 q 625 922 711 922 q 480 870 540 922 q 388 721 419 818 q 356 486 356 624 q 388 251 356 349 q 480 102 419 154 q 625 50 540 50 z "},"Ò":{"ha":1257,"x_min":49,"x_max":1203,"o":"m 625 992 q 934 931 804 992 q 1133 758 1064 871 q 1203 486 1203 646 q 1133 215 1203 328 q 934 41 1064 101 q 625 -19 804 -19 q 317 41 446 -19 q 118 214 188 101 q 49 486 49 326 q 118 758 49 644 q 317 931 188 871 q 625 992 446 992 m 625 50 q 777 102 715 50 q 871 251 839 154 q 903 486 903 349 q 871 721 903 624 q 777 870 839 818 q 625 922 715 922 q 474 870 536 922 q 381 721 413 818 q 349 486 349 624 q 381 251 349 349 q 474 102 413 154 q 625 50 536 50 m 663 1090 l 653 1081 q 544 1107 603 1088 q 430 1153 486 1126 q 329 1210 374 1181 q 371 1292 344 1258 q 449 1349 397 1326 q 522 1279 479 1322 q 604 1186 565 1236 q 663 1090 643 1136 z "},"Ő":{"ha":1257,"x_min":49,"x_max":1203,"o":"m 625 992 q 934 931 804 992 q 1133 758 1064 871 q 1203 486 1203 646 q 1133 215 1203 328 q 934 41 1064 101 q 625 -19 804 -19 q 317 41 446 -19 q 118 214 188 101 q 49 486 49 326 q 118 758 49 644 q 317 931 188 871 q 625 992 446 992 m 625 50 q 772 102 711 50 q 864 251 832 154 q 896 486 896 349 q 864 721 896 624 q 772 870 832 818 q 625 922 711 922 q 480 870 540 922 q 388 721 419 818 q 356 486 356 624 q 388 251 356 349 q 480 102 419 154 q 625 50 540 50 z "},"Ō":{"ha":1257,"x_min":49,"x_max":1203,"o":"m 625 992 q 934 931 804 992 q 1133 758 1064 871 q 1203 486 1203 646 q 1133 215 1203 328 q 934 41 1064 101 q 625 -19 804 -19 q 317 41 446 -19 q 118 214 188 101 q 49 486 49 326 q 118 758 49 644 q 317 931 188 871 q 625 992 446 992 m 625 50 q 772 102 711 50 q 864 251 832 154 q 896 486 896 349 q 864 721 896 624 q 772 870 832 818 q 625 922 711 922 q 480 870 540 922 q 388 721 419 818 q 356 486 356 624 q 388 251 356 349 q 480 102 419 154 q 625 50 540 50 z "},"Ø":{"ha":1257,"x_min":49,"x_max":1203,"o":"m 625 992 q 934 931 804 992 q 1133 758 1064 871 q 1203 486 1203 646 q 1133 215 1203 328 q 934 41 1064 101 q 625 -19 804 -19 q 317 41 446 -19 q 118 214 188 101 q 49 486 49 326 q 118 758 49 644 q 317 931 188 871 q 625 992 446 992 m 625 50 q 777 102 715 50 q 871 251 839 154 q 903 486 903 349 q 871 721 903 624 q 777 870 839 818 q 625 922 715 922 q 474 870 536 922 q 381 721 413 818 q 349 486 349 624 q 381 251 349 349 q 474 102 413 154 q 625 50 536 50 m 1003 1008 l 1064 961 l 213 -32 l 151 18 l 1003 1008 z "},"Õ":{"ha":1257,"x_min":49,"x_max":1203,"o":"m 625 992 q 934 931 804 992 q 1133 758 1064 871 q 1203 486 1203 646 q 1133 215 1203 328 q 934 41 1064 101 q 625 -19 804 -19 q 317 41 446 -19 q 118 214 188 101 q 49 486 49 326 q 118 758 49 644 q 317 931 188 871 q 625 992 446 992 m 625 50 q 772 102 711 50 q 864 251 832 154 q 896 486 896 349 q 864 721 896 624 q 772 870 832 818 q 625 922 711 922 q 480 870 540 922 q 388 721 419 818 q 356 486 356 624 q 388 251 356 349 q 480 102 419 154 q 625 50 540 50 z "},"Œ":{"ha":1586,"x_min":49,"x_max":1567,"o":"m 638 992 q 721 988 686 992 q 794 979 756 985 q 842 974 818 976 q 889 972 865 972 l 890 0 q 861 0 879 0 q 815 -3 843 0 q 753 -10 781 -6 q 694 -17 725 -14 q 621 -19 664 -19 q 319 41 449 -19 q 119 215 190 101 q 49 489 49 329 q 119 760 49 647 q 321 932 189 872 q 638 992 453 992 m 640 50 q 730 65 693 50 q 787 103 767 81 q 807 144 807 125 l 807 828 q 788 869 807 847 q 731 906 768 890 q 642 922 694 922 q 490 873 557 922 q 383 727 422 824 q 343 486 344 631 q 380 251 343 349 q 484 102 417 154 q 640 50 551 50 m 1093 972 l 1093 0 l 808 0 l 808 972 l 1093 972 m 1454 71 l 1510 0 l 1089 0 l 1089 71 l 1454 71 m 1408 514 l 1408 444 l 1089 444 l 1089 514 l 1408 514 m 1482 972 l 1482 901 l 1089 901 l 1089 972 l 1482 972 m 1567 322 l 1514 0 l 1214 0 l 1264 71 q 1388 101 1331 71 q 1489 187 1446 131 q 1553 322 1532 243 l 1567 322 m 1408 447 l 1408 286 l 1394 286 l 1394 293 q 1352 401 1394 358 q 1244 444 1310 443 l 1244 447 l 1408 447 m 1408 672 l 1408 511 l 1244 511 l 1244 514 q 1353 558 1310 515 q 1394 667 1396 601 l 1394 672 l 1408 672 m 1482 906 l 1482 711 l 1468 711 l 1468 722 q 1421 853 1468 806 q 1289 903 1374 901 l 1289 906 l 1482 906 m 1482 997 l 1482 957 l 1313 972 q 1377 976 1343 972 q 1440 986 1411 981 q 1482 997 1469 992 z "},"P":{"ha":982,"x_min":49,"x_max":965,"o":"m 422 972 l 578 972 q 799 935 717 972 q 919 839 881 899 q 961 707 957 779 q 938 568 965 631 q 862 464 911 506 q 750 405 813 422 q 619 399 688 388 q 488 457 551 411 l 488 471 q 501 473 488 471 q 535 483 514 475 q 578 508 556 492 q 622 556 601 525 q 654 635 643 588 q 662 678 660 656 q 663 718 664 700 q 615 853 660 803 q 489 903 569 903 l 436 903 q 433 920 436 903 q 426 955 429 938 q 422 972 422 972 m 440 972 l 440 0 l 156 0 l 156 972 l 440 972 m 160 101 l 160 0 l 49 0 l 49 14 q 58 14 51 14 q 67 14 65 14 q 128 40 103 14 q 156 101 154 65 l 160 101 m 160 871 l 156 871 q 129 933 156 907 q 67 958 103 958 q 59 958 65 958 q 50 958 53 958 l 49 972 l 160 972 l 160 871 m 436 101 l 440 101 q 467 40 442 65 q 529 14 493 14 q 539 14 532 14 q 547 14 546 14 l 547 0 l 436 0 l 436 101 z "},"Þ":{"ha":982,"x_min":60,"x_max":965,"o":"m 451 972 l 451 0 l 167 0 l 167 972 l 451 972 m 169 101 l 169 0 l 60 0 l 60 14 q 68 14 60 14 q 78 14 76 14 q 140 40 114 14 q 167 101 165 65 l 169 101 m 169 871 l 167 871 q 140 933 165 907 q 78 958 114 958 q 68 958 76 958 q 60 958 60 958 l 60 972 l 169 972 l 169 871 m 447 101 l 451 101 q 478 40 451 65 q 540 14 504 14 q 549 14 540 14 q 557 14 557 14 l 557 0 l 447 0 l 447 101 m 447 871 l 447 972 l 557 972 l 557 958 q 549 958 557 958 q 540 958 540 958 q 478 933 504 958 q 451 871 451 907 l 447 871 m 422 775 l 578 775 q 799 738 717 775 q 919 642 881 701 q 961 510 957 582 q 938 371 965 433 q 862 267 911 308 q 750 208 813 225 q 619 202 688 190 q 488 260 551 214 l 488 274 q 501 276 488 274 q 535 286 514 278 q 578 311 556 294 q 622 359 601 328 q 654 438 643 390 q 662 481 660 458 q 663 521 664 503 q 615 656 660 606 q 489 706 569 706 l 436 706 q 433 723 436 706 q 426 758 429 740 q 422 775 422 775 z "},"Q":{"ha":1267,"x_min":56,"x_max":1911,"o":"m 629 -19 l 554 49 q 751 31 669 39 q 893 12 832 22 q 1009 -14 954 1 q 1128 -51 1064 -29 q 1279 -106 1192 -74 q 1474 -160 1383 -143 q 1641 -174 1564 -176 q 1783 -149 1718 -171 q 1901 -89 1847 -128 l 1911 -93 q 1872 -253 1911 -183 q 1763 -366 1833 -322 q 1597 -421 1693 -410 q 1387 -406 1501 -432 q 1144 -311 1272 -381 q 992 -214 1060 -264 q 865 -120 924 -164 q 749 -49 806 -76 q 629 -19 692 -21 m 632 992 q 941 931 811 992 q 1140 758 1071 871 q 1210 486 1210 646 q 1140 215 1210 328 q 941 41 1071 101 q 632 -19 811 -19 q 324 41 453 -19 q 125 214 194 101 q 56 486 56 326 q 125 758 56 644 q 324 931 194 871 q 632 992 453 992 m 632 50 q 778 102 718 50 q 871 251 839 154 q 903 486 903 349 q 871 721 903 624 q 778 870 839 818 q 632 922 718 922 q 487 870 547 922 q 394 721 426 818 q 363 486 363 624 q 394 251 363 349 q 487 102 426 154 q 632 50 547 50 z "},"R":{"ha":1101,"x_min":49,"x_max":1186,"o":"m 424 972 l 592 972 q 719 961 654 972 q 839 922 785 950 q 926 842 893 893 q 960 710 960 790 q 940 601 960 657 q 873 502 921 544 q 738 446 825 460 q 839 389 796 429 q 907 307 882 349 q 921 283 910 303 q 949 235 932 264 q 986 176 967 207 q 1025 119 1006 146 q 1081 54 1057 76 q 1128 24 1104 32 q 1186 14 1153 15 l 1186 0 l 1013 0 q 858 10 929 0 q 731 53 788 19 q 632 158 675 86 q 607 208 617 183 q 590 257 597 233 q 578 302 583 281 q 569 344 574 324 q 560 382 565 364 q 526 450 546 432 q 488 475 507 468 l 488 489 q 500 489 493 489 q 510 489 507 489 q 579 507 549 489 q 631 563 610 525 q 658 660 651 600 q 661 684 660 671 q 661 717 663 697 q 610 860 656 819 q 503 900 565 900 q 485 900 496 900 q 461 900 474 900 q 438 900 449 900 q 434 918 438 900 q 427 954 431 936 q 424 972 424 972 m 442 972 l 442 0 l 156 0 l 156 972 l 442 972 m 160 101 l 160 0 l 49 0 l 49 14 q 58 14 51 14 q 67 14 65 14 q 128 40 103 14 q 156 101 154 65 l 160 101 m 160 871 l 156 871 q 128 933 154 907 q 67 958 103 958 q 58 958 65 958 q 49 958 51 958 l 49 972 l 160 972 l 160 871 m 438 101 l 442 101 q 468 40 442 65 q 531 14 494 14 q 540 14 533 14 q 547 14 546 14 l 547 0 l 438 0 l 438 101 z "},"Ŕ":{"ha":1101,"x_min":49,"x_max":1186,"o":"m 424 972 l 592 972 q 719 961 654 972 q 839 922 785 950 q 926 842 893 893 q 960 710 960 790 q 940 601 960 657 q 873 502 921 544 q 738 446 825 460 q 839 389 796 429 q 907 307 882 349 q 921 283 910 303 q 949 235 932 264 q 986 176 967 207 q 1025 119 1006 146 q 1081 54 1057 76 q 1128 24 1104 32 q 1186 14 1153 15 l 1186 0 l 1013 0 q 858 10 929 0 q 731 53 788 19 q 632 158 675 86 q 607 208 617 183 q 590 257 597 233 q 578 302 583 281 q 569 344 574 324 q 560 382 565 364 q 526 450 546 432 q 488 475 507 468 l 488 489 q 500 489 493 489 q 510 489 507 489 q 579 507 549 489 q 631 563 610 525 q 658 660 651 600 q 661 684 660 671 q 661 717 663 697 q 610 860 656 819 q 503 900 565 900 q 485 900 496 900 q 461 900 474 900 q 438 900 449 900 q 434 918 438 900 q 427 954 431 936 q 424 972 424 972 m 442 972 l 442 0 l 156 0 l 156 972 l 442 972 m 160 101 l 160 0 l 49 0 l 49 14 q 58 14 51 14 q 67 14 65 14 q 128 40 103 14 q 156 101 154 65 l 160 101 m 160 871 l 156 871 q 128 933 154 907 q 67 958 103 958 q 58 958 65 958 q 49 958 51 958 l 49 972 l 160 972 l 160 871 m 438 101 l 442 101 q 468 40 442 65 q 531 14 494 14 q 540 14 533 14 q 547 14 546 14 l 547 0 l 438 0 l 438 101 z "},"Ř":{"ha":1101,"x_min":49,"x_max":1186,"o":"m 424 972 l 592 972 q 719 961 654 972 q 839 922 785 950 q 926 842 893 893 q 960 710 960 790 q 940 601 960 657 q 873 502 921 544 q 738 446 825 460 q 839 389 796 429 q 907 307 882 349 q 921 283 910 303 q 949 235 932 264 q 986 176 967 207 q 1025 119 1006 146 q 1081 54 1057 76 q 1128 24 1104 32 q 1186 14 1153 15 l 1186 0 l 1013 0 q 858 10 929 0 q 731 53 788 19 q 632 158 675 86 q 607 208 617 183 q 590 257 597 233 q 578 302 583 281 q 569 344 574 324 q 560 382 565 364 q 526 450 546 432 q 488 475 507 468 l 488 489 q 500 489 493 489 q 510 489 507 489 q 579 507 549 489 q 631 563 610 525 q 658 660 651 600 q 661 684 660 671 q 661 717 663 697 q 610 860 656 819 q 503 900 565 900 q 485 900 496 900 q 461 900 474 900 q 438 900 449 900 q 434 918 438 900 q 427 954 431 936 q 424 972 424 972 m 442 972 l 442 0 l 156 0 l 156 972 l 442 972 m 160 101 l 160 0 l 49 0 l 49 14 q 58 14 51 14 q 67 14 65 14 q 128 40 103 14 q 156 101 154 65 l 160 101 m 160 871 l 156 871 q 128 933 154 907 q 67 958 103 958 q 58 958 65 958 q 49 958 51 958 l 49 972 l 160 972 l 160 871 m 438 101 l 442 101 q 468 40 442 65 q 531 14 494 14 q 540 14 533 14 q 547 14 546 14 l 547 0 l 438 0 l 438 101 z "},"Ŗ":{"ha":1101,"x_min":49,"x_max":1186,"o":"m 424 972 l 592 972 q 719 961 654 972 q 839 922 785 950 q 926 842 893 893 q 960 710 960 790 q 940 601 960 657 q 873 502 921 544 q 738 446 825 460 q 839 389 796 429 q 907 307 882 349 q 921 283 910 303 q 949 235 932 264 q 986 176 967 207 q 1025 119 1006 146 q 1081 54 1057 76 q 1128 24 1104 32 q 1186 14 1153 15 l 1186 0 l 1013 0 q 858 10 929 0 q 731 53 788 19 q 632 158 675 86 q 607 208 617 183 q 590 257 597 233 q 578 302 583 281 q 569 344 574 324 q 560 382 565 364 q 526 450 546 432 q 488 475 507 468 l 488 489 q 500 489 493 489 q 510 489 507 489 q 579 507 549 489 q 631 563 610 525 q 658 660 651 600 q 661 684 660 671 q 661 717 663 697 q 610 860 656 819 q 503 900 565 900 q 485 900 496 900 q 461 900 474 900 q 438 900 449 900 q 434 918 438 900 q 427 954 431 936 q 424 972 424 972 m 442 972 l 442 0 l 156 0 l 156 972 l 442 972 m 160 101 l 160 0 l 49 0 l 49 14 q 58 14 51 14 q 67 14 65 14 q 128 40 103 14 q 156 101 154 65 l 160 101 m 160 871 l 156 871 q 128 933 154 907 q 67 958 103 958 q 58 958 65 958 q 49 958 51 958 l 49 972 l 160 972 l 160 871 m 438 101 l 442 101 q 468 40 442 65 q 531 14 494 14 q 540 14 533 14 q 547 14 546 14 l 547 0 l 438 0 l 438 101 m 575 -176 q 599 -112 575 -136 q 658 -89 624 -89 q 735 -126 708 -89 q 763 -215 763 -162 q 714 -336 763 -290 q 585 -382 665 -382 l 581 -367 q 611 -342 597 -360 q 625 -301 625 -325 q 619 -272 625 -287 q 599 -242 614 -257 q 581 -211 586 -228 q 575 -176 575 -194 z "},"S":{"ha":896,"x_min":60,"x_max":847,"o":"m 408 992 q 490 989 439 992 q 597 981 542 986 q 694 972 653 976 q 749 961 736 967 l 721 751 l 707 751 q 648 875 707 828 q 486 922 589 922 q 351 890 401 922 q 297 806 301 857 q 331 728 293 756 q 421 676 369 700 l 681 556 q 803 454 758 521 q 840 286 847 388 q 716 59 831 138 q 404 -19 601 -19 q 258 -7 324 -19 q 147 26 193 6 q 75 71 100 46 q 63 156 60 106 q 81 255 65 206 q 119 333 97 304 l 132 333 q 163 196 128 261 q 267 90 197 131 q 433 50 336 50 q 581 92 533 50 q 629 186 629 133 q 595 267 629 231 q 482 339 561 303 l 256 444 q 116 567 160 489 q 85 743 72 644 q 136 879 94 824 q 247 963 178 935 q 408 992 315 992 m 751 978 l 747 949 l 546 949 l 546 978 l 751 978 z "},"Ś":{"ha":896,"x_min":60,"x_max":847,"o":"m 408 992 q 490 989 439 992 q 597 981 542 986 q 694 972 653 976 q 749 961 736 967 l 721 751 l 707 751 q 648 875 707 828 q 486 922 589 922 q 351 890 401 922 q 297 806 301 857 q 331 728 293 756 q 421 676 369 700 l 681 556 q 803 454 758 521 q 840 286 847 388 q 716 59 831 138 q 404 -19 601 -19 q 258 -7 324 -19 q 147 26 193 6 q 75 71 100 46 q 63 156 60 106 q 81 255 65 206 q 119 333 97 304 l 132 333 q 163 196 128 261 q 267 90 197 131 q 433 50 336 50 q 581 92 533 50 q 629 186 629 133 q 595 267 629 231 q 482 339 561 303 l 256 444 q 116 567 160 489 q 85 743 72 644 q 136 879 94 824 q 247 963 178 935 q 408 992 315 992 m 751 978 l 747 949 l 546 949 l 546 978 l 751 978 z "},"Š":{"ha":896,"x_min":60,"x_max":847,"o":"m 408 992 q 490 989 439 992 q 597 981 542 986 q 694 972 653 976 q 749 961 736 967 l 721 751 l 707 751 q 648 875 707 828 q 486 922 589 922 q 351 890 401 922 q 297 806 301 857 q 331 728 293 756 q 421 676 369 700 l 681 556 q 803 454 758 521 q 840 286 847 388 q 716 59 831 138 q 404 -19 601 -19 q 258 -7 324 -19 q 147 26 193 6 q 75 71 100 46 q 63 156 60 106 q 81 255 65 206 q 119 333 97 304 l 132 333 q 163 196 128 261 q 267 90 197 131 q 433 50 336 50 q 581 92 533 50 q 629 186 629 133 q 595 267 629 231 q 482 339 561 303 l 256 444 q 116 567 160 489 q 85 743 72 644 q 136 879 94 824 q 247 963 178 935 q 408 992 315 992 m 751 978 l 747 949 l 546 949 l 546 978 l 751 978 z "},"Ş":{"ha":896,"x_min":60,"x_max":847,"o":"m 408 992 q 490 989 439 992 q 597 981 542 986 q 694 972 653 976 q 749 961 736 967 l 721 751 l 707 751 q 648 875 707 828 q 486 922 589 922 q 351 890 401 922 q 297 806 301 857 q 331 728 293 756 q 421 676 369 700 l 681 556 q 803 454 758 521 q 840 286 847 388 q 716 59 831 138 q 404 -19 601 -19 q 258 -7 324 -19 q 147 26 193 6 q 75 71 100 46 q 63 156 60 106 q 81 255 65 206 q 119 333 97 304 l 132 333 q 163 196 128 261 q 267 90 197 131 q 433 50 336 50 q 581 92 533 50 q 629 186 629 133 q 595 267 629 231 q 482 339 561 303 l 256 444 q 116 567 160 489 q 85 743 72 644 q 136 879 94 824 q 247 963 178 935 q 408 992 315 992 m 751 978 l 747 949 l 546 949 l 546 978 l 751 978 z "},"Ș":{"ha":896,"x_min":60,"x_max":847,"o":"m 408 992 q 490 989 439 992 q 597 981 542 986 q 694 972 653 976 q 749 961 736 967 l 721 751 l 707 751 q 688 828 707 794 q 633 885 669 863 q 568 913 606 903 q 486 922 531 922 q 388 907 429 922 q 324 866 347 892 q 297 806 300 840 q 331 728 293 756 q 421 676 369 700 l 681 556 q 803 454 758 521 q 840 286 847 388 q 716 59 831 138 q 404 -19 601 -19 q 197 7 283 -19 q 75 71 111 33 q 63 156 60 106 q 81 255 65 206 q 119 333 97 304 l 132 333 q 163 196 128 261 q 267 90 197 131 q 433 50 336 50 q 581 92 533 50 q 629 186 629 133 q 595 267 629 231 q 482 339 561 303 l 256 444 q 116 567 160 489 q 85 743 72 644 q 136 879 94 824 q 247 963 178 935 q 408 992 315 992 m 751 978 l 747 949 l 546 949 l 546 978 l 751 978 m 344 -176 q 369 -112 344 -136 q 428 -89 393 -89 q 505 -126 478 -89 q 532 -215 532 -162 q 483 -336 532 -290 q 354 -382 435 -382 l 350 -367 q 381 -342 367 -360 q 394 -301 394 -325 q 389 -272 394 -287 q 368 -242 383 -257 q 350 -211 356 -228 q 344 -176 344 -194 z "},"T":{"ha":969,"x_min":14,"x_max":957,"o":"m 628 968 l 628 0 l 343 0 l 343 968 l 628 968 m 957 974 l 957 904 l 14 904 l 14 974 l 957 974 m 957 908 l 957 713 l 943 714 l 943 724 q 896 855 943 807 q 764 904 849 903 l 764 908 l 957 908 m 957 999 l 957 958 l 788 974 q 852 978 818 974 q 915 988 886 982 q 957 999 944 993 m 347 101 l 347 0 l 236 0 l 236 14 q 245 14 236 14 q 254 14 254 14 q 316 40 290 14 q 343 101 342 65 l 347 101 m 624 101 l 628 101 q 655 40 629 65 q 717 14 681 14 q 726 14 717 14 q 735 14 735 14 l 735 0 l 624 0 l 624 101 m 207 908 l 207 904 q 75 855 122 903 q 28 724 28 807 l 28 714 l 14 713 l 14 908 l 207 908 m 14 999 q 56 988 28 993 q 119 978 85 982 q 183 974 154 974 l 14 958 l 14 999 z "},"Ŧ":{"ha":969,"x_min":14,"x_max":957,"o":"m 628 968 l 628 0 l 343 0 l 343 968 l 628 968 m 957 974 l 957 904 l 14 904 l 14 974 l 957 974 m 957 908 l 957 713 l 943 714 l 943 724 q 896 855 943 807 q 764 904 849 903 l 764 908 l 957 908 m 957 999 l 957 958 l 788 974 q 852 978 818 974 q 915 988 886 982 q 957 999 944 993 m 347 101 l 347 0 l 236 0 l 236 14 q 245 14 236 14 q 254 14 254 14 q 316 40 290 14 q 343 101 342 65 l 347 101 m 624 101 l 628 101 q 655 40 629 65 q 717 14 681 14 q 726 14 717 14 q 735 14 735 14 l 735 0 l 624 0 l 624 101 m 207 908 l 207 904 q 75 855 122 903 q 28 724 28 807 l 28 714 l 14 713 l 14 908 l 207 908 m 14 999 q 56 988 28 993 q 119 978 85 982 q 183 974 154 974 l 14 958 l 14 999 m 836 560 l 836 490 l 133 490 l 133 560 l 836 560 z "},"Ť":{"ha":969,"x_min":14,"x_max":957,"o":"m 628 968 l 628 0 l 343 0 l 343 968 l 628 968 m 957 974 l 957 904 l 14 904 l 14 974 l 957 974 m 957 908 l 957 713 l 943 714 l 943 724 q 896 855 943 807 q 764 904 849 903 l 764 908 l 957 908 m 957 999 l 957 958 l 788 974 q 852 978 818 974 q 915 988 886 982 q 957 999 944 993 m 347 101 l 347 0 l 236 0 l 236 14 q 245 14 236 14 q 254 14 254 14 q 316 40 290 14 q 343 101 342 65 l 347 101 m 624 101 l 628 101 q 655 40 629 65 q 717 14 681 14 q 726 14 717 14 q 735 14 735 14 l 735 0 l 624 0 l 624 101 m 207 908 l 207 904 q 75 855 122 903 q 28 724 28 807 l 28 714 l 14 713 l 14 908 l 207 908 m 14 999 q 56 988 28 993 q 119 978 85 982 q 183 974 154 974 l 14 958 l 14 999 z "},"Ţ":{"ha":969,"x_min":14,"x_max":957,"o":"m 628 968 l 628 0 l 343 0 l 343 968 l 628 968 m 957 974 l 957 904 l 14 904 l 14 974 l 957 974 m 957 908 l 957 713 l 943 714 l 943 724 q 896 855 943 807 q 764 904 849 903 l 764 908 l 957 908 m 957 999 l 957 958 l 788 974 q 852 978 818 974 q 915 988 886 982 q 957 999 944 993 m 347 101 l 347 0 l 236 0 l 236 14 q 245 14 236 14 q 254 14 254 14 q 316 40 290 14 q 343 101 342 65 l 347 101 m 624 101 l 628 101 q 655 40 629 65 q 717 14 681 14 q 726 14 717 14 q 735 14 735 14 l 735 0 l 624 0 l 624 101 m 207 908 l 207 904 q 75 855 122 903 q 28 724 28 807 l 28 714 l 14 713 l 14 908 l 207 908 m 14 999 q 56 988 28 993 q 119 978 85 982 q 183 974 154 974 l 14 958 l 14 999 z "},"Ț":{"ha":969,"x_min":14,"x_max":957,"o":"m 628 968 l 628 0 l 343 0 l 343 968 l 628 968 m 957 974 l 957 904 l 14 904 l 14 974 l 957 974 m 957 908 l 957 713 l 943 714 l 943 724 q 896 855 943 807 q 764 904 849 903 l 764 908 l 957 908 m 957 999 l 957 958 l 788 974 q 852 978 818 974 q 915 988 886 982 q 957 999 944 993 m 347 101 l 347 0 l 236 0 l 236 14 q 245 14 236 14 q 254 14 254 14 q 316 40 290 14 q 343 101 342 65 l 347 101 m 624 101 l 628 101 q 655 40 629 65 q 717 14 681 14 q 726 14 717 14 q 735 14 735 14 l 735 0 l 624 0 l 624 101 m 207 908 l 207 904 q 75 855 122 903 q 28 724 28 807 l 28 714 l 14 713 l 14 908 l 207 908 m 14 999 q 56 988 28 993 q 119 978 85 982 q 183 974 154 974 l 14 958 l 14 999 m 394 -176 q 419 -112 394 -136 q 478 -89 443 -89 q 555 -126 528 -89 q 582 -215 582 -162 q 533 -336 582 -290 q 404 -382 485 -382 l 400 -367 q 431 -342 417 -360 q 444 -301 444 -325 q 439 -272 444 -287 q 418 -242 433 -257 q 400 -211 406 -228 q 394 -176 394 -194 z "},"U":{"ha":1174,"x_min":42,"x_max":1146,"o":"m 422 972 l 422 361 q 453 194 422 264 q 540 88 483 125 q 675 51 596 51 q 812 86 756 51 q 899 186 868 121 q 929 343 929 251 l 929 972 l 1050 972 l 1050 357 q 1001 156 1050 240 q 860 26 953 71 q 633 -19 767 -19 q 353 26 464 -19 q 190 155 243 71 q 138 356 138 239 l 138 972 l 422 972 m 142 972 l 142 889 l 138 889 q 116 939 138 919 q 64 958 94 958 q 53 958 64 958 q 42 958 42 958 l 42 972 l 142 972 m 518 972 l 518 958 q 507 958 518 958 q 496 958 496 958 q 444 939 465 958 q 422 889 422 919 l 419 889 l 419 972 l 518 972 m 933 972 l 933 889 l 929 889 q 908 939 929 919 q 856 958 886 958 q 844 958 856 958 q 833 958 833 958 l 833 972 l 933 972 m 1146 972 l 1146 958 q 1135 958 1146 958 q 1124 958 1124 958 q 1072 939 1093 958 q 1050 889 1050 919 l 1047 889 l 1047 972 l 1146 972 z "},"Ú":{"ha":1174,"x_min":42,"x_max":1146,"o":"m 422 972 l 422 361 q 453 194 422 264 q 540 88 483 125 q 675 51 596 51 q 812 86 756 51 q 899 186 868 121 q 929 343 929 251 l 929 972 l 1050 972 l 1050 357 q 1001 156 1050 240 q 860 26 953 71 q 633 -19 767 -19 q 353 26 464 -19 q 190 155 243 71 q 138 356 138 239 l 138 972 l 422 972 m 142 972 l 142 889 l 138 889 q 116 939 138 919 q 64 958 94 958 q 53 958 64 958 q 42 958 42 958 l 42 972 l 142 972 m 518 972 l 518 958 q 507 958 518 958 q 496 958 496 958 q 444 939 465 958 q 422 889 422 919 l 419 889 l 419 972 l 518 972 m 933 972 l 933 889 l 929 889 q 908 939 929 919 q 856 958 886 958 q 844 958 856 958 q 833 958 833 958 l 833 972 l 933 972 m 1146 972 l 1146 958 q 1135 958 1146 958 q 1124 958 1124 958 q 1072 939 1093 958 q 1050 889 1050 919 l 1047 889 l 1047 972 l 1146 972 z "},"Û":{"ha":1174,"x_min":42,"x_max":1146,"o":"m 422 972 l 422 361 q 453 194 422 264 q 540 88 483 125 q 675 51 596 51 q 812 86 756 51 q 899 186 868 121 q 929 343 929 251 l 929 972 l 1050 972 l 1050 357 q 1001 156 1050 240 q 860 26 953 71 q 633 -19 767 -19 q 353 26 464 -19 q 190 155 243 71 q 138 356 138 239 l 138 972 l 422 972 m 142 972 l 142 889 l 138 889 q 116 939 138 919 q 64 958 94 958 q 53 958 64 958 q 42 958 42 958 l 42 972 l 142 972 m 518 972 l 518 958 q 507 958 518 958 q 496 958 496 958 q 444 939 465 958 q 422 889 422 919 l 419 889 l 419 972 l 518 972 m 933 972 l 933 889 l 929 889 q 908 939 929 919 q 856 958 886 958 q 844 958 856 958 q 833 958 833 958 l 833 972 l 933 972 m 1146 972 l 1146 958 q 1135 958 1146 958 q 1124 958 1124 958 q 1072 939 1093 958 q 1050 889 1050 919 l 1047 889 l 1047 972 l 1146 972 z "},"Ü":{"ha":1174,"x_min":42,"x_max":1146,"o":"m 422 972 l 422 361 q 453 194 422 264 q 540 88 483 125 q 675 51 596 51 q 812 86 756 51 q 899 186 868 121 q 929 343 929 251 l 929 972 l 1050 972 l 1050 357 q 1001 156 1050 240 q 860 26 953 71 q 633 -19 767 -19 q 353 26 464 -19 q 190 155 243 71 q 138 356 138 239 l 138 972 l 422 972 m 142 972 l 142 889 l 138 889 q 116 939 138 919 q 64 958 94 958 q 53 958 64 958 q 42 958 42 958 l 42 972 l 142 972 m 518 972 l 518 958 q 507 958 518 958 q 496 958 496 958 q 444 939 465 958 q 422 889 422 919 l 419 889 l 419 972 l 518 972 m 933 972 l 933 889 l 929 889 q 908 939 929 919 q 856 958 886 958 q 844 958 856 958 q 833 958 833 958 l 833 972 l 933 972 m 1146 972 l 1146 958 q 1135 958 1146 958 q 1124 958 1124 958 q 1072 939 1093 958 q 1050 889 1050 919 l 1047 889 l 1047 972 l 1146 972 z "},"Ù":{"ha":1174,"x_min":42,"x_max":1146,"o":"m 422 972 l 422 361 q 453 194 422 264 q 540 88 483 125 q 675 51 596 51 q 812 86 756 51 q 899 186 868 121 q 929 343 929 251 l 929 972 l 1050 972 l 1050 357 q 1001 156 1050 240 q 860 26 953 71 q 633 -19 767 -19 q 353 26 464 -19 q 190 155 243 71 q 138 356 138 239 l 138 972 l 422 972 m 142 972 l 142 889 l 138 889 q 116 939 138 919 q 64 958 94 958 q 53 958 64 958 q 42 958 42 958 l 42 972 l 142 972 m 518 972 l 518 958 q 507 958 518 958 q 496 958 496 958 q 444 939 465 958 q 422 889 422 919 l 419 889 l 419 972 l 518 972 m 933 972 l 933 889 l 929 889 q 908 939 929 919 q 856 958 886 958 q 844 958 856 958 q 833 958 833 958 l 833 972 l 933 972 m 1146 972 l 1146 958 q 1135 958 1146 958 q 1124 958 1124 958 q 1072 939 1093 958 q 1050 889 1050 919 l 1047 889 l 1047 972 l 1146 972 z "},"Ű":{"ha":1174,"x_min":42,"x_max":1146,"o":"m 422 972 l 422 361 q 453 194 422 264 q 540 88 483 125 q 675 51 596 51 q 812 86 756 51 q 899 186 868 121 q 929 343 929 251 l 929 972 l 1050 972 l 1050 357 q 1001 156 1050 240 q 860 26 953 71 q 633 -19 767 -19 q 353 26 464 -19 q 190 155 243 71 q 138 356 138 239 l 138 972 l 422 972 m 142 972 l 142 889 l 138 889 q 116 939 138 919 q 64 958 94 958 q 53 958 64 958 q 42 958 42 958 l 42 972 l 142 972 m 518 972 l 518 958 q 507 958 518 958 q 496 958 496 958 q 444 939 465 958 q 422 889 422 919 l 419 889 l 419 972 l 518 972 m 933 972 l 933 889 l 929 889 q 908 939 929 919 q 856 958 886 958 q 844 958 856 958 q 833 958 833 958 l 833 972 l 933 972 m 1146 972 l 1146 958 q 1135 958 1146 958 q 1124 958 1124 958 q 1072 939 1093 958 q 1050 889 1050 919 l 1047 889 l 1047 972 l 1146 972 z "},"Ū":{"ha":1174,"x_min":42,"x_max":1146,"o":"m 422 972 l 422 361 q 453 194 422 264 q 540 88 483 125 q 675 51 596 51 q 812 86 756 51 q 899 186 868 121 q 929 343 929 251 l 929 972 l 1050 972 l 1050 357 q 1001 156 1050 240 q 860 26 953 71 q 633 -19 767 -19 q 353 26 464 -19 q 190 155 243 71 q 138 356 138 239 l 138 972 l 422 972 m 142 972 l 142 889 l 138 889 q 116 939 138 919 q 64 958 94 958 q 53 958 64 958 q 42 958 42 958 l 42 972 l 142 972 m 518 972 l 518 958 q 507 958 518 958 q 496 958 496 958 q 444 939 465 958 q 422 889 422 919 l 419 889 l 419 972 l 518 972 m 933 972 l 933 889 l 929 889 q 908 939 929 919 q 856 958 886 958 q 844 958 856 958 q 833 958 833 958 l 833 972 l 933 972 m 1146 972 l 1146 958 q 1135 958 1146 958 q 1124 958 1124 958 q 1072 939 1093 958 q 1050 889 1050 919 l 1047 889 l 1047 972 l 1146 972 z "},"Ų":{"ha":1174,"x_min":42,"x_max":1146,"o":"m 422 972 l 422 361 q 453 194 422 264 q 540 88 483 125 q 675 51 596 51 q 812 86 756 51 q 899 186 868 121 q 929 343 929 251 l 929 972 l 1050 972 l 1050 357 q 1001 156 1050 240 q 860 26 953 71 q 633 -19 767 -19 q 353 26 464 -19 q 190 155 243 71 q 138 356 138 239 l 138 972 l 422 972 m 142 972 l 142 889 l 138 889 q 116 939 138 919 q 64 958 94 958 q 53 958 64 958 q 42 958 42 958 l 42 972 l 142 972 m 518 972 l 518 958 q 507 958 518 958 q 496 958 496 958 q 444 939 465 958 q 422 889 422 919 l 419 889 l 419 972 l 518 972 m 933 972 l 933 889 l 929 889 q 908 939 929 919 q 856 958 886 958 q 844 958 856 958 q 833 958 833 958 l 833 972 l 933 972 m 1146 972 l 1146 958 q 1135 958 1146 958 q 1124 958 1124 958 q 1072 939 1093 958 q 1050 889 1050 919 l 1047 889 l 1047 972 l 1146 972 z "},"Ů":{"ha":1174,"x_min":42,"x_max":1146,"o":"m 422 972 l 422 361 q 453 194 422 264 q 540 88 483 125 q 675 51 596 51 q 812 86 756 51 q 899 186 868 121 q 929 343 929 251 l 929 972 l 1050 972 l 1050 357 q 1001 156 1050 240 q 860 26 953 71 q 633 -19 767 -19 q 353 26 464 -19 q 190 155 243 71 q 138 356 138 239 l 138 972 l 422 972 m 142 972 l 142 889 l 138 889 q 116 939 138 919 q 64 958 94 958 q 53 958 64 958 q 42 958 42 958 l 42 972 l 142 972 m 518 972 l 518 958 q 507 958 518 958 q 496 958 496 958 q 444 939 465 958 q 422 889 422 919 l 419 889 l 419 972 l 518 972 m 933 972 l 933 889 l 929 889 q 908 939 929 919 q 856 958 886 958 q 844 958 856 958 q 833 958 833 958 l 833 972 l 933 972 m 1146 972 l 1146 958 q 1135 958 1146 958 q 1124 958 1124 958 q 1072 939 1093 958 q 1050 889 1050 919 l 1047 889 l 1047 972 l 1146 972 z "},"V":{"ha":1000,"x_min":-56,"x_max":1056,"o":"m 513 -33 l 33 964 l 367 964 l 635 322 l 513 -33 m 513 -33 l 513 183 l 854 968 l 967 968 l 604 174 q 586 134 599 161 q 560 75 574 107 q 538 14 547 43 q 525 -33 528 -15 l 513 -33 m 811 871 q 808 935 831 913 q 758 958 786 958 l 746 958 l 746 972 l 1056 972 l 1056 958 q 1049 958 1056 958 q 1043 958 1043 958 q 978 938 1013 958 q 922 871 944 918 l 811 871 m 406 871 l 78 871 q 22 938 56 918 q -44 958 -12 958 q -50 958 -44 958 q -56 958 -56 958 l -56 972 l 471 972 l 471 958 l 458 958 q 412 935 432 958 q 406 871 392 913 z "},"W":{"ha":1339,"x_min":-69,"x_max":1394,"o":"m 29 964 l 328 964 l 528 467 l 404 -31 l 29 964 m 769 994 l 804 840 l 454 124 q 445 101 454 124 q 427 43 436 78 q 417 -31 418 8 l 404 -31 l 357 161 l 757 994 l 769 994 m 769 993 l 1085 411 l 994 -31 l 642 633 l 769 993 m 1290 964 l 1028 124 q 1021 99 1028 124 q 1009 40 1014 75 q 1008 -31 1004 4 l 994 -31 l 940 107 l 1183 964 l 1290 964 m 1157 872 q 1150 936 1168 914 q 1104 958 1132 958 l 1092 958 l 1092 972 l 1394 972 l 1394 958 q 1389 958 1394 958 q 1383 958 1383 958 q 1314 938 1351 958 q 1261 872 1276 918 l 1157 872 m 365 872 l 64 872 q 10 938 46 918 q -58 958 -26 958 q -64 958 -58 958 q -69 958 -69 958 l -69 972 l 429 972 l 429 958 l 417 958 q 370 936 390 958 q 365 872 350 914 z "},"Ẃ":{"ha":1339,"x_min":-69,"x_max":1394,"o":"m 29 964 l 328 964 l 528 467 l 404 -31 l 29 964 m 769 994 l 804 840 l 454 124 q 445 101 454 124 q 427 43 436 78 q 417 -31 418 8 l 404 -31 l 357 161 l 757 994 l 769 994 m 769 993 l 1085 411 l 994 -31 l 642 633 l 769 993 m 1290 964 l 1028 124 q 1021 99 1028 124 q 1009 40 1014 75 q 1008 -31 1004 4 l 994 -31 l 940 107 l 1183 964 l 1290 964 m 1157 872 q 1150 936 1168 914 q 1104 958 1132 958 l 1092 958 l 1092 972 l 1394 972 l 1394 958 q 1389 958 1394 958 q 1383 958 1383 958 q 1314 938 1351 958 q 1261 872 1276 918 l 1157 872 m 365 872 l 64 872 q 10 938 46 918 q -58 958 -26 958 q -64 958 -58 958 q -69 958 -69 958 l -69 972 l 429 972 l 429 958 l 417 958 q 370 936 390 958 q 365 872 350 914 z "},"Ŵ":{"ha":1339,"x_min":-69,"x_max":1394,"o":"m 29 964 l 328 964 l 528 467 l 404 -31 l 29 964 m 769 994 l 804 840 l 454 124 q 445 101 454 124 q 427 43 436 78 q 417 -31 418 8 l 404 -31 l 357 161 l 757 994 l 769 994 m 769 993 l 1085 411 l 994 -31 l 642 633 l 769 993 m 1290 964 l 1028 124 q 1021 99 1028 124 q 1009 40 1014 75 q 1008 -31 1004 4 l 994 -31 l 940 107 l 1183 964 l 1290 964 m 1157 872 q 1150 936 1168 914 q 1104 958 1132 958 l 1092 958 l 1092 972 l 1394 972 l 1394 958 q 1389 958 1394 958 q 1383 958 1383 958 q 1314 938 1351 958 q 1261 872 1276 918 l 1157 872 m 365 872 l 64 872 q 10 938 46 918 q -58 958 -26 958 q -64 958 -58 958 q -69 958 -69 958 l -69 972 l 429 972 l 429 958 l 417 958 q 370 936 390 958 q 365 872 350 914 z "},"Ẅ":{"ha":1339,"x_min":-69,"x_max":1394,"o":"m 29 964 l 328 964 l 528 467 l 404 -31 l 29 964 m 769 994 l 804 840 l 454 124 q 445 101 454 124 q 427 43 436 78 q 417 -31 418 8 l 404 -31 l 357 161 l 757 994 l 769 994 m 769 993 l 1085 411 l 994 -31 l 642 633 l 769 993 m 1290 964 l 1028 124 q 1021 99 1028 124 q 1009 40 1014 75 q 1008 -31 1004 4 l 994 -31 l 940 107 l 1183 964 l 1290 964 m 1157 872 q 1150 936 1168 914 q 1104 958 1132 958 l 1092 958 l 1092 972 l 1394 972 l 1394 958 q 1389 958 1394 958 q 1383 958 1383 958 q 1314 938 1351 958 q 1261 872 1276 918 l 1157 872 m 365 872 l 64 872 q 10 938 46 918 q -58 958 -26 958 q -64 958 -58 958 q -69 958 -69 958 l -69 972 l 429 972 l 429 958 l 417 958 q 370 936 390 958 q 365 872 350 914 z "},"Ẁ":{"ha":1339,"x_min":-69,"x_max":1394,"o":"m 29 964 l 328 964 l 528 467 l 404 -31 l 29 964 m 769 994 l 804 840 l 454 124 q 445 101 454 124 q 427 43 436 78 q 417 -31 418 8 l 404 -31 l 357 161 l 757 994 l 769 994 m 769 993 l 1085 411 l 994 -31 l 642 633 l 769 993 m 1290 964 l 1028 124 q 1021 99 1028 124 q 1009 40 1014 75 q 1008 -31 1004 4 l 994 -31 l 940 107 l 1183 964 l 1290 964 m 1157 872 q 1150 936 1168 914 q 1104 958 1132 958 l 1092 958 l 1092 972 l 1394 972 l 1394 958 q 1389 958 1394 958 q 1383 958 1383 958 q 1314 938 1351 958 q 1261 872 1276 918 l 1157 872 m 365 872 l 64 872 q 10 938 46 918 q -58 958 -26 958 q -64 958 -58 958 q -69 958 -69 958 l -69 972 l 429 972 l 429 958 l 417 958 q 370 936 390 958 q 365 872 350 914 z "},"X":{"ha":1074,"x_min":-46,"x_max":1125,"o":"m 390 972 l 1026 1 l 693 1 l 60 972 l 390 972 m 249 100 q 241 60 236 81 q 263 27 246 40 q 297 14 279 14 q 306 14 297 14 q 315 14 315 14 l 315 0 l -46 0 l -46 14 l -26 14 q 53 39 18 14 q 113 96 88 64 l 249 100 m 404 493 l 494 446 l 178 0 l 43 0 l 404 493 m 629 100 l 965 94 q 1024 38 986 63 q 1106 14 1063 14 l 1125 14 l 1125 0 l 564 0 l 564 14 q 573 14 564 14 q 582 14 582 14 q 628 42 610 14 q 629 100 647 69 m 521 972 l 521 958 q 513 958 521 958 q 504 958 504 958 q 469 945 485 958 q 449 912 454 932 q 457 872 444 892 l 122 876 q 63 933 100 908 q -18 958 26 958 l -37 958 l -37 972 l 521 972 m 974 972 l 632 463 l 569 551 l 839 972 l 974 972 m 1068 972 l 1068 958 l 1049 958 q 969 933 1006 958 q 910 876 933 908 l 775 872 q 782 912 788 892 q 761 945 776 932 q 726 958 746 958 q 718 958 726 958 q 710 958 710 958 l 708 972 l 1068 972 z "},"Y":{"ha":1013,"x_min":-62,"x_max":1076,"o":"m 353 971 l 644 447 l 360 447 l 39 971 l 353 971 m 644 447 l 644 0 l 360 0 l 360 447 l 644 447 m 853 971 l 976 971 l 626 421 l 543 433 l 853 971 m 796 872 q 801 912 807 892 q 781 945 796 932 q 747 958 767 958 q 739 958 747 958 q 731 958 731 958 l 731 972 l 1076 972 l 1076 958 l 1057 958 q 976 933 1014 958 q 917 876 938 908 l 796 872 m 408 872 l 96 876 q 39 933 76 908 q -43 958 1 958 l -62 958 l -62 972 l 474 972 l 474 958 q 465 958 474 958 q 457 958 457 958 q 410 930 426 958 q 408 872 393 901 m 364 101 l 364 0 l 253 0 l 253 14 q 261 14 253 14 q 271 14 269 14 q 333 40 307 14 q 360 101 358 65 l 364 101 m 640 101 l 644 101 q 671 40 644 65 q 733 14 697 14 q 742 14 733 14 q 750 14 750 14 l 750 0 l 640 0 l 640 101 z "},"Ý":{"ha":1013,"x_min":-62,"x_max":1076,"o":"m 353 971 l 644 447 l 360 447 l 39 971 l 353 971 m 644 447 l 644 0 l 360 0 l 360 447 l 644 447 m 853 971 l 976 971 l 626 421 l 543 433 l 853 971 m 796 872 q 801 912 807 892 q 781 945 796 932 q 747 958 767 958 q 739 958 747 958 q 731 958 731 958 l 731 972 l 1076 972 l 1076 958 l 1057 958 q 976 933 1014 958 q 917 876 938 908 l 796 872 m 408 872 l 96 876 q 39 933 76 908 q -43 958 1 958 l -62 958 l -62 972 l 474 972 l 474 958 q 465 958 474 958 q 457 958 457 958 q 410 930 426 958 q 408 872 393 901 m 364 101 l 364 0 l 253 0 l 253 14 q 261 14 253 14 q 271 14 269 14 q 333 40 307 14 q 360 101 358 65 l 364 101 m 640 101 l 644 101 q 671 40 644 65 q 733 14 697 14 q 742 14 733 14 q 750 14 750 14 l 750 0 l 640 0 l 640 101 z "},"Ŷ":{"ha":1013,"x_min":-62,"x_max":1076,"o":"m 353 971 l 644 447 l 360 447 l 39 971 l 353 971 m 644 447 l 644 0 l 360 0 l 360 447 l 644 447 m 853 971 l 976 971 l 626 421 l 543 433 l 853 971 m 796 872 q 801 912 807 892 q 781 945 796 932 q 747 958 767 958 q 739 958 747 958 q 731 958 731 958 l 731 972 l 1076 972 l 1076 958 l 1057 958 q 976 933 1014 958 q 917 876 938 908 l 796 872 m 408 872 l 96 876 q 39 933 76 908 q -43 958 1 958 l -62 958 l -62 972 l 474 972 l 474 958 q 465 958 474 958 q 457 958 457 958 q 410 930 426 958 q 408 872 393 901 m 364 101 l 364 0 l 253 0 l 253 14 q 261 14 253 14 q 271 14 269 14 q 333 40 307 14 q 360 101 358 65 l 364 101 m 640 101 l 644 101 q 671 40 644 65 q 733 14 697 14 q 742 14 733 14 q 750 14 750 14 l 750 0 l 640 0 l 640 101 z "},"Ÿ":{"ha":1013,"x_min":-62,"x_max":1076,"o":"m 353 971 l 644 447 l 360 447 l 39 971 l 353 971 m 644 447 l 644 0 l 360 0 l 360 447 l 644 447 m 853 971 l 976 971 l 626 421 l 543 433 l 853 971 m 796 872 q 801 912 807 892 q 781 945 796 932 q 747 958 767 958 q 739 958 747 958 q 731 958 731 958 l 731 972 l 1076 972 l 1076 958 l 1057 958 q 976 933 1014 958 q 917 876 938 908 l 796 872 m 408 872 l 96 876 q 39 933 76 908 q -43 958 1 958 l -62 958 l -62 972 l 474 972 l 474 958 q 465 958 474 958 q 457 958 457 958 q 410 930 426 958 q 408 872 393 901 m 364 101 l 364 0 l 253 0 l 253 14 q 261 14 253 14 q 271 14 269 14 q 333 40 307 14 q 360 101 358 65 l 364 101 m 640 101 l 644 101 q 671 40 644 65 q 733 14 697 14 q 742 14 733 14 q 750 14 750 14 l 750 0 l 640 0 l 640 101 z "},"Ỳ":{"ha":1013,"x_min":-62,"x_max":1076,"o":"m 353 971 l 644 447 l 360 447 l 39 971 l 353 971 m 644 447 l 644 0 l 360 0 l 360 447 l 644 447 m 853 971 l 976 971 l 626 421 l 543 433 l 853 971 m 796 872 q 801 912 807 892 q 781 945 796 932 q 747 958 767 958 q 739 958 747 958 q 731 958 731 958 l 731 972 l 1076 972 l 1076 958 l 1057 958 q 976 933 1014 958 q 917 876 938 908 l 796 872 m 408 872 l 96 876 q 39 933 76 908 q -43 958 1 958 l -62 958 l -62 972 l 474 972 l 474 958 q 465 958 474 958 q 457 958 457 958 q 410 930 426 958 q 408 872 393 901 m 364 101 l 364 0 l 253 0 l 253 14 q 261 14 253 14 q 271 14 269 14 q 333 40 307 14 q 360 101 358 65 l 364 101 m 640 101 l 644 101 q 671 40 644 65 q 733 14 697 14 q 742 14 733 14 q 750 14 750 14 l 750 0 l 640 0 l 640 101 z "},"Z":{"ha":928,"x_min":49,"x_max":894,"o":"m 863 992 q 863 985 863 992 q 863 979 863 979 l 361 0 l 49 0 l 49 13 l 510 904 l 68 904 l 68 974 l 715 974 q 774 976 743 974 q 830 983 806 979 q 863 992 854 988 m 831 69 l 822 0 l 151 0 l 151 69 l 831 69 m 894 322 l 842 0 l 542 0 l 565 51 l 592 69 q 770 136 692 69 q 881 322 849 203 l 894 322 m 261 904 q 129 855 176 903 q 82 724 82 807 l 82 713 l 68 713 l 68 908 l 261 908 l 261 904 m 68 999 q 110 988 82 993 q 174 978 139 982 q 238 974 208 974 l 68 958 l 68 999 z "},"Ź":{"ha":928,"x_min":49,"x_max":894,"o":"m 863 992 q 863 985 863 992 q 863 979 863 979 l 361 0 l 49 0 l 49 13 l 510 904 l 68 904 l 68 974 l 715 974 q 774 976 743 974 q 830 983 806 979 q 863 992 854 988 m 831 69 l 822 0 l 151 0 l 151 69 l 831 69 m 894 322 l 842 0 l 542 0 l 565 51 l 592 69 q 770 136 692 69 q 881 322 849 203 l 894 322 m 261 904 q 129 855 176 903 q 82 724 82 807 l 82 713 l 68 713 l 68 908 l 261 908 l 261 904 m 68 999 q 110 988 82 993 q 174 978 139 982 q 238 974 208 974 l 68 958 l 68 999 z "},"Ž":{"ha":928,"x_min":49,"x_max":894,"o":"m 863 992 q 863 985 863 992 q 863 979 863 979 l 361 0 l 49 0 l 49 13 l 510 904 l 68 904 l 68 974 l 715 974 q 774 976 743 974 q 830 983 806 979 q 863 992 854 988 m 831 69 l 822 0 l 151 0 l 151 69 l 831 69 m 894 322 l 842 0 l 542 0 l 565 51 l 592 69 q 770 136 692 69 q 881 322 849 203 l 894 322 m 261 904 q 129 855 176 903 q 82 724 82 807 l 82 713 l 68 713 l 68 908 l 261 908 l 261 904 m 68 999 q 110 988 82 993 q 174 978 139 982 q 238 974 208 974 l 68 958 l 68 999 z "},"Ż":{"ha":928,"x_min":49,"x_max":894,"o":"m 863 992 q 863 985 863 992 q 863 979 863 979 l 361 0 l 49 0 l 49 13 l 510 904 l 68 904 l 68 974 l 715 974 q 774 976 743 974 q 830 983 806 979 q 863 992 854 988 m 831 69 l 822 0 l 151 0 l 151 69 l 831 69 m 894 322 l 842 0 l 542 0 l 565 51 l 592 69 q 770 136 692 69 q 881 322 849 203 l 894 322 m 261 904 q 129 855 176 903 q 82 724 82 807 l 82 713 l 68 713 l 68 908 l 261 908 l 261 904 m 68 999 q 110 988 82 993 q 174 978 139 982 q 238 974 208 974 l 68 958 l 68 999 z "},"a":{"ha":878,"x_min":-58,"x_max":939,"o":"m 428 883 l 858 7 l 543 7 l 308 543 l 428 883 m 171 85 q 175 32 156 50 q 218 14 194 14 l 228 14 l 228 0 l -58 0 l -58 14 q -53 14 -58 14 q -47 14 -47 14 q 11 30 -19 14 q 60 85 42 46 l 171 85 m 428 883 l 426 671 l 135 4 l 22 4 l 344 699 q 361 737 350 713 q 384 790 372 761 q 406 843 396 818 q 417 883 415 868 l 428 883 m 521 239 l 521 176 l 175 176 l 175 239 l 521 239 m 508 85 l 819 85 q 869 30 839 46 q 928 14 900 14 q 933 14 928 14 q 939 14 939 14 l 939 0 l 450 0 l 450 14 l 461 14 q 504 32 485 14 q 508 85 524 50 z "},"á":{"ha":878,"x_min":-58,"x_max":939,"o":"m 428 883 l 858 7 l 543 7 l 308 543 l 428 883 m 171 85 q 175 32 156 50 q 218 14 194 14 l 228 14 l 228 0 l -58 0 l -58 14 q -53 14 -58 14 q -47 14 -47 14 q 11 30 -19 14 q 60 85 42 46 l 171 85 m 428 883 l 426 671 l 135 4 l 22 4 l 344 699 q 361 737 350 713 q 384 790 372 761 q 406 843 396 818 q 417 883 415 868 l 428 883 m 521 239 l 521 176 l 175 176 l 175 239 l 521 239 m 508 85 l 819 85 q 869 30 839 46 q 928 14 900 14 q 933 14 928 14 q 939 14 939 14 l 939 0 l 450 0 l 450 14 l 461 14 q 504 32 485 14 q 508 85 524 50 z "},"ă":{"ha":878,"x_min":-58,"x_max":939,"o":"m 428 883 l 858 7 l 543 7 l 308 543 l 428 883 m 171 85 q 175 32 156 50 q 218 14 194 14 l 228 14 l 228 0 l -58 0 l -58 14 q -53 14 -58 14 q -47 14 -47 14 q 11 30 -19 14 q 60 85 42 46 l 171 85 m 428 883 l 426 671 l 135 4 l 22 4 l 344 699 q 361 737 350 713 q 384 790 372 761 q 406 843 396 818 q 417 883 415 868 l 428 883 m 521 239 l 521 176 l 175 176 l 175 239 l 521 239 m 508 85 l 819 85 q 869 30 839 46 q 928 14 900 14 q 933 14 928 14 q 939 14 939 14 l 939 0 l 450 0 l 450 14 l 461 14 q 504 32 485 14 q 508 85 524 50 z "},"â":{"ha":878,"x_min":-58,"x_max":939,"o":"m 428 883 l 858 7 l 543 7 l 308 543 l 428 883 m 171 85 q 175 32 156 50 q 218 14 194 14 l 228 14 l 228 0 l -58 0 l -58 14 q -53 14 -58 14 q -47 14 -47 14 q 11 30 -19 14 q 60 85 42 46 l 171 85 m 428 883 l 426 671 l 135 4 l 22 4 l 344 699 q 361 737 350 713 q 384 790 372 761 q 406 843 396 818 q 417 883 415 868 l 428 883 m 521 239 l 521 176 l 175 176 l 175 239 l 521 239 m 508 85 l 819 85 q 869 30 839 46 q 928 14 900 14 q 933 14 928 14 q 939 14 939 14 l 939 0 l 450 0 l 450 14 l 461 14 q 504 32 485 14 q 508 85 524 50 z "},"ä":{"ha":878,"x_min":-58,"x_max":939,"o":"m 428 883 l 858 7 l 543 7 l 308 543 l 428 883 m 171 85 q 175 32 156 50 q 218 14 194 14 l 228 14 l 228 0 l -58 0 l -58 14 q -53 14 -58 14 q -47 14 -47 14 q 11 30 -19 14 q 60 85 42 46 l 171 85 m 428 883 l 426 671 l 135 4 l 22 4 l 344 699 q 361 737 350 713 q 384 790 372 761 q 406 843 396 818 q 417 883 415 868 l 428 883 m 521 239 l 521 176 l 175 176 l 175 239 l 521 239 m 508 85 l 819 85 q 869 30 839 46 q 928 14 900 14 q 933 14 928 14 q 939 14 939 14 l 939 0 l 450 0 l 450 14 l 461 14 q 504 32 485 14 q 508 85 524 50 z "},"à":{"ha":878,"x_min":-58,"x_max":939,"o":"m 428 883 l 858 7 l 543 7 l 308 543 l 428 883 m 171 85 q 175 32 156 50 q 218 14 194 14 l 228 14 l 228 0 l -58 0 l -58 14 q -53 14 -58 14 q -47 14 -47 14 q 11 30 -19 14 q 60 85 42 46 l 171 85 m 428 883 l 426 671 l 135 4 l 22 4 l 344 699 q 361 737 350 713 q 384 790 372 761 q 406 843 396 818 q 417 883 415 868 l 428 883 m 521 239 l 521 176 l 175 176 l 175 239 l 521 239 m 508 85 l 819 85 q 869 30 839 46 q 928 14 900 14 q 933 14 928 14 q 939 14 939 14 l 939 0 l 450 0 l 450 14 l 461 14 q 504 32 485 14 q 508 85 524 50 z "},"ā":{"ha":878,"x_min":-58,"x_max":939,"o":"m 428 883 l 858 7 l 543 7 l 308 543 l 428 883 m 171 85 q 175 32 156 50 q 218 14 194 14 l 228 14 l 228 0 l -58 0 l -58 14 q -53 14 -58 14 q -47 14 -47 14 q 11 30 -19 14 q 60 85 42 46 l 171 85 m 428 883 l 426 671 l 135 4 l 22 4 l 344 699 q 361 737 350 713 q 384 790 372 761 q 406 843 396 818 q 417 883 415 868 l 428 883 m 521 239 l 521 176 l 175 176 l 175 239 l 521 239 m 508 85 l 819 85 q 869 30 839 46 q 928 14 900 14 q 933 14 928 14 q 939 14 939 14 l 939 0 l 450 0 l 450 14 l 461 14 q 504 32 485 14 q 508 85 524 50 z "},"ą":{"ha":856,"x_min":-58,"x_max":917,"o":"m 157 86 q 160 33 140 51 q 204 14 181 14 l 214 14 l 214 0 l -58 0 l -58 14 q -53 14 -58 14 q -47 14 -47 14 q 10 31 -19 14 q 60 86 40 47 l 157 86 m 419 868 l 419 674 l 121 4 l 21 4 l 339 688 q 355 724 344 700 q 377 775 365 747 q 398 828 389 803 q 408 868 407 853 l 419 868 m 419 868 l 842 7 l 542 7 l 310 547 l 419 868 m 515 246 l 515 185 l 174 185 l 174 246 l 515 246 m 607 -10 q 533 -51 551 -22 q 518 -111 515 -79 q 547 -176 522 -153 q 606 -198 571 -199 q 674 -169 640 -197 l 682 -178 q 647 -263 679 -235 q 569 -296 614 -292 q 481 -281 524 -300 q 414 -222 439 -261 q 399 -126 389 -183 q 434 -55 407 -78 q 496 -10 461 -32 q 520 28 518 6 q 506 92 522 50 l 804 82 q 848 35 821 51 q 896 15 875 19 q 917 10 917 10 l 917 -4 q 867 -1 903 -4 q 786 3 832 1 q 692 1 740 4 q 607 -10 644 -1 z "},"å":{"ha":878,"x_min":-58,"x_max":939,"o":"m 428 883 l 858 7 l 543 7 l 308 543 l 428 883 m 171 85 q 175 32 156 50 q 218 14 194 14 l 228 14 l 228 0 l -58 0 l -58 14 q -53 14 -58 14 q -47 14 -47 14 q 11 30 -19 14 q 60 85 42 46 l 171 85 m 428 883 l 426 671 l 135 4 l 22 4 l 344 699 q 361 737 350 713 q 384 790 372 761 q 406 843 396 818 q 417 883 415 868 l 428 883 m 521 239 l 521 176 l 175 176 l 175 239 l 521 239 m 508 85 l 819 85 q 869 30 839 46 q 928 14 900 14 q 933 14 928 14 q 939 14 939 14 l 939 0 l 450 0 l 450 14 l 461 14 q 504 32 485 14 q 508 85 524 50 z "},"ã":{"ha":878,"x_min":-58,"x_max":939,"o":"m 428 883 l 858 7 l 543 7 l 308 543 l 428 883 m 171 85 q 175 32 156 50 q 218 14 194 14 l 228 14 l 228 0 l -58 0 l -58 14 q -53 14 -58 14 q -47 14 -47 14 q 11 30 -19 14 q 60 85 42 46 l 171 85 m 428 883 l 426 671 l 135 4 l 22 4 l 344 699 q 361 737 350 713 q 384 790 372 761 q 406 843 396 818 q 417 883 415 868 l 428 883 m 521 239 l 521 176 l 175 176 l 175 239 l 521 239 m 508 85 l 819 85 q 869 30 839 46 q 928 14 900 14 q 933 14 928 14 q 939 14 939 14 l 939 0 l 450 0 l 450 14 l 461 14 q 504 32 485 14 q 508 85 524 50 z "},"æ":{"ha":1238,"x_min":-43,"x_max":1218,"o":"m 189 88 q 181 47 174 63 q 205 22 188 31 q 236 14 222 14 l 247 14 l 247 0 l -43 0 l -43 14 q -37 14 -43 14 q -32 14 -32 14 q 19 30 -6 14 q 72 88 43 46 l 189 88 m 822 832 l 822 0 l 556 0 l 556 778 l 822 832 m 558 69 l 558 0 l 485 0 l 485 14 q 492 14 486 14 q 497 14 497 14 q 538 30 521 14 q 556 69 556 46 l 558 69 m 1144 64 l 1144 0 l 818 0 l 818 64 l 1144 64 m 1079 439 l 1079 376 l 350 376 l 356 439 l 1079 439 m 1144 832 l 1144 768 l 667 768 l 582 715 l 136 4 l 14 4 l 540 760 q 547 802 557 785 q 514 819 538 819 l 508 819 l 508 832 l 1144 832 m 1218 290 l 1174 0 l 906 0 l 950 64 q 1108 123 1038 64 q 1206 290 1178 182 l 1218 290 m 1079 379 l 1079 232 l 1068 232 l 1068 236 q 1029 336 1068 297 q 929 376 990 375 l 929 379 l 1079 379 m 1079 582 l 1079 436 l 929 436 l 929 439 q 1029 479 990 440 q 1068 578 1068 518 l 1068 582 l 1079 582 m 1144 772 l 1144 593 l 1132 594 l 1132 601 q 1088 724 1132 679 q 967 769 1044 768 l 967 772 l 1144 772 m 1144 854 l 1144 819 l 999 832 q 1082 840 1038 832 q 1144 854 1126 847 z "},"b":{"ha":869,"x_min":32,"x_max":849,"o":"m 193 833 l 464 833 q 589 824 529 833 q 694 792 649 815 q 767 729 740 769 q 793 626 793 689 q 771 529 793 568 q 714 472 749 490 q 640 454 679 454 q 743 427 696 453 q 819 355 790 401 q 849 240 849 308 q 821 131 849 176 q 743 57 793 86 q 624 14 693 28 q 474 0 556 0 l 376 0 q 376 16 376 0 q 376 48 376 32 q 376 64 376 64 l 379 64 q 459 82 422 64 q 519 143 496 100 q 542 260 542 186 q 536 332 542 299 q 517 390 531 365 q 482 427 504 414 q 425 440 460 440 l 425 451 q 470 463 453 451 q 497 494 488 474 q 510 542 507 514 q 514 604 514 571 q 477 736 514 701 q 390 771 440 771 l 204 771 q 201 788 204 772 q 196 818 199 803 q 193 833 193 833 m 386 833 l 386 0 l 118 0 l 118 833 l 386 833 m 122 86 l 122 0 l 32 0 l 32 14 q 40 14 35 14 q 47 14 46 14 q 99 35 78 14 q 118 86 119 56 l 122 86 m 122 747 l 118 747 q 99 799 119 779 q 47 819 78 819 q 40 819 46 819 q 32 819 35 819 l 32 833 l 122 833 l 122 747 z "},"c":{"ha":928,"x_min":32,"x_max":888,"o":"m 851 347 l 888 125 q 826 56 867 88 q 722 3 786 24 q 561 -17 657 -17 q 278 35 397 -15 q 96 181 160 85 q 32 418 32 278 q 94 651 32 554 q 276 799 157 747 q 561 850 394 850 q 739 835 661 850 q 864 800 817 819 l 846 564 l 836 564 q 735 740 799 692 q 585 788 671 788 q 431 741 490 788 q 343 612 371 694 q 315 422 315 529 q 344 226 315 310 q 427 97 372 143 q 561 46 482 50 q 709 74 657 46 q 790 169 761 103 q 842 347 818 235 l 851 347 z "},"ć":{"ha":928,"x_min":32,"x_max":888,"o":"m 851 347 l 888 125 q 826 56 867 88 q 722 3 786 24 q 561 -17 657 -17 q 278 35 397 -15 q 96 181 160 85 q 32 418 32 278 q 94 651 32 554 q 276 799 157 747 q 561 850 394 850 q 739 835 661 850 q 864 800 817 819 l 846 564 l 836 564 q 735 740 799 692 q 585 788 671 788 q 431 741 490 788 q 343 612 371 694 q 315 422 315 529 q 344 226 315 310 q 427 97 372 143 q 561 46 482 50 q 709 74 657 46 q 790 169 761 103 q 842 347 818 235 l 851 347 z "},"č":{"ha":928,"x_min":32,"x_max":888,"o":"m 851 347 l 888 125 q 826 56 867 88 q 722 3 786 24 q 561 -17 657 -17 q 278 35 397 -15 q 96 181 160 85 q 32 418 32 278 q 94 651 32 554 q 276 799 157 747 q 561 850 394 850 q 739 835 661 850 q 864 800 817 819 l 846 564 l 836 564 q 735 740 799 692 q 585 788 671 788 q 431 741 490 788 q 343 612 371 694 q 315 422 315 529 q 344 226 315 310 q 427 97 372 143 q 561 46 482 50 q 709 74 657 46 q 790 169 761 103 q 842 347 818 235 l 851 347 z "},"ç":{"ha":928,"x_min":32,"x_max":888,"o":"m 851 347 l 888 125 q 826 56 867 88 q 722 3 786 24 q 561 -17 657 -17 q 278 35 397 -15 q 96 181 160 85 q 32 418 32 278 q 94 651 32 554 q 276 799 157 747 q 561 850 394 850 q 739 835 661 850 q 864 800 817 819 l 846 564 l 836 564 q 735 740 799 692 q 585 788 671 788 q 431 741 490 788 q 343 612 371 694 q 315 422 315 529 q 344 226 315 310 q 427 97 372 143 q 561 46 482 50 q 709 74 657 46 q 790 169 761 103 q 842 347 818 235 l 851 347 z "},"ċ":{"ha":928,"x_min":32,"x_max":888,"o":"m 851 347 l 888 125 q 826 56 867 88 q 722 3 786 24 q 561 -17 657 -17 q 278 35 397 -15 q 96 181 160 85 q 32 418 32 278 q 94 651 32 554 q 276 799 157 747 q 561 850 394 850 q 739 835 661 850 q 864 800 817 819 l 846 564 l 836 564 q 735 740 799 692 q 585 788 671 788 q 431 741 490 788 q 343 612 371 694 q 315 422 315 529 q 344 226 315 310 q 427 97 372 143 q 561 46 482 50 q 709 74 657 46 q 790 169 761 103 q 842 347 818 235 l 851 347 z "},"d":{"ha":1029,"x_min":25,"x_max":996,"o":"m 499 833 q 767 784 656 833 q 937 642 878 735 q 996 417 996 549 q 937 192 996 285 q 767 49 878 99 q 499 0 656 0 l 182 0 l 179 64 q 355 64 292 64 q 444 64 418 64 q 471 64 471 64 q 647 157 582 64 q 711 417 711 250 q 647 677 711 583 q 471 771 583 771 q 444 771 471 771 q 350 771 417 771 q 167 771 283 771 l 167 833 l 499 833 m 393 833 l 393 0 l 121 0 l 121 833 l 393 833 m 125 89 l 125 0 l 26 0 l 26 14 q 34 14 26 14 q 43 14 42 14 q 98 36 75 14 q 121 89 121 58 l 125 89 m 124 747 l 121 747 q 97 799 119 779 q 42 819 74 819 q 34 819 42 819 q 25 819 26 819 l 25 833 l 124 833 l 124 747 z "},"ð":{"ha":1029,"x_min":25,"x_max":996,"o":"m 499 833 q 767 784 656 833 q 937 642 878 735 q 996 417 996 549 q 937 192 996 285 q 767 49 878 99 q 499 0 656 0 l 182 0 l 179 64 q 355 64 292 64 q 444 64 418 64 q 471 64 471 64 q 647 157 582 64 q 711 417 711 250 q 647 677 711 583 q 471 771 583 771 q 444 771 471 771 q 350 771 417 771 q 167 771 283 771 l 167 833 l 499 833 m 393 833 l 393 0 l 121 0 l 121 833 l 393 833 m 125 86 l 125 0 l 26 0 l 26 14 q 34 14 26 14 q 43 14 42 14 q 98 35 75 14 q 121 86 121 56 l 125 86 m 124 747 l 121 747 q 97 799 121 779 q 42 819 74 819 q 34 819 42 819 q 25 819 26 819 l 25 833 l 124 833 l 124 747 m 28 449 l 539 449 l 539 386 l 28 386 l 28 449 z "},"ď":{"ha":1029,"x_min":25,"x_max":996,"o":"m 499 833 q 767 784 656 833 q 937 642 878 735 q 996 417 996 549 q 937 192 996 285 q 767 49 878 99 q 499 0 656 0 l 182 0 l 179 64 q 355 64 292 64 q 444 64 418 64 q 471 64 471 64 q 647 157 582 64 q 711 417 711 250 q 647 677 711 583 q 471 771 583 771 q 444 771 471 771 q 350 771 417 771 q 167 771 283 771 l 167 833 l 499 833 m 393 833 l 393 0 l 121 0 l 121 833 l 393 833 m 125 89 l 125 0 l 26 0 l 26 14 q 34 14 26 14 q 43 14 42 14 q 98 36 75 14 q 121 89 121 58 l 125 89 m 124 747 l 121 747 q 97 799 119 779 q 42 819 74 819 q 34 819 42 819 q 25 819 26 819 l 25 833 l 124 833 l 124 747 z "},"đ":{"ha":1029,"x_min":25,"x_max":996,"o":"m 499 833 q 767 784 656 833 q 937 642 878 735 q 996 417 996 549 q 937 192 996 285 q 767 49 878 99 q 499 0 656 0 l 182 0 l 179 64 q 355 64 292 64 q 444 64 418 64 q 471 64 471 64 q 647 157 582 64 q 711 417 711 250 q 647 677 711 583 q 471 771 583 771 q 444 771 471 771 q 350 771 417 771 q 167 771 283 771 l 167 833 l 499 833 m 393 833 l 393 0 l 121 0 l 121 833 l 393 833 m 125 89 l 125 0 l 26 0 l 26 14 q 34 14 26 14 q 43 14 42 14 q 98 36 75 14 q 121 89 121 58 l 125 89 m 124 747 l 121 747 q 97 799 119 779 q 42 819 74 819 q 34 819 42 819 q 25 819 26 819 l 25 833 l 124 833 l 124 747 z "},"e":{"ha":799,"x_min":29,"x_max":779,"o":"m 389 833 l 389 0 l 117 0 l 117 833 l 389 833 m 682 64 l 738 0 l 386 0 l 386 64 l 682 64 m 647 443 l 647 378 l 386 378 l 386 443 l 647 443 m 708 833 l 708 769 l 386 769 l 386 833 l 708 833 m 779 292 l 740 0 l 482 0 l 522 64 q 626 91 576 64 q 713 169 675 118 q 767 292 750 219 l 779 292 m 647 381 l 647 231 l 633 231 l 633 236 q 595 337 633 297 q 496 378 557 376 l 496 381 l 647 381 m 647 589 l 647 440 l 496 440 l 496 443 q 595 485 557 444 q 633 586 633 525 l 633 589 l 647 589 m 708 772 l 708 592 l 694 592 l 694 599 q 653 724 694 679 q 532 769 611 768 l 532 772 l 708 772 m 708 854 l 708 821 l 571 833 q 651 841 608 833 q 708 854 693 849 m 121 86 l 119 0 l 29 0 l 29 14 q 36 14 29 14 q 44 14 43 14 q 95 35 74 14 q 117 86 117 56 l 121 86 m 121 746 l 117 746 q 95 799 117 778 q 44 819 74 819 q 36 819 43 819 q 29 819 29 819 l 29 833 l 119 833 l 121 746 z "},"é":{"ha":799,"x_min":29,"x_max":779,"o":"m 389 833 l 389 0 l 117 0 l 117 833 l 389 833 m 682 64 l 738 0 l 386 0 l 386 64 l 682 64 m 647 443 l 647 378 l 386 378 l 386 443 l 647 443 m 708 833 l 708 769 l 386 769 l 386 833 l 708 833 m 779 292 l 740 0 l 482 0 l 522 64 q 626 91 576 64 q 713 169 675 118 q 767 292 750 219 l 779 292 m 647 381 l 647 231 l 633 231 l 633 236 q 595 337 633 297 q 496 378 557 376 l 496 381 l 647 381 m 647 589 l 647 440 l 496 440 l 496 443 q 595 485 557 444 q 633 586 633 525 l 633 589 l 647 589 m 708 772 l 708 592 l 694 592 l 694 599 q 653 724 694 679 q 532 769 611 768 l 532 772 l 708 772 m 708 854 l 708 821 l 571 833 q 651 841 608 833 q 708 854 693 849 m 121 86 l 119 0 l 29 0 l 29 14 q 36 14 29 14 q 44 14 43 14 q 95 35 74 14 q 117 86 117 56 l 121 86 m 121 746 l 117 746 q 95 799 117 778 q 44 819 74 819 q 36 819 43 819 q 29 819 29 819 l 29 833 l 119 833 l 121 746 z "},"ě":{"ha":799,"x_min":29,"x_max":779,"o":"m 389 833 l 389 0 l 117 0 l 117 833 l 389 833 m 682 64 l 738 0 l 386 0 l 386 64 l 682 64 m 647 443 l 647 378 l 386 378 l 386 443 l 647 443 m 708 833 l 708 769 l 386 769 l 386 833 l 708 833 m 779 292 l 740 0 l 482 0 l 522 64 q 626 91 576 64 q 713 169 675 118 q 767 292 750 219 l 779 292 m 647 381 l 647 231 l 633 231 l 633 236 q 595 337 633 297 q 496 378 557 376 l 496 381 l 647 381 m 647 589 l 647 440 l 496 440 l 496 443 q 595 485 557 444 q 633 586 633 525 l 633 589 l 647 589 m 708 772 l 708 592 l 694 592 l 694 599 q 653 724 694 679 q 532 769 611 768 l 532 772 l 708 772 m 708 854 l 708 821 l 571 833 q 651 841 608 833 q 708 854 693 849 m 121 86 l 119 0 l 29 0 l 29 14 q 36 14 29 14 q 44 14 43 14 q 95 35 74 14 q 117 86 117 56 l 121 86 m 121 746 l 117 746 q 95 799 117 778 q 44 819 74 819 q 36 819 43 819 q 29 819 29 819 l 29 833 l 119 833 l 121 746 z "},"ê":{"ha":799,"x_min":29,"x_max":779,"o":"m 389 833 l 389 0 l 117 0 l 117 833 l 389 833 m 682 64 l 738 0 l 386 0 l 386 64 l 682 64 m 647 443 l 647 378 l 386 378 l 386 443 l 647 443 m 708 833 l 708 769 l 386 769 l 386 833 l 708 833 m 779 292 l 740 0 l 482 0 l 522 64 q 626 91 576 64 q 713 169 675 118 q 767 292 750 219 l 779 292 m 647 381 l 647 231 l 633 231 l 633 236 q 595 337 633 297 q 496 378 557 376 l 496 381 l 647 381 m 647 589 l 647 440 l 496 440 l 496 443 q 595 485 557 444 q 633 586 633 525 l 633 589 l 647 589 m 708 772 l 708 592 l 694 592 l 694 599 q 653 724 694 679 q 532 769 611 768 l 532 772 l 708 772 m 708 854 l 708 821 l 571 833 q 651 841 608 833 q 708 854 693 849 m 121 86 l 119 0 l 29 0 l 29 14 q 36 14 29 14 q 44 14 43 14 q 95 35 74 14 q 117 86 117 56 l 121 86 m 121 746 l 117 746 q 95 799 117 778 q 44 819 74 819 q 36 819 43 819 q 29 819 29 819 l 29 833 l 119 833 l 121 746 z "},"ë":{"ha":799,"x_min":29,"x_max":779,"o":"m 389 833 l 389 0 l 117 0 l 117 833 l 389 833 m 682 64 l 738 0 l 386 0 l 386 64 l 682 64 m 647 443 l 647 378 l 386 378 l 386 443 l 647 443 m 708 833 l 708 769 l 386 769 l 386 833 l 708 833 m 779 292 l 740 0 l 482 0 l 522 64 q 626 91 576 64 q 713 169 675 118 q 767 292 750 219 l 779 292 m 647 381 l 647 231 l 633 231 l 633 236 q 595 337 633 297 q 496 378 557 376 l 496 381 l 647 381 m 647 589 l 647 440 l 496 440 l 496 443 q 595 485 557 444 q 633 586 633 525 l 633 589 l 647 589 m 708 772 l 708 592 l 694 592 l 694 599 q 653 724 694 679 q 532 769 611 768 l 532 772 l 708 772 m 708 854 l 708 821 l 571 833 q 651 841 608 833 q 708 854 693 849 m 121 86 l 119 0 l 29 0 l 29 14 q 36 14 29 14 q 44 14 43 14 q 95 35 74 14 q 117 86 117 56 l 121 86 m 121 746 l 117 746 q 95 799 117 778 q 44 819 74 819 q 36 819 43 819 q 29 819 29 819 l 29 833 l 119 833 l 121 746 z "},"ė":{"ha":799,"x_min":29,"x_max":779,"o":"m 389 833 l 389 0 l 117 0 l 117 833 l 389 833 m 682 64 l 738 0 l 386 0 l 386 64 l 682 64 m 647 443 l 647 378 l 386 378 l 386 443 l 647 443 m 708 833 l 708 769 l 386 769 l 386 833 l 708 833 m 779 292 l 740 0 l 482 0 l 522 64 q 626 91 576 64 q 713 169 675 118 q 767 292 750 219 l 779 292 m 647 381 l 647 231 l 633 231 l 633 236 q 595 337 633 297 q 496 378 557 376 l 496 381 l 647 381 m 647 589 l 647 440 l 496 440 l 496 443 q 595 485 557 444 q 633 586 633 525 l 633 589 l 647 589 m 708 772 l 708 592 l 694 592 l 694 599 q 653 724 694 679 q 532 769 611 768 l 532 772 l 708 772 m 708 854 l 708 821 l 571 833 q 651 841 608 833 q 708 854 693 849 m 121 86 l 119 0 l 29 0 l 29 14 q 36 14 29 14 q 44 14 43 14 q 95 35 74 14 q 117 86 117 56 l 121 86 m 121 746 l 117 746 q 95 799 117 778 q 44 819 74 819 q 36 819 43 819 q 29 819 29 819 l 29 833 l 119 833 l 121 746 z "},"è":{"ha":799,"x_min":29,"x_max":779,"o":"m 389 833 l 389 0 l 117 0 l 117 833 l 389 833 m 682 64 l 738 0 l 386 0 l 386 64 l 682 64 m 647 443 l 647 378 l 386 378 l 386 443 l 647 443 m 708 833 l 708 769 l 386 769 l 386 833 l 708 833 m 779 292 l 740 0 l 482 0 l 522 64 q 626 91 576 64 q 713 169 675 118 q 767 292 750 219 l 779 292 m 647 381 l 647 231 l 633 231 l 633 236 q 595 337 633 297 q 496 378 557 376 l 496 381 l 647 381 m 647 589 l 647 440 l 496 440 l 496 443 q 595 485 557 444 q 633 586 633 525 l 633 589 l 647 589 m 708 772 l 708 592 l 694 592 l 694 599 q 653 724 694 679 q 532 769 611 768 l 532 772 l 708 772 m 708 854 l 708 821 l 571 833 q 651 841 608 833 q 708 854 693 849 m 121 86 l 119 0 l 29 0 l 29 14 q 36 14 29 14 q 44 14 43 14 q 95 35 74 14 q 117 86 117 56 l 121 86 m 121 746 l 117 746 q 95 799 117 778 q 44 819 74 819 q 36 819 43 819 q 29 819 29 819 l 29 833 l 119 833 l 121 746 z "},"ē":{"ha":799,"x_min":29,"x_max":779,"o":"m 389 833 l 389 0 l 117 0 l 117 833 l 389 833 m 682 64 l 738 0 l 386 0 l 386 64 l 682 64 m 647 443 l 647 378 l 386 378 l 386 443 l 647 443 m 708 833 l 708 769 l 386 769 l 386 833 l 708 833 m 779 292 l 740 0 l 482 0 l 522 64 q 626 91 576 64 q 713 169 675 118 q 767 292 750 219 l 779 292 m 647 381 l 647 231 l 633 231 l 633 236 q 595 337 633 297 q 496 378 557 376 l 496 381 l 647 381 m 647 589 l 647 440 l 496 440 l 496 443 q 595 485 557 444 q 633 586 633 525 l 633 589 l 647 589 m 708 772 l 708 592 l 694 592 l 694 599 q 653 724 694 679 q 532 769 611 768 l 532 772 l 708 772 m 708 854 l 708 821 l 571 833 q 651 841 608 833 q 708 854 693 849 m 121 86 l 119 0 l 29 0 l 29 14 q 36 14 29 14 q 44 14 43 14 q 95 35 74 14 q 117 86 117 56 l 121 86 m 121 746 l 117 746 q 95 799 117 778 q 44 819 74 819 q 36 819 43 819 q 29 819 29 819 l 29 833 l 119 833 l 121 746 z "},"ę":{"ha":799,"x_min":29,"x_max":814,"o":"m 389 833 l 389 0 l 117 0 l 117 833 l 389 833 m 682 64 l 738 0 l 386 0 l 386 64 l 682 64 m 647 443 l 647 378 l 386 378 l 386 443 l 647 443 m 708 833 l 708 769 l 386 769 l 386 833 l 708 833 m 779 292 l 740 0 l 482 0 l 522 64 q 626 91 576 64 q 713 169 675 118 q 767 292 750 219 l 779 292 m 647 381 l 647 231 l 633 231 l 633 236 q 595 337 633 297 q 496 378 557 376 l 496 381 l 647 381 m 647 589 l 647 440 l 496 440 l 496 443 q 595 485 557 444 q 633 586 633 525 l 633 589 l 647 589 m 708 772 l 708 592 l 694 592 l 694 599 q 653 724 694 679 q 532 769 611 768 l 532 772 l 708 772 m 708 854 l 708 821 l 571 833 q 651 841 608 833 q 708 854 693 849 m 121 86 l 119 0 l 29 0 l 29 14 q 36 14 29 14 q 44 14 43 14 q 95 35 74 14 q 117 86 117 56 l 121 86 m 121 746 l 117 746 q 95 799 117 778 q 44 819 74 819 q 36 819 43 819 q 29 819 29 819 l 29 833 l 119 833 l 121 746 z "},"f":{"ha":753,"x_min":29,"x_max":708,"o":"m 389 833 l 389 0 l 117 0 l 117 833 l 389 833 m 647 443 l 647 378 l 386 378 l 386 443 l 647 443 m 708 833 l 708 769 l 386 769 l 386 833 l 708 833 m 647 381 l 647 231 l 633 231 l 633 236 q 595 337 633 297 q 494 378 557 376 l 494 381 l 647 381 m 647 589 l 647 440 l 494 440 l 494 443 q 595 485 557 444 q 633 586 633 525 l 633 589 l 647 589 m 708 774 l 708 589 l 694 589 l 694 597 q 652 723 694 678 q 529 769 610 768 l 529 774 l 708 774 m 708 854 l 708 821 l 571 833 q 624 837 596 833 q 675 845 651 840 q 708 854 699 850 m 121 86 l 119 0 l 29 0 l 29 14 q 36 14 29 14 q 44 14 43 14 q 95 35 74 14 q 117 86 117 56 l 121 86 m 121 746 l 117 746 q 95 799 117 778 q 44 819 74 819 q 36 819 43 819 q 29 819 29 819 l 29 833 l 119 833 l 121 746 m 386 86 l 389 86 q 411 35 390 56 q 463 14 432 14 q 469 14 463 14 q 478 14 476 14 l 476 0 l 388 0 l 386 86 z "},"g":{"ha":1004,"x_min":33,"x_max":999,"o":"m 507 850 q 641 843 571 850 q 771 825 711 836 q 864 800 831 814 l 844 564 l 835 564 q 767 705 810 657 q 674 770 724 753 q 578 788 625 788 q 428 743 486 788 q 344 613 371 699 q 317 406 317 528 q 338 214 317 294 q 406 90 360 133 q 524 46 451 46 q 590 61 558 46 q 640 106 622 76 q 651 178 658 135 l 653 333 q 638 375 653 361 q 594 389 622 389 l 575 389 l 575 400 l 999 400 l 999 389 l 982 389 q 924 333 921 389 l 922 136 q 831 65 896 100 q 679 6 767 29 q 493 -17 592 -17 q 251 35 354 -17 q 90 185 147 88 q 33 419 33 282 q 90 651 33 554 q 251 799 146 747 q 507 850 357 850 z "},"ğ":{"ha":1004,"x_min":33,"x_max":999,"o":"m 507 850 q 641 843 571 850 q 771 825 711 836 q 864 800 831 814 l 844 564 l 835 564 q 767 705 810 657 q 674 770 724 753 q 578 788 625 788 q 428 743 486 788 q 344 613 371 699 q 317 406 317 528 q 338 214 317 294 q 406 90 360 133 q 524 46 451 46 q 590 61 558 46 q 640 106 622 76 q 651 178 658 135 l 653 333 q 638 375 653 361 q 594 389 622 389 l 575 389 l 575 400 l 999 400 l 999 389 l 982 389 q 924 333 921 389 l 922 136 q 831 65 896 100 q 679 6 767 29 q 493 -17 592 -17 q 251 35 354 -17 q 90 185 147 88 q 33 419 33 282 q 90 651 33 554 q 251 799 146 747 q 507 850 357 850 z "},"ģ":{"ha":1004,"x_min":33,"x_max":999,"o":"m 457 -106 q 507 -89 479 -89 q 560 -103 535 -89 q 597 -146 585 -118 q 611 -234 617 -189 q 580 -315 606 -279 q 516 -369 554 -351 q 433 -379 478 -387 l 429 -367 q 461 -340 447 -358 q 474 -297 475 -322 q 447 -242 474 -271 q 424 -169 421 -211 q 457 -106 428 -126 m 507 850 q 641 843 571 850 q 771 825 711 836 q 864 800 831 814 l 844 564 l 835 564 q 767 705 810 657 q 674 770 724 753 q 578 788 625 788 q 428 743 486 788 q 344 613 371 699 q 317 406 317 528 q 338 214 317 294 q 406 90 360 133 q 524 46 451 46 q 590 61 558 46 q 640 106 622 76 q 651 178 658 135 l 653 333 q 638 375 653 361 q 594 389 622 389 l 575 389 l 575 400 l 999 400 l 999 389 l 982 389 q 924 333 921 389 l 922 136 q 831 65 896 100 q 679 6 767 29 q 493 -17 592 -17 q 251 35 354 -17 q 90 185 147 88 q 33 419 33 282 q 90 651 33 554 q 251 799 146 747 q 507 850 357 850 z "},"ġ":{"ha":1004,"x_min":33,"x_max":999,"o":"m 507 850 q 641 843 571 850 q 771 825 711 836 q 864 800 831 814 l 844 564 l 835 564 q 767 705 810 657 q 674 770 724 753 q 578 788 625 788 q 428 743 486 788 q 344 613 371 699 q 317 406 317 528 q 338 214 317 294 q 406 90 360 133 q 524 46 451 46 q 590 61 558 46 q 640 106 622 76 q 651 178 658 135 l 653 333 q 638 375 653 361 q 594 389 622 389 l 575 389 l 575 400 l 999 400 l 999 389 l 982 389 q 924 333 921 389 l 922 136 q 831 65 896 100 q 679 6 767 29 q 493 -17 592 -17 q 251 35 354 -17 q 90 185 147 88 q 33 419 33 282 q 90 651 33 554 q 251 799 146 747 q 507 850 357 850 z "},"h":{"ha":1047,"x_min":29,"x_max":1019,"o":"m 931 833 l 931 0 l 660 0 l 660 833 l 931 833 m 389 833 l 389 0 l 117 0 l 117 833 l 389 833 m 669 450 l 669 386 l 378 386 l 378 450 l 669 450 m 121 86 l 121 0 l 29 0 l 29 14 q 36 14 29 14 q 44 14 43 14 q 95 35 74 14 q 117 86 117 56 l 121 86 m 386 86 l 389 86 q 411 35 390 56 q 463 14 432 14 q 469 14 463 14 q 476 14 476 14 l 476 0 l 386 0 l 386 86 m 386 747 l 386 833 l 476 833 l 476 819 q 469 819 476 819 q 463 819 463 819 q 411 799 432 819 q 389 747 390 779 l 386 747 m 121 747 l 117 747 q 95 799 117 779 q 44 819 74 819 q 36 819 43 819 q 29 819 29 819 l 29 833 l 121 833 l 121 747 m 663 86 l 663 0 l 572 0 l 572 14 q 579 14 572 14 q 586 14 586 14 q 638 35 617 14 q 660 86 658 56 l 663 86 m 926 86 l 931 86 q 951 35 931 56 q 1003 14 972 14 q 1010 14 1003 14 q 1018 14 1018 14 l 1018 0 l 926 0 l 926 86 m 928 747 l 928 833 l 1019 833 l 1019 819 q 1012 819 1019 819 q 1004 819 1004 819 q 953 799 974 819 q 932 747 932 779 l 928 747 m 663 747 l 660 747 q 638 799 658 779 q 586 819 617 819 q 579 819 586 819 q 572 819 572 819 l 572 833 l 663 833 l 663 747 z "},"ħ":{"ha":1047,"x_min":29,"x_max":1019,"o":"m 1014 642 l 1014 579 l 35 579 l 35 642 l 1014 642 m 931 833 l 931 0 l 660 0 l 660 833 l 931 833 m 389 833 l 389 0 l 117 0 l 117 833 l 389 833 m 669 450 l 669 386 l 378 386 l 378 450 l 669 450 m 121 86 l 121 0 l 29 0 l 29 14 q 36 14 29 14 q 44 14 43 14 q 95 35 74 14 q 117 86 117 56 l 121 86 m 386 86 l 389 86 q 411 35 390 56 q 463 14 432 14 q 469 14 463 14 q 476 14 476 14 l 476 0 l 386 0 l 386 86 m 386 747 l 386 833 l 476 833 l 476 819 q 469 819 476 819 q 463 819 463 819 q 411 799 432 819 q 389 747 390 779 l 386 747 m 121 747 l 117 747 q 95 799 117 779 q 44 819 74 819 q 36 819 43 819 q 29 819 29 819 l 29 833 l 121 833 l 121 747 m 663 86 l 663 0 l 572 0 l 572 14 q 579 14 572 14 q 586 14 586 14 q 638 35 617 14 q 660 86 658 56 l 663 86 m 926 86 l 931 86 q 951 35 931 56 q 1003 14 972 14 q 1010 14 1003 14 q 1018 14 1018 14 l 1018 0 l 926 0 l 926 86 m 928 747 l 928 833 l 1019 833 l 1019 819 q 1012 819 1019 819 q 1004 819 1004 819 q 953 799 974 819 q 932 747 932 779 l 928 747 m 663 747 l 660 747 q 638 799 658 779 q 586 819 617 819 q 579 819 586 819 q 572 819 572 819 l 572 833 l 663 833 l 663 747 z "},"i":{"ha":504,"x_min":29,"x_max":475,"o":"m 388 833 l 388 0 l 115 0 l 115 833 l 388 833 m 119 86 l 119 0 l 29 0 l 29 14 q 36 14 29 14 q 44 14 43 14 q 94 35 72 14 q 115 86 115 56 l 119 86 m 385 86 l 388 86 q 410 35 389 56 q 460 14 431 14 q 467 14 460 14 q 475 14 474 14 l 475 0 l 385 0 l 385 86 m 385 747 l 385 833 l 474 833 l 474 819 q 467 819 474 819 q 460 819 461 819 q 410 799 431 819 q 388 747 389 779 l 385 747 m 119 747 l 115 747 q 94 799 115 779 q 44 819 72 819 q 36 819 43 819 q 29 819 29 819 l 29 833 l 119 833 l 119 747 z "},"ı":{"ha":504,"x_min":29,"x_max":475,"o":"m 388 833 l 388 0 l 115 0 l 115 833 l 388 833 m 119 86 l 119 0 l 29 0 l 29 14 q 36 14 29 14 q 44 14 43 14 q 94 35 72 14 q 115 86 115 56 l 119 86 m 385 86 l 388 86 q 410 35 389 56 q 460 14 431 14 q 467 14 460 14 q 475 14 474 14 l 475 0 l 385 0 l 385 86 m 385 747 l 385 833 l 474 833 l 474 819 q 467 819 474 819 q 460 819 461 819 q 410 799 431 819 q 388 747 389 779 l 385 747 m 119 747 l 115 747 q 94 799 115 779 q 44 819 72 819 q 36 819 43 819 q 29 819 29 819 l 29 833 l 119 833 l 119 747 z "},"í":{"ha":503,"x_min":29,"x_max":549,"o":"m 388 833 l 388 0 l 115 0 l 115 833 l 388 833 m 119 86 l 119 0 l 29 0 l 29 14 q 36 14 29 14 q 44 14 43 14 q 94 35 72 14 q 115 86 115 56 l 119 86 m 385 86 l 388 86 q 410 35 389 56 q 460 14 431 14 q 467 14 460 14 q 475 14 474 14 l 475 0 l 385 0 l 385 86 m 385 747 l 385 833 l 474 833 l 474 819 q 467 819 474 819 q 460 819 461 819 q 410 799 431 819 q 388 747 389 779 l 385 747 m 119 747 l 115 747 q 94 799 115 779 q 44 819 72 819 q 36 819 43 819 q 29 819 29 819 l 29 833 l 119 833 l 119 747 z "},"î":{"ha":503,"x_min":4,"x_max":504,"o":"m 388 833 l 388 0 l 115 0 l 115 833 l 388 833 m 119 86 l 119 0 l 29 0 l 29 14 q 36 14 29 14 q 44 14 43 14 q 94 35 72 14 q 115 86 115 56 l 119 86 m 385 86 l 388 86 q 410 35 389 56 q 460 14 431 14 q 467 14 460 14 q 475 14 474 14 l 475 0 l 385 0 l 385 86 m 385 747 l 385 833 l 474 833 l 474 819 q 467 819 474 819 q 460 819 461 819 q 410 799 431 819 q 388 747 389 779 l 385 747 m 119 747 l 115 747 q 94 799 115 779 q 44 819 72 819 q 36 819 43 819 q 29 819 29 819 l 29 833 l 119 833 l 119 747 z "},"ï":{"ha":503,"x_min":-40,"x_max":528,"o":"m 388 833 l 388 0 l 115 0 l 115 833 l 388 833 m 119 86 l 119 0 l 29 0 l 29 14 q 36 14 29 14 q 44 14 43 14 q 94 35 72 14 q 115 86 115 56 l 119 86 m 385 86 l 388 86 q 410 35 389 56 q 460 14 431 14 q 467 14 460 14 q 475 14 474 14 l 475 0 l 385 0 l 385 86 m 385 747 l 385 833 l 474 833 l 474 819 q 467 819 474 819 q 460 819 461 819 q 410 799 431 819 q 388 747 389 779 l 385 747 m 119 747 l 115 747 q 94 799 115 779 q 44 819 72 819 q 36 819 43 819 q 29 819 29 819 l 29 833 l 119 833 l 119 747 z "},"ì":{"ha":504,"x_min":-47,"x_max":475,"o":"m 388 833 l 388 0 l 115 0 l 115 833 l 388 833 m 119 86 l 119 0 l 29 0 l 29 14 q 36 14 29 14 q 44 14 43 14 q 94 35 72 14 q 115 86 115 56 l 119 86 m 385 86 l 388 86 q 410 35 389 56 q 460 14 431 14 q 467 14 460 14 q 475 14 474 14 l 475 0 l 385 0 l 385 86 m 385 747 l 385 833 l 474 833 l 474 819 q 467 819 474 819 q 460 819 461 819 q 410 799 431 819 q 388 747 389 779 l 385 747 m 119 747 l 115 747 q 94 799 115 779 q 44 819 72 819 q 36 819 43 819 q 29 819 29 819 l 29 833 l 119 833 l 119 747 z "},"ĳ":{"ha":1006,"x_min":29,"x_max":978,"o":"m 388 833 l 388 0 l 115 0 l 115 833 l 388 833 m 119 86 l 119 0 l 29 0 l 29 14 q 36 14 29 14 q 44 14 43 14 q 94 35 72 14 q 115 86 115 56 l 119 86 m 385 86 l 388 86 q 410 35 389 56 q 460 14 431 14 q 467 14 460 14 q 475 14 474 14 l 475 0 l 385 0 l 385 86 m 385 747 l 385 833 l 474 833 l 474 819 q 467 819 474 819 q 460 819 461 819 q 410 799 431 819 q 388 747 389 779 l 385 747 m 119 747 l 115 747 q 94 799 115 779 q 44 819 72 819 q 36 819 43 819 q 29 819 29 819 l 29 833 l 119 833 l 119 747 m 888 833 l 888 71 q 853 -72 888 -10 q 762 -176 819 -135 q 633 -233 704 -217 q 486 -239 561 -249 l 486 -226 q 573 -149 546 -197 q 608 -42 600 -101 q 615 75 615 17 l 615 833 l 888 833 m 619 833 l 619 743 l 615 743 q 594 797 615 775 q 540 819 572 819 l 526 819 l 525 833 l 619 833 m 978 833 l 978 819 l 963 819 q 910 797 932 819 q 888 743 889 775 l 885 743 l 885 833 l 978 833 z "},"ī":{"ha":504,"x_min":29,"x_max":475,"o":"m 388 833 l 388 0 l 115 0 l 115 833 l 388 833 m 119 86 l 119 0 l 29 0 l 29 14 q 36 14 29 14 q 44 14 43 14 q 94 35 72 14 q 115 86 115 56 l 119 86 m 385 86 l 388 86 q 410 35 389 56 q 460 14 431 14 q 467 14 460 14 q 475 14 474 14 l 475 0 l 385 0 l 385 86 m 385 747 l 385 833 l 474 833 l 474 819 q 467 819 474 819 q 460 819 461 819 q 410 799 431 819 q 388 747 389 779 l 385 747 m 119 747 l 115 747 q 94 799 115 779 q 44 819 72 819 q 36 819 43 819 q 29 819 29 819 l 29 833 l 119 833 l 119 747 z "},"į":{"ha":504,"x_min":29,"x_max":475,"o":"m 388 833 l 388 0 l 115 0 l 115 833 l 388 833 m 119 86 l 119 0 l 29 0 l 29 13 q 36 12 29 13 q 44 11 43 11 q 94 33 72 11 q 115 86 115 56 l 119 86 m 385 86 l 388 86 q 410 33 389 56 q 460 11 431 11 q 467 12 460 11 q 475 13 474 13 l 475 0 l 385 0 l 385 86 m 385 747 l 385 833 l 475 833 l 474 822 q 467 822 474 822 q 460 822 460 822 q 410 801 431 822 q 388 747 389 779 l 385 747 m 119 747 l 115 747 q 94 801 115 779 q 44 822 72 822 q 36 822 43 822 q 29 822 29 822 l 29 833 l 119 833 l 119 747 m 324 4 l 338 0 q 263 -42 281 -12 q 247 -108 244 -72 q 276 -173 251 -150 q 335 -195 300 -196 q 404 -167 369 -194 l 413 -175 q 376 -261 408 -232 q 299 -294 343 -290 q 213 -280 254 -299 q 145 -222 171 -261 q 128 -124 119 -182 q 168 -42 136 -71 q 242 -2 200 -12 q 324 4 285 8 z "},"j":{"ha":501,"x_min":-18,"x_max":474,"o":"m 383 833 l 383 71 q 349 -72 383 -10 q 258 -176 315 -135 q 128 -233 200 -217 q -18 -239 57 -249 l -18 -226 q 69 -149 42 -197 q 103 -42 96 -101 q 111 75 111 17 l 111 833 l 383 833 m 115 833 l 115 743 l 111 743 q 90 797 111 775 q 36 819 68 819 l 22 819 l 21 833 l 115 833 m 474 833 l 474 819 l 458 819 q 406 797 428 819 q 383 743 385 775 l 381 743 l 381 833 l 474 833 z "},"k":{"ha":979,"x_min":31,"x_max":1025,"o":"m 621 563 l 899 108 q 959 37 928 61 q 1025 11 990 13 l 1025 0 l 882 0 q 833 1 869 0 q 747 12 796 1 q 647 49 697 22 q 561 125 597 75 q 536 164 550 140 q 507 215 522 188 q 478 270 492 243 q 452 321 464 297 q 433 358 440 344 q 426 374 426 372 l 621 563 m 865 825 l 517 388 l 426 374 l 744 825 l 865 825 m 949 835 l 949 822 l 943 822 q 872 806 904 822 q 817 764 839 790 l 703 767 q 709 805 718 788 q 676 822 700 822 l 665 822 l 665 835 l 943 835 l 949 835 m 392 835 l 392 0 l 119 0 l 119 835 l 392 835 m 122 86 l 122 0 l 32 0 l 32 14 q 38 14 32 14 q 46 14 43 14 q 97 35 76 14 q 119 86 118 56 l 122 86 m 388 86 l 392 86 q 413 35 392 56 q 465 14 435 14 q 474 14 468 14 q 479 14 479 14 l 479 0 l 388 0 l 388 86 m 388 747 l 388 835 l 479 835 l 479 821 q 473 821 478 821 q 465 821 468 821 q 413 800 435 821 q 392 747 392 779 l 388 747 m 122 747 l 119 747 q 97 800 118 779 q 46 821 76 821 q 39 821 44 821 q 31 821 33 821 l 31 835 l 122 835 l 122 747 z "},"ķ":{"ha":979,"x_min":31,"x_max":1025,"o":"m 621 563 l 899 108 q 959 37 928 61 q 1025 11 990 13 l 1025 0 l 882 0 q 833 1 869 0 q 747 12 796 1 q 647 49 697 22 q 561 125 597 75 q 536 164 550 140 q 507 215 522 188 q 478 270 492 243 q 452 321 464 297 q 433 358 440 344 q 426 374 426 372 l 621 563 m 865 825 l 517 388 l 426 374 l 744 825 l 865 825 m 949 835 l 949 822 l 943 822 q 872 806 904 822 q 817 764 839 790 l 703 767 q 709 805 718 788 q 676 822 700 822 l 665 822 l 665 835 l 943 835 l 949 835 m 392 835 l 392 0 l 119 0 l 119 835 l 392 835 m 122 86 l 122 0 l 32 0 l 32 14 q 38 14 32 14 q 46 14 43 14 q 97 35 76 14 q 119 86 118 56 l 122 86 m 388 86 l 392 86 q 413 35 392 56 q 465 14 435 14 q 474 14 468 14 q 479 14 479 14 l 479 0 l 388 0 l 388 86 m 388 747 l 388 835 l 479 835 l 479 821 q 473 821 478 821 q 465 821 468 821 q 413 800 435 821 q 392 747 392 779 l 388 747 m 122 747 l 119 747 q 97 800 118 779 q 46 821 76 821 q 39 821 44 821 q 31 821 33 821 l 31 835 l 122 835 l 122 747 m 444 -176 q 469 -112 444 -136 q 528 -89 493 -89 q 605 -126 578 -89 q 632 -215 632 -162 q 583 -336 632 -290 q 454 -382 535 -382 l 450 -367 q 481 -342 467 -360 q 494 -301 494 -325 q 489 -272 494 -287 q 468 -242 483 -257 q 450 -211 456 -228 q 444 -176 444 -194 z "},"l":{"ha":774,"x_min":29,"x_max":781,"o":"m 389 833 l 389 0 l 117 0 l 117 833 l 389 833 m 681 64 l 738 0 l 386 0 l 386 64 l 681 64 m 781 292 l 740 0 l 482 0 l 522 64 q 626 91 576 64 q 713 169 675 118 q 767 292 750 219 l 781 292 m 121 86 l 119 0 l 29 0 l 29 14 q 36 14 29 14 q 44 14 43 14 q 95 35 74 14 q 117 86 117 56 l 121 86 m 386 747 l 386 833 l 478 833 l 478 819 q 469 819 476 819 q 463 819 463 819 q 411 799 432 819 q 389 747 390 779 l 386 747 m 121 747 l 117 747 q 95 799 117 779 q 44 819 74 819 q 36 819 43 819 q 29 819 29 819 l 29 833 l 121 833 l 121 747 z "},"ĺ":{"ha":774,"x_min":29,"x_max":781,"o":"m 389 833 l 389 0 l 117 0 l 117 833 l 389 833 m 681 64 l 738 0 l 386 0 l 386 64 l 681 64 m 781 292 l 740 0 l 482 0 l 522 64 q 626 91 576 64 q 713 169 675 118 q 767 292 750 219 l 781 292 m 121 86 l 119 0 l 29 0 l 29 14 q 36 14 29 14 q 44 14 43 14 q 95 35 74 14 q 117 86 117 56 l 121 86 m 386 747 l 386 833 l 478 833 l 478 819 q 469 819 476 819 q 463 819 463 819 q 411 799 432 819 q 389 747 390 779 l 386 747 m 121 747 l 117 747 q 95 799 117 779 q 44 819 74 819 q 36 819 43 819 q 29 819 29 819 l 29 833 l 121 833 l 121 747 z "},"ľ":{"ha":774,"x_min":29,"x_max":781,"o":"m 389 833 l 389 0 l 117 0 l 117 833 l 389 833 m 681 64 l 738 0 l 386 0 l 386 64 l 681 64 m 781 292 l 740 0 l 482 0 l 522 64 q 626 91 576 64 q 713 169 675 118 q 767 292 750 219 l 781 292 m 121 86 l 119 0 l 29 0 l 29 14 q 36 14 29 14 q 44 14 43 14 q 95 35 74 14 q 117 86 117 56 l 121 86 m 386 747 l 386 833 l 478 833 l 478 819 q 469 819 476 819 q 463 819 463 819 q 411 799 432 819 q 389 747 390 779 l 386 747 m 121 747 l 117 747 q 95 799 117 779 q 44 819 74 819 q 36 819 43 819 q 29 819 29 819 l 29 833 l 121 833 l 121 747 m 571 815 q 621 832 593 832 q 674 817 649 832 q 711 775 699 803 q 725 687 731 732 q 694 606 719 642 q 630 551 668 569 q 547 542 592 533 l 544 554 q 576 581 563 563 q 588 624 589 599 q 561 679 588 650 q 538 752 535 710 q 571 815 542 794 z "},"ļ":{"ha":774,"x_min":29,"x_max":781,"o":"m 389 833 l 389 0 l 117 0 l 117 833 l 389 833 m 681 64 l 738 0 l 386 0 l 386 64 l 681 64 m 781 292 l 740 0 l 482 0 l 522 64 q 626 91 576 64 q 713 169 675 118 q 767 292 750 219 l 781 292 m 121 86 l 119 0 l 29 0 l 29 14 q 36 14 29 14 q 44 14 43 14 q 95 35 74 14 q 117 86 117 56 l 121 86 m 386 747 l 386 833 l 478 833 l 478 819 q 469 819 476 819 q 463 819 463 819 q 411 799 432 819 q 389 747 390 779 l 386 747 m 121 747 l 117 747 q 95 799 117 779 q 44 819 74 819 q 36 819 43 819 q 29 819 29 819 l 29 833 l 121 833 l 121 747 m 293 -176 q 317 -112 293 -136 q 376 -89 342 -89 q 453 -126 426 -89 q 481 -215 481 -162 q 432 -336 481 -290 q 303 -382 383 -382 l 299 -367 q 329 -342 315 -360 q 343 -301 343 -325 q 338 -272 343 -287 q 317 -242 332 -257 q 299 -211 304 -228 q 293 -176 293 -194 z "},"ŀ":{"ha":774,"x_min":29,"x_max":781,"o":"m 603 433 q 530 463 560 433 q 500 535 500 492 q 530 608 500 578 q 603 638 560 638 q 674 608 644 638 q 704 535 704 578 q 674 463 704 492 q 603 433 644 433 m 389 833 l 389 0 l 117 0 l 117 833 l 389 833 m 681 64 l 738 0 l 386 0 l 386 64 l 681 64 m 781 292 l 740 0 l 482 0 l 522 64 q 626 91 576 64 q 713 169 675 118 q 767 292 750 219 l 781 292 m 121 86 l 119 0 l 29 0 l 29 14 q 36 14 29 14 q 44 14 43 14 q 95 35 74 14 q 117 86 117 56 l 121 86 m 386 747 l 386 833 l 478 833 l 478 819 q 469 819 476 819 q 463 819 463 819 q 411 799 432 819 q 389 747 390 779 l 386 747 m 121 747 l 117 747 q 95 799 117 779 q 44 819 74 819 q 36 819 43 819 q 29 819 29 819 l 29 833 l 121 833 l 121 747 z "},"ł":{"ha":774,"x_min":11,"x_max":781,"o":"m 11 367 l 499 624 l 535 560 l 47 303 l 11 367 m 389 833 l 389 0 l 117 0 l 117 833 l 389 833 m 681 64 l 738 0 l 386 0 l 386 64 l 681 64 m 781 292 l 740 0 l 482 0 l 522 64 q 626 91 576 64 q 713 169 675 118 q 767 292 750 219 l 781 292 m 121 86 l 119 0 l 29 0 l 29 14 q 36 14 29 14 q 44 14 43 14 q 95 35 74 14 q 117 86 117 56 l 121 86 m 386 747 l 386 833 l 478 833 l 478 819 q 469 819 476 819 q 463 819 463 819 q 411 799 432 819 q 389 747 390 779 l 386 747 m 121 747 l 117 747 q 95 799 117 779 q 44 819 74 819 q 36 819 43 819 q 29 819 29 819 l 29 833 l 121 833 l 121 747 z "},"m":{"ha":1186,"x_min":-26,"x_max":1213,"o":"m 985 850 l 996 674 l 590 110 q 576 88 590 110 q 550 35 563 67 q 539 -31 538 3 l 528 -31 l 451 100 l 985 850 m 106 86 l 106 0 l -26 0 l -26 14 q -17 14 -25 14 q -8 14 -8 14 q 50 33 25 14 q 81 86 75 51 l 106 86 m 178 67 q 187 35 176 56 q 224 14 197 14 l 243 14 l 243 0 l 157 0 l 171 67 l 178 67 m 189 850 l 199 850 l 258 683 l 169 0 l 69 0 l 189 850 m 199 850 l 632 307 l 528 -31 l 161 426 l 199 850 m 997 850 l 1119 0 l 838 0 l 782 382 l 985 850 l 997 850 m 1081 86 l 1107 86 q 1138 33 1114 51 q 1193 14 1163 14 q 1203 14 1193 14 q 1213 14 1213 14 l 1213 0 l 1081 0 l 1081 86 m 828 67 l 835 67 l 849 0 l 763 0 l 763 14 l 782 14 q 820 34 811 14 q 828 67 829 54 z "},"n":{"ha":1082,"x_min":17,"x_max":1067,"o":"m 111 851 l 956 140 l 971 -17 l 126 692 l 111 851 m 119 83 l 119 0 l 17 0 l 17 14 q 28 14 17 14 q 39 14 39 14 q 93 33 71 14 q 115 83 115 53 l 119 83 m 388 83 q 411 33 389 53 q 464 14 433 14 q 475 14 464 14 q 486 14 486 14 l 486 0 l 385 0 l 385 83 l 388 83 m 111 851 l 388 558 l 388 0 l 115 0 l 115 704 q 107 813 115 775 q 99 851 99 851 l 111 851 m 967 833 l 967 135 q 971 51 967 85 q 979 0 975 17 q 983 -17 983 -17 l 971 -17 l 694 300 l 693 833 l 967 833 m 964 750 l 964 833 l 1067 833 l 1067 819 q 1055 819 1067 819 q 1043 819 1043 819 q 990 800 1013 819 q 967 750 968 781 l 964 750 m 693 750 q 672 800 693 781 q 618 819 650 819 q 606 819 618 819 q 594 819 594 819 l 594 833 l 697 833 l 697 750 l 693 750 z "},"ń":{"ha":1082,"x_min":17,"x_max":1067,"o":"m 111 851 l 956 140 l 971 -17 l 126 692 l 111 851 m 119 83 l 119 0 l 17 0 l 17 14 q 28 14 17 14 q 39 14 39 14 q 93 33 71 14 q 115 83 115 53 l 119 83 m 388 83 q 411 33 389 53 q 464 14 433 14 q 475 14 464 14 q 486 14 486 14 l 486 0 l 385 0 l 385 83 l 388 83 m 111 851 l 388 558 l 388 0 l 115 0 l 115 704 q 107 813 115 775 q 99 851 99 851 l 111 851 m 967 833 l 967 135 q 971 51 967 85 q 979 0 975 17 q 983 -17 983 -17 l 971 -17 l 694 300 l 693 833 l 967 833 m 964 750 l 964 833 l 1067 833 l 1067 819 q 1055 819 1067 819 q 1043 819 1043 819 q 990 800 1013 819 q 967 750 968 781 l 964 750 m 693 750 q 672 800 693 781 q 618 819 650 819 q 606 819 618 819 q 594 819 594 819 l 594 833 l 697 833 l 697 750 l 693 750 z "},"ň":{"ha":1082,"x_min":17,"x_max":1067,"o":"m 111 851 l 956 140 l 971 -17 l 126 692 l 111 851 m 119 83 l 119 0 l 17 0 l 17 14 q 28 14 17 14 q 39 14 39 14 q 93 33 71 14 q 115 83 115 53 l 119 83 m 388 83 q 411 33 389 53 q 464 14 433 14 q 475 14 464 14 q 486 14 486 14 l 486 0 l 385 0 l 385 83 l 388 83 m 111 851 l 388 558 l 388 0 l 115 0 l 115 704 q 107 813 115 775 q 99 851 99 851 l 111 851 m 967 833 l 967 135 q 971 51 967 85 q 979 0 975 17 q 983 -17 983 -17 l 971 -17 l 694 300 l 693 833 l 967 833 m 964 750 l 964 833 l 1067 833 l 1067 819 q 1055 819 1067 819 q 1043 819 1043 819 q 990 800 1013 819 q 967 750 968 781 l 964 750 m 693 750 q 672 800 693 781 q 618 819 650 819 q 606 819 618 819 q 594 819 594 819 l 594 833 l 697 833 l 697 750 l 693 750 z "},"ņ":{"ha":1082,"x_min":17,"x_max":1067,"o":"m 111 851 l 956 140 l 971 -17 l 126 692 l 111 851 m 119 83 l 119 0 l 17 0 l 17 14 q 28 14 17 14 q 39 14 39 14 q 93 33 71 14 q 115 83 115 53 l 119 83 m 388 83 q 411 33 389 53 q 464 14 433 14 q 475 14 464 14 q 486 14 486 14 l 486 0 l 385 0 l 385 83 l 388 83 m 111 851 l 388 558 l 388 0 l 115 0 l 115 704 q 107 813 115 775 q 99 851 99 851 l 111 851 m 967 833 l 967 135 q 971 51 967 85 q 979 0 975 17 q 983 -17 983 -17 l 971 -17 l 694 300 l 693 833 l 967 833 m 964 750 l 964 833 l 1067 833 l 1067 819 q 1055 819 1067 819 q 1043 819 1043 819 q 990 800 1013 819 q 967 750 968 781 l 964 750 m 693 750 q 672 800 693 781 q 618 819 650 819 q 606 819 618 819 q 594 819 594 819 l 594 833 l 697 833 l 697 750 l 693 750 m 547 -176 q 572 -112 547 -136 q 631 -89 596 -89 q 708 -126 681 -89 q 735 -215 735 -162 q 686 -336 735 -290 q 557 -382 638 -382 l 553 -367 q 583 -342 569 -360 q 597 -301 597 -325 q 592 -272 597 -287 q 571 -242 586 -257 q 553 -211 558 -228 q 547 -176 547 -194 z "},"ŋ":{"ha":1103,"x_min":17,"x_max":1088,"o":"m 119 83 l 119 0 l 17 0 l 17 14 q 28 14 17 14 q 39 14 39 14 q 93 33 71 14 q 115 83 115 53 l 119 83 m 376 83 q 400 33 378 53 q 453 14 422 14 q 464 14 453 14 q 475 14 475 14 l 475 0 l 374 0 l 374 83 l 376 83 m 111 851 l 376 558 l 376 0 l 115 0 l 115 704 q 107 813 115 775 q 99 851 99 851 l 111 851 m 111 851 l 956 140 l 971 -17 l 126 692 l 111 851 m 993 22 q 942 -150 993 -81 q 804 -247 890 -219 q 615 -249 718 -274 l 608 -237 q 665 -185 642 -210 q 703 -129 689 -161 q 724 -46 718 -97 q 731 86 731 6 l 731 833 l 988 833 l 993 22 m 731 750 q 709 800 731 781 q 656 819 688 819 q 644 819 656 819 q 632 819 632 819 l 632 833 l 735 833 l 735 750 l 731 750 m 985 750 l 985 833 l 1088 833 l 1088 819 q 1076 819 1088 819 q 1064 819 1064 819 q 1011 800 1033 819 q 988 750 989 781 l 985 750 z "},"ñ":{"ha":1082,"x_min":17,"x_max":1067,"o":"m 111 851 l 956 140 l 971 -17 l 126 692 l 111 851 m 119 83 l 119 0 l 17 0 l 17 14 q 28 14 17 14 q 39 14 39 14 q 93 33 71 14 q 115 83 115 53 l 119 83 m 388 83 q 411 33 389 53 q 464 14 433 14 q 475 14 464 14 q 486 14 486 14 l 486 0 l 385 0 l 385 83 l 388 83 m 111 851 l 388 558 l 388 0 l 115 0 l 115 704 q 107 813 115 775 q 99 851 99 851 l 111 851 m 967 833 l 967 135 q 971 51 967 85 q 979 0 975 17 q 983 -17 983 -17 l 971 -17 l 694 300 l 693 833 l 967 833 m 964 750 l 964 833 l 1067 833 l 1067 819 q 1055 819 1067 819 q 1043 819 1043 819 q 990 800 1013 819 q 967 750 968 781 l 964 750 m 693 750 q 672 800 693 781 q 618 819 650 819 q 606 819 618 819 q 594 819 594 819 l 594 833 l 697 833 l 697 750 l 693 750 z "},"o":{"ha":1082,"x_min":35,"x_max":1047,"o":"m 540 850 q 753 821 660 850 q 913 736 847 792 q 1013 600 979 681 q 1047 415 1047 519 q 1013 233 1047 313 q 913 97 979 153 q 753 13 847 42 q 540 -17 660 -17 q 328 13 422 -17 q 169 97 235 42 q 69 233 103 153 q 35 415 35 313 q 69 600 35 519 q 169 736 103 681 q 328 821 235 792 q 540 850 422 850 m 540 46 q 663 90 614 46 q 738 216 713 133 q 763 415 763 299 q 738 617 763 533 q 663 744 713 700 q 540 788 614 788 q 419 744 468 788 q 344 617 369 700 q 318 415 318 533 q 344 216 318 299 q 419 90 369 133 q 540 46 468 46 z "},"ó":{"ha":1082,"x_min":35,"x_max":1047,"o":"m 540 850 q 753 821 660 850 q 913 736 847 792 q 1013 600 979 681 q 1047 415 1047 519 q 1013 233 1047 313 q 913 97 979 153 q 753 13 847 42 q 540 -17 660 -17 q 328 13 422 -17 q 169 97 235 42 q 69 233 103 153 q 35 415 35 313 q 69 600 35 519 q 169 736 103 681 q 328 821 235 792 q 540 850 422 850 m 540 46 q 663 90 614 46 q 738 216 713 133 q 763 415 763 299 q 738 617 763 533 q 663 744 713 700 q 540 788 614 788 q 419 744 468 788 q 344 617 369 700 q 318 415 318 533 q 344 216 318 299 q 419 90 369 133 q 540 46 468 46 z "},"ô":{"ha":1082,"x_min":35,"x_max":1047,"o":"m 540 850 q 753 821 660 850 q 913 736 847 792 q 1013 600 979 681 q 1047 415 1047 519 q 1013 233 1047 313 q 913 97 979 153 q 753 13 847 42 q 540 -17 660 -17 q 328 13 422 -17 q 169 97 235 42 q 69 233 103 153 q 35 415 35 313 q 69 600 35 519 q 169 736 103 681 q 328 821 235 792 q 540 850 422 850 m 540 46 q 663 90 614 46 q 738 216 713 133 q 763 415 763 299 q 738 617 763 533 q 663 744 713 700 q 540 788 614 788 q 419 744 468 788 q 344 617 369 700 q 318 415 318 533 q 344 216 318 299 q 419 90 369 133 q 540 46 468 46 z "},"ö":{"ha":1082,"x_min":35,"x_max":1047,"o":"m 540 850 q 753 821 660 850 q 913 736 847 792 q 1013 600 979 681 q 1047 415 1047 519 q 1013 233 1047 313 q 913 97 979 153 q 753 13 847 42 q 540 -17 660 -17 q 328 13 422 -17 q 169 97 235 42 q 69 233 103 153 q 35 415 35 313 q 69 600 35 519 q 169 736 103 681 q 328 821 235 792 q 540 850 422 850 m 540 46 q 663 90 614 46 q 738 216 713 133 q 763 415 763 299 q 738 617 763 533 q 663 744 713 700 q 540 788 614 788 q 419 744 468 788 q 344 617 369 700 q 318 415 318 533 q 344 216 318 299 q 419 90 369 133 q 540 46 468 46 z "},"ò":{"ha":1082,"x_min":35,"x_max":1047,"o":"m 540 850 q 753 821 660 850 q 913 736 847 792 q 1013 600 979 681 q 1047 415 1047 519 q 1013 233 1047 313 q 913 97 979 153 q 753 13 847 42 q 540 -17 660 -17 q 328 13 422 -17 q 169 97 235 42 q 69 233 103 153 q 35 415 35 313 q 69 600 35 519 q 169 736 103 681 q 328 821 235 792 q 540 850 422 850 m 540 46 q 663 90 614 46 q 738 216 713 133 q 763 415 763 299 q 738 617 763 533 q 663 744 713 700 q 540 788 614 788 q 419 744 468 788 q 344 617 369 700 q 318 415 318 533 q 344 216 318 299 q 419 90 369 133 q 540 46 468 46 z "},"ő":{"ha":1082,"x_min":35,"x_max":1047,"o":"m 540 850 q 753 821 660 850 q 913 736 847 792 q 1013 600 979 681 q 1047 415 1047 519 q 1013 233 1047 313 q 913 97 979 153 q 753 13 847 42 q 540 -17 660 -17 q 328 13 422 -17 q 169 97 235 42 q 69 233 103 153 q 35 415 35 313 q 69 600 35 519 q 169 736 103 681 q 328 821 235 792 q 540 850 422 850 m 540 46 q 663 90 614 46 q 738 216 713 133 q 763 415 763 299 q 738 617 763 533 q 663 744 713 700 q 540 788 614 788 q 419 744 468 788 q 344 617 369 700 q 318 415 318 533 q 344 216 318 299 q 419 90 369 133 q 540 46 468 46 z "},"ō":{"ha":1082,"x_min":35,"x_max":1047,"o":"m 540 850 q 753 821 660 850 q 913 736 847 792 q 1013 600 979 681 q 1047 415 1047 519 q 1013 233 1047 313 q 913 97 979 153 q 753 13 847 42 q 540 -17 660 -17 q 328 13 422 -17 q 169 97 235 42 q 69 233 103 153 q 35 415 35 313 q 69 600 35 519 q 169 736 103 681 q 328 821 235 792 q 540 850 422 850 m 540 46 q 663 90 614 46 q 738 216 713 133 q 763 415 763 299 q 738 617 763 533 q 663 744 713 700 q 540 788 614 788 q 419 744 468 788 q 344 617 369 700 q 318 415 318 533 q 344 216 318 299 q 419 90 369 133 q 540 46 468 46 z "},"ø":{"ha":1082,"x_min":35,"x_max":1047,"o":"m 890 893 l 950 844 l 199 -46 l 138 4 l 890 893 m 540 850 q 747 821 654 850 q 908 736 840 792 q 1011 600 975 681 q 1047 415 1047 519 q 1013 233 1047 313 q 913 97 979 153 q 753 13 847 42 q 540 -17 660 -17 q 328 13 422 -17 q 169 97 235 42 q 69 233 103 153 q 35 415 35 313 q 69 600 35 519 q 169 736 103 681 q 328 821 235 792 q 540 850 422 850 m 540 46 q 663 90 614 46 q 738 216 713 133 q 763 415 763 299 q 738 617 763 533 q 663 744 713 700 q 540 788 614 788 q 419 744 468 788 q 344 617 369 700 q 318 415 318 533 q 344 216 318 299 q 419 90 369 133 q 540 46 468 46 z "},"õ":{"ha":1082,"x_min":35,"x_max":1047,"o":"m 540 850 q 753 821 660 850 q 913 736 847 792 q 1013 600 979 681 q 1047 415 1047 519 q 1013 233 1047 313 q 913 97 979 153 q 753 13 847 42 q 540 -17 660 -17 q 328 13 422 -17 q 169 97 235 42 q 69 233 103 153 q 35 415 35 313 q 69 600 35 519 q 169 736 103 681 q 328 821 235 792 q 540 850 422 850 m 540 46 q 663 90 614 46 q 738 216 713 133 q 763 415 763 299 q 738 617 763 533 q 663 744 713 700 q 540 788 614 788 q 419 744 468 788 q 344 617 369 700 q 318 415 318 533 q 344 216 318 299 q 419 90 369 133 q 540 46 468 46 z "},"œ":{"ha":1393,"x_min":35,"x_max":1374,"o":"m 551 853 q 624 849 594 853 q 686 842 653 846 q 727 838 706 839 q 768 836 749 836 l 768 0 q 743 0 758 0 q 704 -3 728 0 q 649 -9 672 -6 q 600 -15 625 -12 q 536 -17 575 -17 q 272 35 385 -17 q 97 184 158 86 q 35 421 35 282 q 97 653 35 557 q 274 801 158 750 q 551 853 389 853 m 554 46 q 633 60 601 46 q 681 94 664 74 q 697 131 697 114 l 697 706 q 681 741 697 721 q 634 776 665 761 q 556 790 603 790 q 431 749 486 790 q 342 626 375 708 q 308 418 310 543 q 339 217 308 300 q 425 90 369 133 q 554 46 481 46 m 965 836 l 965 0 l 699 -1 l 699 836 l 965 836 m 1274 64 l 1326 0 l 961 0 l 963 64 l 1274 64 m 1236 443 l 1236 381 l 961 381 l 961 443 l 1236 443 m 1300 836 l 1300 772 l 961 772 l 961 836 l 1300 836 m 1374 288 l 1331 0 l 1065 0 l 1108 64 q 1215 90 1165 64 q 1303 167 1265 117 q 1360 288 1342 217 l 1374 288 m 1236 383 l 1236 238 l 1222 238 l 1222 242 q 1185 341 1222 303 q 1086 381 1147 379 l 1086 383 l 1236 383 m 1236 588 l 1236 442 l 1086 442 l 1086 443 q 1185 485 1147 446 q 1222 583 1222 524 l 1222 588 l 1236 588 m 1300 776 l 1300 600 l 1286 600 l 1286 607 q 1244 728 1286 685 q 1125 772 1203 771 l 1125 776 l 1300 776 m 1300 858 l 1300 822 l 1154 836 q 1238 844 1193 836 q 1300 858 1283 851 z "},"p":{"ha":843,"x_min":29,"x_max":828,"o":"m 375 833 l 496 833 q 686 801 617 833 q 787 718 756 769 q 822 608 818 667 q 792 460 828 524 q 697 362 757 396 q 565 333 636 328 q 426 392 493 339 l 426 403 q 435 406 426 403 q 456 416 443 408 q 484 439 469 424 q 512 479 499 454 q 532 543 525 504 q 538 582 536 563 q 539 615 540 601 q 501 728 535 686 q 406 771 467 771 l 386 771 q 383 786 386 771 q 378 817 381 801 q 375 833 375 833 m 389 833 l 389 0 l 117 0 l 117 833 l 389 833 m 121 86 l 118 0 l 31 0 l 31 14 q 38 14 33 14 q 46 14 43 14 q 96 35 75 14 q 117 86 117 56 l 121 86 m 119 747 l 117 747 q 95 799 117 779 q 44 819 74 819 q 37 819 42 819 q 29 819 32 819 l 29 833 l 117 833 l 119 747 m 386 86 l 389 86 q 410 35 390 56 q 461 14 429 14 q 469 14 464 14 q 476 14 474 14 l 475 0 l 388 0 l 386 86 z "},"þ":{"ha":833,"x_min":51,"x_max":861,"o":"m 383 668 l 514 668 q 711 636 638 668 q 819 552 785 604 q 856 440 853 500 q 824 292 861 356 q 723 194 786 228 q 585 167 660 161 q 440 224 511 172 l 439 235 q 449 238 439 235 q 475 247 458 240 q 510 270 492 254 q 544 312 528 286 q 569 378 560 338 q 576 417 574 397 q 576 450 578 436 q 535 563 574 521 q 429 606 497 606 l 396 606 q 392 621 396 606 q 386 652 389 636 q 383 668 383 668 m 410 833 l 410 0 l 143 0 l 143 833 l 410 833 m 147 88 l 147 0 l 51 0 l 51 14 q 59 14 51 14 q 67 14 67 14 q 121 35 99 14 q 143 88 143 57 l 147 88 m 147 746 l 143 746 q 121 799 143 778 q 67 819 99 819 q 59 819 67 819 q 51 819 51 819 l 51 833 l 147 833 l 147 746 m 406 88 l 410 88 q 432 35 410 57 q 486 14 454 14 q 493 14 486 14 q 500 14 500 14 l 501 0 l 406 0 l 406 88 m 406 746 l 406 833 l 501 833 l 500 819 q 493 819 500 819 q 486 819 486 819 q 432 799 454 819 q 408 746 410 778 l 406 746 z "},"q":{"ha":1056,"x_min":35,"x_max":1590,"o":"m 526 850 q 735 821 643 850 q 890 736 826 792 q 986 600 953 681 q 1019 415 1019 519 q 986 233 1019 313 q 890 97 953 153 q 735 13 826 42 q 526 -17 643 -17 q 319 13 410 -17 q 165 97 228 42 q 68 233 101 153 q 35 415 35 313 q 68 600 35 519 q 165 736 101 681 q 319 821 228 792 q 526 850 410 850 m 526 46 q 642 90 596 46 q 712 216 689 133 q 735 415 735 299 q 712 617 735 533 q 642 744 689 700 q 526 788 596 788 q 412 744 458 788 q 342 617 365 700 q 319 415 319 533 q 342 216 319 299 q 412 90 365 133 q 526 46 458 46 m 525 -17 l 446 47 q 634 31 560 38 q 760 15 708 24 q 856 -4 813 7 q 951 -33 900 -15 q 1075 -78 1001 -50 q 1241 -126 1167 -111 q 1376 -137 1315 -140 q 1488 -117 1438 -135 q 1581 -71 1539 -100 l 1589 -75 q 1558 -227 1590 -162 q 1467 -330 1526 -292 q 1325 -376 1407 -368 q 1145 -360 1243 -385 q 940 -272 1047 -335 q 810 -184 865 -229 q 710 -101 756 -139 q 620 -40 664 -62 q 525 -17 576 -17 z "},"r":{"ha":942,"x_min":44,"x_max":1024,"o":"m 393 833 l 522 833 q 631 824 575 833 q 733 792 686 815 q 810 723 781 768 q 839 604 839 678 q 824 515 839 563 q 772 431 810 468 q 661 382 733 394 q 754 329 714 368 q 813 258 794 290 q 834 217 822 242 q 863 164 846 193 q 900 101 879 135 q 946 42 926 61 q 983 19 965 24 q 1024 14 1001 14 l 1024 0 l 860 0 q 732 6 786 0 q 635 42 678 13 q 553 140 593 72 q 527 190 538 167 q 510 235 517 213 q 498 281 503 257 q 488 329 493 304 q 463 392 478 378 q 442 408 447 407 l 442 419 q 444 419 443 419 q 449 419 446 419 q 493 433 471 419 q 532 480 515 447 q 554 571 549 513 q 556 586 554 575 q 556 615 557 597 q 535 706 553 675 q 494 750 517 738 q 453 765 471 763 q 432 767 435 767 q 426 767 429 767 q 403 767 422 767 q 399 783 401 767 q 395 817 397 800 q 393 833 393 833 m 404 833 l 404 0 l 131 0 l 131 833 l 404 833 m 135 86 l 133 0 l 44 0 l 44 14 q 51 14 47 14 q 60 14 54 14 q 109 35 88 14 q 131 86 131 56 l 135 86 m 135 747 l 131 747 q 110 799 131 779 q 61 819 89 819 q 51 819 56 819 q 44 819 47 819 l 44 833 l 133 833 l 135 747 m 401 86 l 404 86 q 429 32 404 50 q 478 14 454 14 q 482 14 478 14 q 490 14 486 14 l 490 0 l 403 0 l 401 86 z "},"ŕ":{"ha":942,"x_min":44,"x_max":1024,"o":"m 393 833 l 522 833 q 631 824 575 833 q 733 792 686 815 q 810 723 781 768 q 839 604 839 678 q 824 515 839 563 q 772 431 810 468 q 661 382 733 394 q 754 329 714 368 q 813 258 794 290 q 834 217 822 242 q 863 164 846 193 q 900 101 879 135 q 946 42 926 61 q 983 19 965 24 q 1024 14 1001 14 l 1024 0 l 860 0 q 732 6 786 0 q 635 42 678 13 q 553 140 593 72 q 527 190 538 167 q 510 235 517 213 q 498 281 503 257 q 488 329 493 304 q 463 392 478 378 q 442 408 447 407 l 442 419 q 444 419 443 419 q 449 419 446 419 q 493 433 471 419 q 532 480 515 447 q 554 571 549 513 q 556 586 554 575 q 556 615 557 597 q 535 706 553 675 q 494 750 517 738 q 453 765 471 763 q 432 767 435 767 q 426 767 429 767 q 403 767 422 767 q 399 783 401 767 q 395 817 397 800 q 393 833 393 833 m 404 833 l 404 0 l 131 0 l 131 833 l 404 833 m 135 86 l 133 0 l 44 0 l 44 14 q 51 14 47 14 q 60 14 54 14 q 109 35 88 14 q 131 86 131 56 l 135 86 m 135 747 l 131 747 q 110 799 131 779 q 61 819 89 819 q 51 819 56 819 q 44 819 47 819 l 44 833 l 133 833 l 135 747 m 401 86 l 404 86 q 429 32 404 50 q 478 14 454 14 q 482 14 478 14 q 490 14 486 14 l 490 0 l 403 0 l 401 86 z "},"ř":{"ha":942,"x_min":44,"x_max":1024,"o":"m 393 833 l 522 833 q 631 824 575 833 q 733 792 686 815 q 810 723 781 768 q 839 604 839 678 q 824 515 839 563 q 772 431 810 468 q 661 382 733 394 q 754 329 714 368 q 813 258 794 290 q 834 217 822 242 q 863 164 846 193 q 900 101 879 135 q 946 42 926 61 q 983 19 965 24 q 1024 14 1001 14 l 1024 0 l 860 0 q 732 6 786 0 q 635 42 678 13 q 553 140 593 72 q 527 190 538 167 q 510 235 517 213 q 498 281 503 257 q 488 329 493 304 q 463 392 478 378 q 442 408 447 407 l 442 419 q 444 419 443 419 q 449 419 446 419 q 493 433 471 419 q 532 480 515 447 q 554 571 549 513 q 556 586 554 575 q 556 615 557 597 q 535 706 553 675 q 494 750 517 738 q 453 765 471 763 q 432 767 435 767 q 426 767 429 767 q 403 767 422 767 q 399 783 401 767 q 395 817 397 800 q 393 833 393 833 m 404 833 l 404 0 l 131 0 l 131 833 l 404 833 m 135 86 l 133 0 l 44 0 l 44 14 q 51 14 47 14 q 60 14 54 14 q 109 35 88 14 q 131 86 131 56 l 135 86 m 135 747 l 131 747 q 110 799 131 779 q 61 819 89 819 q 51 819 56 819 q 44 819 47 819 l 44 833 l 133 833 l 135 747 m 401 86 l 404 86 q 429 32 404 50 q 478 14 454 14 q 482 14 478 14 q 490 14 486 14 l 490 0 l 403 0 l 401 86 z "},"ŗ":{"ha":942,"x_min":44,"x_max":1024,"o":"m 393 833 l 522 833 q 631 824 575 833 q 733 792 686 815 q 810 723 781 768 q 839 604 839 678 q 824 515 839 563 q 772 431 810 468 q 661 382 733 394 q 754 329 714 368 q 813 258 794 290 q 834 217 822 242 q 863 164 846 193 q 900 101 879 135 q 946 42 926 61 q 983 19 965 24 q 1024 14 1001 14 l 1024 0 l 860 0 q 732 6 786 0 q 635 42 678 13 q 553 140 593 72 q 527 190 538 167 q 510 235 517 213 q 498 281 503 257 q 488 329 493 304 q 463 392 478 378 q 442 408 447 407 l 442 419 q 444 419 443 419 q 449 419 446 419 q 493 433 471 419 q 532 480 515 447 q 554 571 549 513 q 556 586 554 575 q 556 615 557 597 q 535 706 553 675 q 494 750 517 738 q 453 765 471 763 q 432 767 435 767 q 426 767 429 767 q 403 767 422 767 q 399 783 401 767 q 395 817 397 800 q 393 833 393 833 m 404 833 l 404 0 l 131 0 l 131 833 l 404 833 m 135 86 l 133 0 l 44 0 l 44 14 q 51 14 47 14 q 60 14 54 14 q 109 35 88 14 q 131 86 131 56 l 135 86 m 135 747 l 131 747 q 110 799 131 779 q 61 819 89 819 q 51 819 56 819 q 44 819 47 819 l 44 833 l 133 833 l 135 747 m 401 86 l 404 86 q 429 32 404 50 q 478 14 454 14 q 482 14 478 14 q 490 14 486 14 l 490 0 l 403 0 l 401 86 m 493 -176 q 517 -112 493 -136 q 576 -89 542 -89 q 653 -126 626 -89 q 681 -215 681 -162 q 632 -336 681 -290 q 503 -382 583 -382 l 499 -367 q 529 -342 515 -360 q 543 -301 543 -325 q 538 -272 543 -287 q 517 -242 532 -257 q 499 -211 504 -228 q 493 -176 493 -194 z "},"s":{"ha":763,"x_min":53,"x_max":721,"o":"m 335 850 q 401 848 356 850 q 498 842 447 846 q 588 833 549 838 q 635 824 626 828 l 604 635 l 596 635 q 547 743 596 701 q 415 785 499 785 q 314 760 350 785 q 272 693 278 736 q 285 642 269 663 q 329 608 301 622 q 386 582 357 594 l 565 500 q 678 409 635 469 q 713 253 721 349 q 660 103 706 164 q 532 13 614 43 q 335 -17 450 -17 q 208 -6 263 -17 q 119 24 154 6 q 68 63 85 42 q 56 140 53 94 q 74 230 58 186 q 110 300 89 274 l 118 300 q 144 180 115 238 q 230 85 172 122 q 369 47 288 49 q 481 81 447 46 q 515 156 515 115 q 483 226 515 194 q 376 290 450 258 l 231 358 q 99 469 142 396 q 71 635 57 542 q 116 755 82 707 q 206 826 150 803 q 335 850 261 850 m 638 838 l 633 814 l 453 814 l 453 838 l 638 838 z "},"ś":{"ha":763,"x_min":53,"x_max":721,"o":"m 335 850 q 401 848 356 850 q 498 842 447 846 q 588 833 549 838 q 635 824 626 828 l 604 635 l 596 635 q 547 743 596 701 q 415 785 499 785 q 314 760 350 785 q 272 693 278 736 q 285 642 269 663 q 329 608 301 622 q 386 582 357 594 l 565 500 q 678 409 635 469 q 713 253 721 349 q 660 103 706 164 q 532 13 614 43 q 335 -17 450 -17 q 208 -6 263 -17 q 119 24 154 6 q 68 63 85 42 q 56 140 53 94 q 74 230 58 186 q 110 300 89 274 l 118 300 q 144 180 115 238 q 230 85 172 122 q 369 47 288 49 q 481 81 447 46 q 515 156 515 115 q 483 226 515 194 q 376 290 450 258 l 231 358 q 99 469 142 396 q 71 635 57 542 q 116 755 82 707 q 206 826 150 803 q 335 850 261 850 m 638 838 l 633 814 l 453 814 l 453 838 l 638 838 z "},"š":{"ha":763,"x_min":53,"x_max":721,"o":"m 335 850 q 401 848 356 850 q 498 842 447 846 q 588 833 549 838 q 635 824 626 828 l 604 635 l 596 635 q 547 743 596 701 q 415 785 499 785 q 314 760 350 785 q 272 693 278 736 q 285 642 269 663 q 329 608 301 622 q 386 582 357 594 l 565 500 q 678 409 635 469 q 713 253 721 349 q 660 103 706 164 q 532 13 614 43 q 335 -17 450 -17 q 208 -6 263 -17 q 119 24 154 6 q 68 63 85 42 q 56 140 53 94 q 74 230 58 186 q 110 300 89 274 l 118 300 q 144 180 115 238 q 230 85 172 122 q 369 47 288 49 q 481 81 447 46 q 515 156 515 115 q 483 226 515 194 q 376 290 450 258 l 231 358 q 99 469 142 396 q 71 635 57 542 q 116 755 82 707 q 206 826 150 803 q 335 850 261 850 m 638 838 l 633 814 l 453 814 l 453 838 l 638 838 z "},"ş":{"ha":763,"x_min":53,"x_max":721,"o":"m 329 -10 l 415 -10 l 356 -78 q 403 -71 375 -71 q 460 -79 432 -71 q 506 -108 489 -87 q 521 -165 524 -129 q 476 -248 517 -214 q 376 -292 435 -282 q 260 -283 318 -303 l 260 -269 q 321 -259 289 -269 q 376 -225 353 -249 q 404 -164 400 -201 q 385 -119 408 -135 q 328 -102 361 -104 q 269 -111 294 -100 q 266 -104 269 -111 q 263 -97 263 -97 l 329 -10 m 335 850 q 401 848 356 850 q 497 842 447 846 q 587 833 547 838 q 635 824 626 828 l 604 635 l 594 635 q 547 743 594 701 q 414 785 499 785 q 313 760 350 785 q 272 693 276 736 q 285 642 269 663 q 328 608 301 622 q 385 582 356 594 l 565 500 q 678 409 635 469 q 713 253 721 349 q 659 103 706 164 q 531 13 613 43 q 333 -17 449 -17 q 208 -6 263 -17 q 119 24 154 6 q 67 63 83 42 q 56 140 53 94 q 74 230 58 186 q 110 300 89 274 l 117 300 q 144 180 115 238 q 230 85 172 122 q 369 47 288 49 q 481 81 447 46 q 514 156 514 115 q 482 226 514 194 q 376 290 450 258 l 231 358 q 99 469 142 396 q 71 635 57 542 q 115 755 82 707 q 204 826 149 803 q 335 850 260 850 m 638 838 l 633 814 l 453 814 l 453 838 l 638 838 z "},"ș":{"ha":763,"x_min":53,"x_max":721,"o":"m 335 850 q 401 848 356 850 q 498 842 447 846 q 588 833 549 838 q 635 824 626 828 l 604 635 l 596 635 q 547 743 596 701 q 415 785 499 785 q 314 760 350 785 q 272 693 278 736 q 285 642 269 663 q 329 608 301 622 q 386 582 357 594 l 565 500 q 678 409 635 469 q 713 253 721 349 q 660 103 706 164 q 532 13 614 43 q 335 -17 450 -17 q 208 -6 263 -17 q 119 24 154 6 q 68 63 85 42 q 56 140 53 94 q 74 230 58 186 q 110 300 89 274 l 118 300 q 144 180 115 238 q 230 85 172 122 q 369 47 288 49 q 481 81 447 46 q 515 156 515 115 q 483 226 515 194 q 376 290 450 258 l 231 358 q 99 469 142 396 q 71 635 57 542 q 116 755 82 707 q 206 826 150 803 q 335 850 261 850 m 638 838 l 633 814 l 453 814 l 453 838 l 638 838 m 299 -176 q 323 -112 299 -136 q 382 -89 347 -89 q 459 -126 432 -89 q 486 -215 486 -162 q 438 -336 486 -290 q 308 -382 389 -382 l 304 -367 q 335 -342 321 -360 q 349 -301 349 -325 q 343 -272 349 -287 q 322 -242 338 -257 q 304 -211 310 -228 q 299 -176 299 -194 z "},"ß":{"ha":1525,"x_min":53,"x_max":1483,"o":"m 335 850 q 401 848 356 850 q 498 842 447 846 q 588 833 549 838 q 635 824 626 828 l 604 635 l 596 635 q 547 743 596 701 q 415 785 499 785 q 314 760 350 785 q 272 693 278 736 q 285 642 269 663 q 329 608 301 622 q 386 582 357 594 l 565 500 q 678 409 635 469 q 713 253 721 349 q 660 103 706 164 q 532 13 614 43 q 335 -17 450 -17 q 208 -6 263 -17 q 119 24 154 6 q 68 63 85 42 q 56 140 53 94 q 74 230 58 186 q 110 300 89 274 l 118 300 q 144 180 115 238 q 230 85 172 122 q 369 47 288 49 q 481 81 447 46 q 515 156 515 115 q 483 226 515 194 q 376 290 450 258 l 231 358 q 99 469 142 396 q 71 635 57 542 q 116 755 82 707 q 206 826 150 803 q 335 850 261 850 m 638 838 l 633 814 l 453 814 l 453 838 l 638 838 m 1097 850 q 1164 848 1118 850 q 1260 842 1210 846 q 1350 833 1311 838 q 1397 824 1389 828 l 1367 635 l 1358 635 q 1310 743 1358 701 q 1178 785 1261 785 q 1076 760 1113 785 q 1035 693 1040 736 q 1048 642 1032 663 q 1092 608 1064 622 q 1149 582 1119 594 l 1328 500 q 1440 409 1397 469 q 1475 253 1483 349 q 1422 103 1468 164 q 1294 13 1376 43 q 1097 -17 1213 -17 q 971 -6 1025 -17 q 882 24 917 6 q 831 63 847 42 q 818 140 815 94 q 836 230 821 186 q 872 300 851 274 l 881 300 q 906 180 878 238 q 992 85 935 122 q 1132 47 1050 49 q 1244 81 1210 46 q 1278 156 1278 115 q 1245 226 1278 194 q 1139 290 1213 258 l 993 358 q 862 469 904 396 q 833 635 819 542 q 878 755 844 707 q 968 826 913 803 q 1097 850 1024 850 m 1400 838 l 1396 814 l 1215 814 l 1215 838 l 1400 838 z "},"t":{"ha":851,"x_min":10,"x_max":842,"o":"m 563 829 l 563 0 l 289 0 l 289 829 l 563 829 m 842 835 l 842 769 l 10 769 l 10 835 l 842 835 m 842 775 l 842 594 l 828 594 l 828 601 q 786 724 829 681 q 664 769 743 768 l 664 775 l 842 775 m 842 856 l 842 821 l 701 835 q 756 838 726 835 q 810 847 786 842 q 842 856 835 851 m 292 86 l 292 0 l 203 0 l 203 14 q 210 14 203 14 q 217 14 217 14 q 267 35 247 14 q 289 86 288 56 l 292 86 m 557 86 l 563 86 q 583 35 561 56 q 635 14 604 14 q 642 14 635 14 q 649 14 649 14 l 649 0 l 557 0 l 557 86 m 188 775 l 188 769 q 66 724 108 768 q 24 601 24 681 l 24 594 l 10 594 l 10 775 l 188 775 m 10 856 q 44 847 21 851 q 97 838 68 842 q 150 835 125 835 l 10 821 l 10 856 z "},"ŧ":{"ha":851,"x_min":10,"x_max":842,"o":"m 563 829 l 563 0 l 289 0 l 289 829 l 563 829 m 842 835 l 842 769 l 10 769 l 10 835 l 842 835 m 842 775 l 842 594 l 828 594 l 828 601 q 786 724 829 681 q 664 769 743 768 l 664 775 l 842 775 m 842 856 l 842 821 l 701 835 q 756 838 726 835 q 810 847 786 842 q 842 856 835 851 m 292 86 l 292 0 l 203 0 l 203 14 q 210 14 203 14 q 217 14 217 14 q 267 35 247 14 q 289 86 288 56 l 292 86 m 557 86 l 563 86 q 583 35 561 56 q 635 14 604 14 q 642 14 635 14 q 649 14 649 14 l 649 0 l 557 0 l 557 86 m 188 775 l 188 769 q 66 724 108 768 q 24 601 24 681 l 24 594 l 10 594 l 10 775 l 188 775 m 10 856 q 44 847 21 851 q 97 838 68 842 q 150 835 125 835 l 10 821 l 10 856 m 736 481 l 736 418 l 122 418 l 122 481 l 736 481 z "},"ť":{"ha":851,"x_min":10,"x_max":842,"o":"m 661 1175 l 651 1186 l 432 1097 l 199 1186 l 189 1175 l 424 932 l 440 932 l 661 1175 m 563 829 l 563 0 l 289 0 l 289 829 l 563 829 m 842 835 l 842 769 l 10 769 l 10 835 l 842 835 m 842 775 l 842 594 l 828 594 l 828 601 q 786 724 829 681 q 664 769 743 768 l 664 775 l 842 775 m 842 856 l 842 821 l 701 835 q 756 838 726 835 q 810 847 786 842 q 842 856 835 851 m 292 86 l 292 0 l 203 0 l 203 14 q 210 14 203 14 q 217 14 217 14 q 267 35 247 14 q 289 86 288 56 l 292 86 m 557 86 l 563 86 q 583 35 561 56 q 635 14 604 14 q 642 14 635 14 q 649 14 649 14 l 649 0 l 557 0 l 557 86 m 188 775 l 188 769 q 66 724 108 768 q 24 601 24 681 l 24 594 l 10 594 l 10 775 l 188 775 m 10 856 q 44 847 21 851 q 97 838 68 842 q 150 835 125 835 l 10 821 l 10 856 z "},"ţ":{"ha":851,"x_min":10,"x_max":842,"o":"m 563 829 l 563 0 l 289 0 l 289 829 l 563 829 m 842 835 l 842 769 l 10 769 l 10 835 l 842 835 m 842 775 l 842 594 l 828 594 l 828 601 q 786 724 829 681 q 664 769 743 768 l 664 775 l 842 775 m 842 856 l 842 821 l 701 835 q 756 838 726 835 q 810 847 786 842 q 842 856 835 851 m 292 86 l 292 0 l 203 0 l 203 14 q 210 14 203 14 q 217 14 217 14 q 267 35 247 14 q 289 86 288 56 l 292 86 m 557 86 l 563 86 q 583 35 561 56 q 635 14 604 14 q 642 14 635 14 q 649 14 649 14 l 649 0 l 557 0 l 557 86 m 188 775 l 188 769 q 66 724 108 768 q 24 601 24 681 l 24 594 l 10 594 l 10 775 l 188 775 m 10 856 q 44 847 21 851 q 97 838 68 842 q 150 835 125 835 l 10 821 l 10 856 z "},"ț":{"ha":851,"x_min":10,"x_max":842,"o":"m 563 829 l 563 0 l 289 0 l 289 829 l 563 829 m 842 835 l 842 769 l 10 769 l 10 835 l 842 835 m 842 775 l 842 594 l 828 594 l 828 601 q 786 724 829 681 q 664 769 743 768 l 664 775 l 842 775 m 842 856 l 842 821 l 701 835 q 756 838 726 835 q 810 847 786 842 q 842 856 835 851 m 292 86 l 292 0 l 203 0 l 203 14 q 210 14 203 14 q 217 14 217 14 q 267 35 247 14 q 289 86 288 56 l 292 86 m 557 86 l 563 86 q 583 35 561 56 q 635 14 604 14 q 642 14 635 14 q 649 14 649 14 l 649 0 l 557 0 l 557 86 m 188 775 l 188 769 q 66 724 108 768 q 24 601 24 681 l 24 594 l 10 594 l 10 775 l 188 775 m 10 856 q 44 847 21 851 q 97 838 68 842 q 150 835 125 835 l 10 821 l 10 856 m 339 -175 q 363 -111 339 -135 q 422 -87 388 -87 q 499 -124 472 -87 q 526 -214 526 -161 q 478 -335 526 -289 q 349 -381 429 -381 l 344 -365 q 375 -341 361 -358 q 389 -300 389 -324 q 383 -271 389 -286 q 363 -240 378 -256 q 344 -210 350 -226 q 339 -175 339 -193 z "},"u":{"ha":983,"x_min":26,"x_max":968,"o":"m 378 833 l 378 310 q 431 119 378 188 q 581 50 485 50 q 726 115 675 50 q 779 294 778 179 l 779 833 l 889 833 l 889 310 q 799 70 889 157 q 538 -17 708 -17 q 208 69 311 -17 q 106 307 106 156 l 106 833 l 378 833 m 108 833 l 108 763 l 106 763 q 88 806 106 789 q 44 822 69 822 q 35 822 44 822 q 26 822 26 822 l 26 833 l 108 833 m 457 833 l 457 822 q 447 822 457 822 q 438 822 438 822 q 395 806 413 822 q 378 763 378 789 l 375 763 l 375 833 l 457 833 m 782 833 l 782 763 l 779 763 q 760 806 778 789 q 718 822 743 822 q 709 822 718 822 q 700 822 700 822 l 700 833 l 782 833 m 968 833 l 968 822 q 959 822 968 822 q 950 822 950 822 q 907 806 925 822 q 889 763 889 789 l 886 763 l 886 833 l 968 833 z "},"ú":{"ha":983,"x_min":26,"x_max":968,"o":"m 378 833 l 378 310 q 431 119 378 188 q 581 50 485 50 q 726 115 675 50 q 779 294 778 179 l 779 833 l 889 833 l 889 310 q 799 70 889 157 q 538 -17 708 -17 q 208 69 311 -17 q 106 307 106 156 l 106 833 l 378 833 m 108 833 l 108 763 l 106 763 q 88 806 106 789 q 44 822 69 822 q 35 822 44 822 q 26 822 26 822 l 26 833 l 108 833 m 457 833 l 457 822 q 447 822 457 822 q 438 822 438 822 q 395 806 413 822 q 378 763 378 789 l 375 763 l 375 833 l 457 833 m 782 833 l 782 763 l 779 763 q 760 806 778 789 q 718 822 743 822 q 709 822 718 822 q 700 822 700 822 l 700 833 l 782 833 m 968 833 l 968 822 q 959 822 968 822 q 950 822 950 822 q 907 806 925 822 q 889 763 889 789 l 886 763 l 886 833 l 968 833 z "},"û":{"ha":983,"x_min":26,"x_max":968,"o":"m 378 833 l 378 310 q 431 119 378 188 q 581 50 485 50 q 726 115 675 50 q 779 294 778 179 l 779 833 l 889 833 l 889 310 q 799 70 889 157 q 538 -17 708 -17 q 208 69 311 -17 q 106 307 106 156 l 106 833 l 378 833 m 108 833 l 108 763 l 106 763 q 88 806 106 789 q 44 822 69 822 q 35 822 44 822 q 26 822 26 822 l 26 833 l 108 833 m 457 833 l 457 822 q 447 822 457 822 q 438 822 438 822 q 395 806 413 822 q 378 763 378 789 l 375 763 l 375 833 l 457 833 m 782 833 l 782 763 l 779 763 q 760 806 778 789 q 718 822 743 822 q 709 822 718 822 q 700 822 700 822 l 700 833 l 782 833 m 968 833 l 968 822 q 959 822 968 822 q 950 822 950 822 q 907 806 925 822 q 889 763 889 789 l 886 763 l 886 833 l 968 833 z "},"ü":{"ha":983,"x_min":26,"x_max":968,"o":"m 378 833 l 378 310 q 431 119 378 188 q 581 50 485 50 q 726 115 675 50 q 779 294 778 179 l 779 833 l 889 833 l 889 310 q 799 70 889 157 q 538 -17 708 -17 q 208 69 311 -17 q 106 307 106 156 l 106 833 l 378 833 m 108 833 l 108 763 l 106 763 q 88 806 106 789 q 44 822 69 822 q 35 822 44 822 q 26 822 26 822 l 26 833 l 108 833 m 457 833 l 457 822 q 447 822 457 822 q 438 822 438 822 q 395 806 413 822 q 378 763 378 789 l 375 763 l 375 833 l 457 833 m 782 833 l 782 763 l 779 763 q 760 806 778 789 q 718 822 743 822 q 709 822 718 822 q 700 822 700 822 l 700 833 l 782 833 m 968 833 l 968 822 q 959 822 968 822 q 950 822 950 822 q 907 806 925 822 q 889 763 889 789 l 886 763 l 886 833 l 968 833 z "},"ù":{"ha":983,"x_min":26,"x_max":968,"o":"m 378 833 l 378 310 q 431 119 378 188 q 581 50 485 50 q 726 115 675 50 q 779 294 778 179 l 779 833 l 889 833 l 889 310 q 799 70 889 157 q 538 -17 708 -17 q 208 69 311 -17 q 106 307 106 156 l 106 833 l 378 833 m 108 833 l 108 763 l 106 763 q 88 806 106 789 q 44 822 69 822 q 35 822 44 822 q 26 822 26 822 l 26 833 l 108 833 m 457 833 l 457 822 q 447 822 457 822 q 438 822 438 822 q 395 806 413 822 q 378 763 378 789 l 375 763 l 375 833 l 457 833 m 782 833 l 782 763 l 779 763 q 760 806 778 789 q 718 822 743 822 q 709 822 718 822 q 700 822 700 822 l 700 833 l 782 833 m 968 833 l 968 822 q 959 822 968 822 q 950 822 950 822 q 907 806 925 822 q 889 763 889 789 l 886 763 l 886 833 l 968 833 z "},"ű":{"ha":983,"x_min":26,"x_max":996,"o":"m 378 833 l 378 310 q 431 119 378 188 q 581 50 485 50 q 726 115 675 50 q 779 294 778 179 l 779 833 l 889 833 l 889 310 q 799 70 889 157 q 538 -17 708 -17 q 208 69 311 -17 q 106 307 106 156 l 106 833 l 378 833 m 108 833 l 108 763 l 106 763 q 88 806 106 789 q 44 822 69 822 q 35 822 44 822 q 26 822 26 822 l 26 833 l 108 833 m 457 833 l 457 822 q 447 822 457 822 q 438 822 438 822 q 395 806 413 822 q 378 763 378 789 l 375 763 l 375 833 l 457 833 m 782 833 l 782 763 l 779 763 q 760 806 778 789 q 718 822 743 822 q 709 822 718 822 q 700 822 700 822 l 700 833 l 782 833 m 968 833 l 968 822 q 959 822 968 822 q 950 822 950 822 q 907 806 925 822 q 889 763 889 789 l 886 763 l 886 833 l 968 833 z "},"ū":{"ha":983,"x_min":26,"x_max":968,"o":"m 378 833 l 378 310 q 431 119 378 188 q 581 50 485 50 q 726 115 675 50 q 779 294 778 179 l 779 833 l 889 833 l 889 310 q 799 70 889 157 q 538 -17 708 -17 q 208 69 311 -17 q 106 307 106 156 l 106 833 l 378 833 m 108 833 l 108 763 l 106 763 q 88 806 106 789 q 44 822 69 822 q 35 822 44 822 q 26 822 26 822 l 26 833 l 108 833 m 457 833 l 457 822 q 447 822 457 822 q 438 822 438 822 q 395 806 413 822 q 378 763 378 789 l 375 763 l 375 833 l 457 833 m 782 833 l 782 763 l 779 763 q 760 806 778 789 q 718 822 743 822 q 709 822 718 822 q 700 822 700 822 l 700 833 l 782 833 m 968 833 l 968 822 q 959 822 968 822 q 950 822 950 822 q 907 806 925 822 q 889 763 889 789 l 886 763 l 886 833 l 968 833 z "},"ų":{"ha":983,"x_min":26,"x_max":968,"o":"m 378 833 l 378 310 q 431 119 378 188 q 581 50 485 50 q 726 115 675 50 q 779 294 778 179 l 779 833 l 889 833 l 889 310 q 799 70 889 157 q 538 -17 708 -17 q 208 69 311 -17 q 106 307 106 156 l 106 833 l 378 833 m 108 833 l 108 763 l 106 763 q 88 806 106 789 q 44 822 69 822 q 35 822 44 822 q 26 822 26 822 l 26 833 l 108 833 m 457 833 l 457 822 q 447 822 457 822 q 438 822 438 822 q 395 806 413 822 q 378 763 378 789 l 375 763 l 375 833 l 457 833 m 782 833 l 782 763 l 779 763 q 760 806 778 789 q 718 822 743 822 q 709 822 718 822 q 700 822 700 822 l 700 833 l 782 833 m 968 833 l 968 822 q 959 822 968 822 q 950 822 950 822 q 907 806 925 822 q 889 763 889 789 l 886 763 l 886 833 l 968 833 z "},"ů":{"ha":983,"x_min":26,"x_max":968,"o":"m 378 833 l 378 310 q 431 119 378 188 q 581 50 485 50 q 726 115 675 50 q 779 294 778 179 l 779 833 l 889 833 l 889 310 q 799 70 889 157 q 538 -17 708 -17 q 208 69 311 -17 q 106 307 106 156 l 106 833 l 378 833 m 108 833 l 108 763 l 106 763 q 88 806 106 789 q 44 822 69 822 q 35 822 44 822 q 26 822 26 822 l 26 833 l 108 833 m 457 833 l 457 822 q 447 822 457 822 q 438 822 438 822 q 395 806 413 822 q 378 763 378 789 l 375 763 l 375 833 l 457 833 m 782 833 l 782 763 l 779 763 q 760 806 778 789 q 718 822 743 822 q 709 822 718 822 q 700 822 700 822 l 700 833 l 782 833 m 968 833 l 968 822 q 959 822 968 822 q 950 822 950 822 q 907 806 925 822 q 889 763 889 789 l 886 763 l 886 833 l 968 833 z "},"v":{"ha":861,"x_min":-58,"x_max":921,"o":"m 443 -17 l 18 826 l 336 826 l 561 324 l 443 -17 m 443 -17 l 440 188 l 731 829 l 842 829 l 526 169 q 510 133 521 157 q 487 80 499 108 q 466 26 475 51 q 454 -17 457 0 l 443 -17 m 693 747 q 690 802 708 783 q 647 821 671 821 l 636 821 l 636 833 l 921 833 l 921 819 q 915 819 921 819 q 910 819 910 819 q 853 803 883 819 q 803 747 822 788 l 693 747 m 371 747 l 58 747 q 9 803 39 788 q -49 819 -21 819 q -53 819 -49 819 q -58 819 -58 819 l -58 833 l 429 833 l 429 821 l 418 821 q 376 802 396 821 q 371 747 357 783 z "},"w":{"ha":1182,"x_min":-44,"x_max":1226,"o":"m 40 825 l 324 825 l 486 453 l 367 -14 l 40 825 m 693 851 l 728 714 l 411 117 q 403 98 411 117 q 386 49 394 79 q 378 -14 378 19 l 367 -14 l 322 160 l 683 851 l 693 851 m 693 851 l 969 389 l 883 -14 l 574 510 l 693 851 m 1136 825 l 910 117 q 904 97 910 117 q 894 46 899 76 q 894 -14 890 15 l 883 -14 l 831 103 l 1040 825 l 1136 825 m 1018 749 q 1011 802 1026 785 q 971 819 996 819 l 961 819 l 961 833 l 1226 833 l 1226 819 q 1222 819 1226 819 q 1217 819 1217 819 q 1157 803 1190 819 q 1111 747 1124 788 l 1018 749 m 357 747 l 69 747 q 24 803 54 788 q -35 819 -7 819 q -40 819 -35 819 q -44 819 -44 819 l -44 833 l 413 833 l 413 819 l 400 819 q 360 801 378 819 q 357 747 343 783 z "},"ẃ":{"ha":1182,"x_min":-44,"x_max":1226,"o":"m 40 825 l 324 825 l 486 453 l 367 -14 l 40 825 m 693 851 l 728 714 l 411 117 q 403 98 411 117 q 386 49 394 79 q 378 -14 378 19 l 367 -14 l 322 160 l 683 851 l 693 851 m 693 851 l 969 389 l 883 -14 l 574 510 l 693 851 m 1136 825 l 910 117 q 904 97 910 117 q 894 46 899 76 q 894 -14 890 15 l 883 -14 l 831 103 l 1040 825 l 1136 825 m 1018 749 q 1011 802 1026 785 q 971 819 996 819 l 961 819 l 961 833 l 1226 833 l 1226 819 q 1222 819 1226 819 q 1217 819 1217 819 q 1157 803 1190 819 q 1111 747 1124 788 l 1018 749 m 357 747 l 69 747 q 24 803 54 788 q -35 819 -7 819 q -40 819 -35 819 q -44 819 -44 819 l -44 833 l 413 833 l 413 819 l 400 819 q 360 801 378 819 q 357 747 343 783 z "},"ŵ":{"ha":1182,"x_min":-44,"x_max":1226,"o":"m 40 825 l 324 825 l 486 453 l 367 -14 l 40 825 m 693 851 l 728 714 l 411 117 q 403 98 411 117 q 386 49 394 79 q 378 -14 378 19 l 367 -14 l 322 160 l 683 851 l 693 851 m 693 851 l 969 389 l 883 -14 l 574 510 l 693 851 m 1136 825 l 910 117 q 904 97 910 117 q 894 46 899 76 q 894 -14 890 15 l 883 -14 l 831 103 l 1040 825 l 1136 825 m 1018 749 q 1011 802 1026 785 q 971 819 996 819 l 961 819 l 961 833 l 1226 833 l 1226 819 q 1222 819 1226 819 q 1217 819 1217 819 q 1157 803 1190 819 q 1111 747 1124 788 l 1018 749 m 357 747 l 69 747 q 24 803 54 788 q -35 819 -7 819 q -40 819 -35 819 q -44 819 -44 819 l -44 833 l 413 833 l 413 819 l 400 819 q 360 801 378 819 q 357 747 343 783 z "},"ẅ":{"ha":1182,"x_min":-44,"x_max":1226,"o":"m 40 825 l 324 825 l 486 453 l 367 -14 l 40 825 m 693 851 l 728 714 l 411 117 q 403 98 411 117 q 386 49 394 79 q 378 -14 378 19 l 367 -14 l 322 160 l 683 851 l 693 851 m 693 851 l 969 389 l 883 -14 l 574 510 l 693 851 m 1136 825 l 910 117 q 904 97 910 117 q 894 46 899 76 q 894 -14 890 15 l 883 -14 l 831 103 l 1040 825 l 1136 825 m 1018 749 q 1011 802 1026 785 q 971 819 996 819 l 961 819 l 961 833 l 1226 833 l 1226 819 q 1222 819 1226 819 q 1217 819 1217 819 q 1157 803 1190 819 q 1111 747 1124 788 l 1018 749 m 357 747 l 69 747 q 24 803 54 788 q -35 819 -7 819 q -40 819 -35 819 q -44 819 -44 819 l -44 833 l 413 833 l 413 819 l 400 819 q 360 801 378 819 q 357 747 343 783 z "},"ẁ":{"ha":1182,"x_min":-44,"x_max":1226,"o":"m 40 825 l 324 825 l 486 453 l 367 -14 l 40 825 m 693 851 l 728 714 l 411 117 q 403 98 411 117 q 386 49 394 79 q 378 -14 378 19 l 367 -14 l 322 160 l 683 851 l 693 851 m 693 851 l 969 389 l 883 -14 l 574 510 l 693 851 m 1136 825 l 910 117 q 904 97 910 117 q 894 46 899 76 q 894 -14 890 15 l 883 -14 l 831 103 l 1040 825 l 1136 825 m 1018 749 q 1011 802 1026 785 q 971 819 996 819 l 961 819 l 961 833 l 1226 833 l 1226 819 q 1222 819 1226 819 q 1217 819 1217 819 q 1157 803 1190 819 q 1111 747 1124 788 l 1018 749 m 357 747 l 69 747 q 24 803 54 788 q -35 819 -7 819 q -40 819 -35 819 q -44 819 -44 819 l -44 833 l 413 833 l 413 819 l 400 819 q 360 801 378 819 q 357 747 343 783 z "},"x":{"ha":925,"x_min":-33,"x_max":960,"o":"m 367 833 l 876 1 l 568 1 l 61 833 l 367 833 m 221 83 q 219 36 203 58 q 260 14 236 14 q 267 14 260 14 q 274 14 274 14 l 274 0 l -33 0 l -33 14 l -17 14 q 49 33 19 14 q 99 79 78 53 l 221 83 m 353 419 l 432 376 l 161 1 l 44 7 l 353 419 m 518 83 l 829 79 q 877 33 846 53 q 944 14 908 14 l 960 14 l 960 0 l 464 0 l 464 14 q 471 14 464 14 q 478 14 478 14 q 517 36 501 14 q 518 83 533 58 m 471 836 l 471 822 q 464 822 471 822 q 457 822 457 822 q 418 799 433 822 q 417 753 403 776 l 108 757 q 60 803 92 783 q -7 822 29 822 l -22 822 l -22 836 l 471 836 m 846 833 l 554 394 l 501 475 l 731 833 l 846 833 m 926 836 l 926 822 l 910 822 q 844 803 875 822 q 794 757 813 783 l 679 753 q 679 799 694 776 q 640 822 664 822 q 633 822 640 822 q 626 822 626 822 l 626 836 l 926 836 z "},"y":{"ha":879,"x_min":-67,"x_max":950,"o":"m 314 832 l 579 383 l 311 381 l 17 832 l 314 832 m 579 390 l 579 0 l 307 0 l 307 386 l 579 390 m 753 832 l 864 832 l 563 363 l 488 374 l 753 832 m 704 749 q 703 797 719 774 q 663 819 688 819 q 655 819 663 819 q 647 819 647 819 l 647 833 l 950 833 l 950 819 l 932 819 q 863 800 894 819 q 813 753 832 781 l 704 749 m 364 749 l 69 753 q 19 800 51 781 q -50 819 -12 819 l -67 819 l -67 833 l 419 833 l 419 819 q 413 819 419 819 q 406 819 406 819 q 365 797 379 819 q 364 749 350 774 m 311 86 l 311 0 l 215 0 l 215 14 q 223 14 215 14 q 232 14 231 14 q 285 35 263 14 q 307 86 307 56 l 311 86 m 576 86 l 579 86 q 603 35 581 56 q 656 14 625 14 q 663 14 656 14 q 671 14 671 14 l 671 0 l 576 0 l 576 86 z "},"ý":{"ha":879,"x_min":-67,"x_max":950,"o":"m 314 832 l 579 383 l 311 381 l 17 832 l 314 832 m 579 390 l 579 0 l 307 0 l 307 386 l 579 390 m 753 832 l 864 832 l 563 363 l 488 374 l 753 832 m 704 749 q 703 797 719 774 q 663 819 688 819 q 655 819 663 819 q 647 819 647 819 l 647 833 l 950 833 l 950 819 l 932 819 q 863 800 894 819 q 813 753 832 781 l 704 749 m 364 749 l 69 753 q 19 800 51 781 q -50 819 -12 819 l -67 819 l -67 833 l 419 833 l 419 819 q 413 819 419 819 q 406 819 406 819 q 365 797 379 819 q 364 749 350 774 m 311 86 l 311 0 l 215 0 l 215 14 q 223 14 215 14 q 232 14 231 14 q 285 35 263 14 q 307 86 307 56 l 311 86 m 576 86 l 579 86 q 603 35 581 56 q 656 14 625 14 q 663 14 656 14 q 671 14 671 14 l 671 0 l 576 0 l 576 86 z "},"ŷ":{"ha":879,"x_min":-67,"x_max":950,"o":"m 314 832 l 579 383 l 311 381 l 17 832 l 314 832 m 579 390 l 579 0 l 307 0 l 307 386 l 579 390 m 753 832 l 864 832 l 563 363 l 488 374 l 753 832 m 704 749 q 703 797 719 774 q 663 819 688 819 q 655 819 663 819 q 647 819 647 819 l 647 833 l 950 833 l 950 819 l 932 819 q 863 800 894 819 q 813 753 832 781 l 704 749 m 364 749 l 69 753 q 19 800 51 781 q -50 819 -12 819 l -67 819 l -67 833 l 419 833 l 419 819 q 413 819 419 819 q 406 819 406 819 q 365 797 379 819 q 364 749 350 774 m 311 86 l 311 0 l 215 0 l 215 14 q 223 14 215 14 q 232 14 231 14 q 285 35 263 14 q 307 86 307 56 l 311 86 m 576 86 l 579 86 q 603 35 581 56 q 656 14 625 14 q 663 14 656 14 q 671 14 671 14 l 671 0 l 576 0 l 576 86 z "},"ÿ":{"ha":879,"x_min":-67,"x_max":950,"o":"m 314 832 l 579 383 l 311 381 l 17 832 l 314 832 m 579 390 l 579 0 l 307 0 l 307 386 l 579 390 m 753 832 l 864 832 l 563 363 l 488 374 l 753 832 m 704 749 q 703 797 719 774 q 663 819 688 819 q 655 819 663 819 q 647 819 647 819 l 647 833 l 950 833 l 950 819 l 932 819 q 863 800 894 819 q 813 753 832 781 l 704 749 m 364 749 l 69 753 q 19 800 51 781 q -50 819 -12 819 l -67 819 l -67 833 l 419 833 l 419 819 q 413 819 419 819 q 406 819 406 819 q 365 797 379 819 q 364 749 350 774 m 311 86 l 311 0 l 215 0 l 215 14 q 223 14 215 14 q 232 14 231 14 q 285 35 263 14 q 307 86 307 56 l 311 86 m 576 86 l 579 86 q 603 35 581 56 q 656 14 625 14 q 663 14 656 14 q 671 14 671 14 l 671 0 l 576 0 l 576 86 z "},"ỳ":{"ha":879,"x_min":-67,"x_max":950,"o":"m 314 832 l 579 383 l 311 381 l 17 832 l 314 832 m 579 390 l 579 0 l 307 0 l 307 386 l 579 390 m 753 832 l 864 832 l 563 363 l 488 374 l 753 832 m 704 749 q 703 797 719 774 q 663 819 688 819 q 655 819 663 819 q 647 819 647 819 l 647 833 l 950 833 l 950 819 l 932 819 q 863 800 894 819 q 813 753 832 781 l 704 749 m 364 749 l 69 753 q 19 800 51 781 q -50 819 -12 819 l -67 819 l -67 833 l 419 833 l 419 819 q 413 819 419 819 q 406 819 406 819 q 365 797 379 819 q 364 749 350 774 m 311 86 l 311 0 l 215 0 l 215 14 q 223 14 215 14 q 232 14 231 14 q 285 35 263 14 q 307 86 307 56 l 311 86 m 576 86 l 579 86 q 603 35 581 56 q 656 14 625 14 q 663 14 656 14 q 671 14 671 14 l 671 0 l 576 0 l 576 86 z "},"z":{"ha":842,"x_min":35,"x_max":831,"o":"m 801 850 q 801 845 801 850 q 801 840 801 840 l 367 0 l 35 0 l 35 11 l 453 771 l 53 771 l 53 835 l 669 835 q 722 837 694 835 q 772 843 750 839 q 801 850 794 847 m 771 63 l 763 0 l 128 0 l 128 63 l 771 63 m 831 292 l 781 0 l 501 0 l 549 63 q 665 90 611 63 q 758 168 718 117 q 817 292 797 219 l 831 292 m 53 775 l 233 775 l 233 771 q 110 726 153 771 q 67 600 67 681 l 67 594 l 53 594 l 53 775 m 53 856 q 90 847 64 851 q 146 838 115 842 q 203 835 176 835 l 53 821 l 53 856 z "},"ź":{"ha":842,"x_min":35,"x_max":831,"o":"m 801 850 q 801 845 801 850 q 801 840 801 840 l 367 0 l 35 0 l 35 11 l 453 771 l 53 771 l 53 835 l 669 835 q 722 837 694 835 q 772 843 750 839 q 801 850 794 847 m 771 63 l 763 0 l 128 0 l 128 63 l 771 63 m 831 292 l 781 0 l 501 0 l 549 63 q 665 90 611 63 q 758 168 718 117 q 817 292 797 219 l 831 292 m 53 775 l 233 775 l 233 771 q 110 726 153 771 q 67 600 67 681 l 67 594 l 53 594 l 53 775 m 53 856 q 90 847 64 851 q 146 838 115 842 q 203 835 176 835 l 53 821 l 53 856 z "},"ž":{"ha":842,"x_min":35,"x_max":831,"o":"m 801 850 q 801 845 801 850 q 801 840 801 840 l 367 0 l 35 0 l 35 11 l 453 771 l 53 771 l 53 835 l 669 835 q 722 837 694 835 q 772 843 750 839 q 801 850 794 847 m 771 63 l 763 0 l 128 0 l 128 63 l 771 63 m 831 292 l 781 0 l 501 0 l 549 63 q 665 90 611 63 q 758 168 718 117 q 817 292 797 219 l 831 292 m 53 775 l 233 775 l 233 771 q 110 726 153 771 q 67 600 67 681 l 67 594 l 53 594 l 53 775 m 53 856 q 90 847 64 851 q 146 838 115 842 q 203 835 176 835 l 53 821 l 53 856 z "},"ż":{"ha":842,"x_min":35,"x_max":831,"o":"m 801 850 q 801 845 801 850 q 801 840 801 840 l 367 0 l 35 0 l 35 11 l 453 771 l 53 771 l 53 835 l 669 835 q 722 837 694 835 q 772 843 750 839 q 801 850 794 847 m 771 63 l 763 0 l 128 0 l 128 63 l 771 63 m 831 292 l 781 0 l 501 0 l 549 63 q 665 90 611 63 q 758 168 718 117 q 817 292 797 219 l 831 292 m 53 775 l 233 775 l 233 771 q 110 726 153 771 q 67 600 67 681 l 67 594 l 53 594 l 53 775 m 53 856 q 90 847 64 851 q 146 838 115 842 q 203 835 176 835 l 53 821 l 53 856 z "},"ﬁ":{"ha":1257,"x_min":29,"x_max":1228,"o":"m 389 833 l 389 0 l 117 0 l 117 833 l 389 833 m 647 443 l 647 378 l 386 378 l 386 443 l 647 443 m 708 833 l 708 769 l 386 769 l 386 833 l 708 833 m 647 381 l 647 231 l 633 231 l 633 236 q 595 337 633 297 q 494 378 557 376 l 494 381 l 647 381 m 647 589 l 647 440 l 494 440 l 494 443 q 595 485 557 444 q 633 586 633 525 l 633 589 l 647 589 m 708 774 l 708 589 l 694 589 l 694 597 q 652 723 694 678 q 529 769 610 768 l 529 774 l 708 774 m 708 854 l 708 821 l 571 833 q 624 837 596 833 q 675 845 651 840 q 708 854 699 850 m 121 86 l 119 0 l 29 0 l 29 14 q 36 14 29 14 q 44 14 43 14 q 95 35 74 14 q 117 86 117 56 l 121 86 m 121 746 l 117 746 q 95 799 117 778 q 44 819 74 819 q 36 819 43 819 q 29 819 29 819 l 29 833 l 119 833 l 121 746 m 386 86 l 389 86 q 411 35 390 56 q 463 14 432 14 q 469 14 463 14 q 478 14 476 14 l 476 0 l 388 0 l 386 86 m 1140 833 l 1140 0 l 868 0 l 868 833 l 1140 833 m 872 86 l 872 0 l 782 0 l 782 14 q 789 14 782 14 q 797 14 796 14 q 847 35 825 14 q 868 86 868 56 l 872 86 m 1138 86 l 1140 86 q 1163 35 1142 56 q 1213 14 1183 14 q 1219 14 1213 14 q 1228 14 1226 14 l 1228 0 l 1138 0 l 1138 86 m 1138 747 l 1138 833 l 1226 833 l 1226 819 q 1220 819 1226 819 q 1213 819 1214 819 q 1163 799 1183 819 q 1140 747 1142 779 l 1138 747 m 872 747 l 868 747 q 847 799 868 779 q 797 819 825 819 q 789 819 796 819 q 782 819 782 819 l 782 833 l 872 833 l 872 747 z "},"ﬂ":{"ha":1526,"x_min":29,"x_max":1533,"o":"m 389 833 l 389 0 l 117 0 l 117 833 l 389 833 m 647 443 l 647 378 l 386 378 l 386 443 l 647 443 m 708 833 l 708 769 l 386 769 l 386 833 l 708 833 m 647 381 l 647 231 l 633 231 l 633 236 q 595 337 633 297 q 494 378 557 376 l 494 381 l 647 381 m 647 589 l 647 440 l 494 440 l 494 443 q 595 485 557 444 q 633 586 633 525 l 633 589 l 647 589 m 708 774 l 708 589 l 694 589 l 694 597 q 652 723 694 678 q 529 769 610 768 l 529 774 l 708 774 m 708 854 l 708 821 l 571 833 q 624 837 596 833 q 675 845 651 840 q 708 854 699 850 m 121 86 l 119 0 l 29 0 l 29 14 q 36 14 29 14 q 44 14 43 14 q 95 35 74 14 q 117 86 117 56 l 121 86 m 121 746 l 117 746 q 95 799 117 778 q 44 819 74 819 q 36 819 43 819 q 29 819 29 819 l 29 833 l 119 833 l 121 746 m 386 86 l 389 86 q 411 35 390 56 q 463 14 432 14 q 469 14 463 14 q 478 14 476 14 l 476 0 l 388 0 l 386 86 m 1142 833 l 1142 0 l 869 0 l 869 833 l 1142 833 m 1433 64 l 1490 0 l 1139 0 l 1139 64 l 1433 64 m 1533 292 l 1493 0 l 1235 0 l 1275 64 q 1378 91 1329 64 q 1465 169 1428 118 q 1519 292 1503 219 l 1533 292 m 874 86 l 872 0 l 782 0 l 782 14 q 789 14 782 14 q 797 14 796 14 q 848 35 826 14 q 869 86 869 56 l 874 86 m 1139 747 l 1139 833 l 1231 833 l 1231 819 q 1222 819 1229 819 q 1215 819 1215 819 q 1164 799 1185 819 q 1142 747 1143 779 l 1139 747 m 874 747 l 869 747 q 848 799 869 779 q 797 819 826 819 q 789 819 796 819 q 782 819 782 819 l 782 833 l 874 833 l 874 747 z "},"Δ":{"ha":906,"x_min":7,"x_max":899,"o":"m 460 992 l 899 14 l 899 0 l 7 0 l 7 14 l 446 992 l 460 992 m 403 739 l 110 69 l 692 69 l 403 739 z "},"Ω":{"ha":1221,"x_min":28,"x_max":1194,"o":"m 1111 0 l 669 0 l 642 243 q 744 292 699 263 q 824 363 790 321 q 875 463 857 406 q 893 596 893 521 q 872 725 893 665 q 813 829 851 785 q 724 898 775 874 q 614 922 674 922 q 501 897 553 922 q 410 828 449 872 q 349 722 371 783 q 328 590 328 661 q 359 425 328 494 q 446 311 390 356 q 576 243 501 267 l 549 0 l 108 0 l 108 243 l 465 243 q 303 267 381 243 q 165 336 225 290 q 71 447 106 382 q 36 596 36 513 q 79 756 36 683 q 201 881 122 828 q 384 963 279 933 q 613 992 489 992 q 840 962 736 992 q 1022 878 944 932 q 1142 753 1099 825 q 1185 596 1185 681 q 1151 447 1185 513 q 1057 335 1117 381 q 919 267 997 290 q 753 243 842 243 l 1111 243 l 1111 0 m 42 361 q 88 291 67 317 q 136 254 108 265 q 204 243 164 243 l 219 243 l 219 0 l 94 0 l 28 361 l 42 361 m 1194 361 l 1128 0 l 1003 0 l 1003 243 l 1017 243 q 1085 254 1058 243 q 1134 291 1113 265 q 1181 361 1156 317 l 1194 361 z "},"μ":{"ha":1186,"x_min":-26,"x_max":1213,"o":"m 985 850 l 996 674 l 590 110 q 576 88 590 110 q 550 35 563 67 q 539 -31 538 3 l 528 -31 l 451 100 l 985 850 m 106 86 l 106 0 l -26 0 l -26 14 q -17 14 -25 14 q -8 14 -8 14 q 50 33 25 14 q 81 86 75 51 l 106 86 m 178 67 q 187 35 176 56 q 224 14 197 14 l 243 14 l 243 0 l 157 0 l 171 67 l 178 67 m 189 850 l 199 850 l 258 683 l 169 0 l 69 0 l 189 850 m 199 850 l 632 307 l 528 -31 l 161 426 l 199 850 m 997 850 l 1119 0 l 838 0 l 782 382 l 985 850 l 997 850 m 1081 86 l 1107 86 q 1138 33 1114 51 q 1193 14 1163 14 q 1203 14 1193 14 q 1213 14 1213 14 l 1213 0 l 1081 0 l 1081 86 m 828 67 l 835 67 l 849 0 l 763 0 l 763 14 l 782 14 q 820 34 811 14 q 828 67 829 54 z "},"π":{"ha":1088,"x_min":35,"x_max":1054,"o":"m 410 833 l 410 0 l 126 0 l 126 833 l 410 833 m 131 89 l 131 0 l 35 0 l 35 14 q 42 14 35 14 q 50 14 50 14 q 104 36 82 14 q 126 89 126 58 l 131 89 m 407 89 l 410 89 q 433 36 411 58 q 488 14 456 14 q 494 14 488 14 q 501 14 501 14 l 503 0 l 407 0 l 407 89 m 131 744 l 126 744 q 104 798 126 776 q 50 819 82 819 q 42 819 50 819 q 35 819 35 819 l 35 833 l 131 833 l 131 744 m 963 833 l 963 0 l 679 0 l 679 833 l 963 833 m 682 89 l 682 0 l 586 0 l 588 14 q 594 14 588 14 q 601 14 601 14 q 656 36 633 14 q 679 89 678 58 l 682 89 m 958 89 l 963 89 q 985 36 963 58 q 1039 14 1008 14 q 1047 14 1039 14 q 1054 14 1054 14 l 1054 0 l 958 0 l 958 89 m 958 744 l 958 833 l 1054 833 l 1054 819 q 1047 819 1054 819 q 1039 819 1039 819 q 985 798 1008 819 q 963 744 963 776 l 958 744 m 711 764 l 682 764 l 682 689 l 679 689 q 656 742 678 719 q 604 764 635 764 l 485 764 q 433 742 454 764 q 410 689 411 719 l 407 689 l 407 764 l 374 764 l 374 833 l 711 833 l 711 764 z "},"⁄":{"ha":833,"x_min":28,"x_max":757,"o":"m 28 15 l 94 -28 l 757 960 l 692 1004 l 28 15 z "},"½":{"ha":1181,"x_min":28,"x_max":1125,"o":"m 351 428 l 351 436 l 335 436 q 306 447 318 436 q 293 476 293 458 l 293 993 l 286 993 q 224 973 261 982 q 148 958 188 964 q 76 948 108 951 q 28 944 43 944 l 28 938 l 33 938 q 75 926 60 938 q 90 878 90 914 l 90 476 q 78 448 90 460 q 49 436 67 436 l 33 436 l 33 428 l 351 428 m 135 15 l 201 -28 l 864 960 l 799 1004 l 135 15 m 694 349 l 626 508 q 727 556 665 540 q 853 571 789 571 q 973 553 919 571 q 1058 500 1026 535 q 1090 415 1090 465 q 1068 334 1090 372 q 1013 265 1046 296 q 943 210 979 233 q 879 175 907 188 l 1008 175 q 1070 197 1042 175 q 1118 261 1099 218 l 1125 261 l 1068 0 l 638 0 l 638 7 q 724 124 681 67 q 801 235 767 181 q 858 340 836 289 q 879 440 879 392 q 855 506 879 482 q 789 526 831 531 q 724 476 744 521 q 703 349 703 432 l 694 349 z "},"¼":{"ha":1082,"x_min":42,"x_max":1042,"o":"m 365 428 l 365 436 l 349 436 q 319 447 332 436 q 307 476 307 458 l 307 993 l 300 993 q 238 973 275 982 q 162 958 201 964 q 90 948 122 951 q 42 944 57 944 l 42 938 l 47 938 q 89 926 74 938 q 104 878 104 914 l 104 476 q 92 448 104 460 q 63 436 81 436 l 47 436 l 47 428 l 365 428 m 179 15 l 246 -28 l 908 960 l 843 1004 l 179 15 m 740 371 l 932 568 l 940 568 l 940 1 l 740 1 l 740 371 m 932 568 l 939 496 l 635 229 l 976 229 q 1013 239 1000 229 q 1033 267 1025 249 l 1042 267 l 1013 128 l 471 128 l 471 136 l 932 568 m 940 54 q 954 22 940 36 q 986 8 968 8 l 996 8 l 996 0 l 685 0 l 685 8 l 694 8 q 727 22 714 8 q 740 54 740 35 l 940 54 z "},"¾":{"ha":1158,"x_min":28,"x_max":1132,"o":"m 243 992 q 397 956 342 990 q 451 857 451 922 q 429 788 451 813 q 376 757 407 764 q 314 758 344 750 q 381 746 343 758 q 448 701 419 733 q 476 604 476 668 q 433 482 476 529 q 322 415 389 435 q 178 405 254 396 q 38 449 103 414 l 39 456 q 154 472 101 454 q 240 528 207 490 q 272 619 272 565 q 250 694 272 667 q 197 735 228 722 q 139 747 167 747 l 140 754 q 228 792 193 753 q 257 882 263 831 q 222 940 251 926 q 165 949 193 953 q 106 905 122 943 q 90 785 89 867 l 83 785 l 28 939 q 118 978 61 964 q 243 992 175 993 m 254 15 l 321 -28 l 983 960 l 918 1004 l 254 15 m 831 371 l 1022 568 l 1031 568 l 1031 1 l 831 1 l 831 371 m 1022 568 l 1029 496 l 725 229 l 1067 229 q 1103 239 1090 229 q 1124 267 1115 249 l 1132 267 l 1103 128 l 561 128 l 561 136 l 1022 568 m 1031 54 q 1044 22 1031 36 q 1076 8 1058 8 l 1086 8 l 1086 0 l 775 0 l 775 8 l 785 8 q 817 22 804 8 q 831 54 831 35 l 1031 54 z "},"¹":{"ha":406,"x_min":42,"x_max":365,"o":"m 365 428 l 365 436 l 349 436 q 319 447 332 436 q 307 476 307 458 l 307 993 l 300 993 q 238 973 275 982 q 162 958 201 964 q 90 948 122 951 q 42 944 57 944 l 42 938 l 47 938 q 89 926 74 938 q 104 878 104 914 l 104 476 q 92 448 104 460 q 63 436 81 436 l 47 436 l 47 428 l 365 428 z "},"²":{"ha":582,"x_min":42,"x_max":540,"o":"m 110 776 l 42 936 q 142 983 81 968 q 268 999 204 999 q 388 981 335 999 q 474 928 442 963 q 506 843 506 893 q 483 762 506 800 q 428 692 461 724 q 358 638 394 661 q 294 603 322 615 l 424 603 q 485 624 457 603 q 533 689 514 646 l 540 689 l 483 428 l 53 428 l 53 435 q 139 551 96 494 q 217 663 182 608 q 273 768 251 717 q 294 868 294 819 q 270 934 294 910 q 204 954 246 958 q 139 904 160 949 q 118 776 118 860 l 110 776 z "},"³":{"ha":518,"x_min":28,"x_max":476,"o":"m 243 992 q 397 956 342 990 q 451 857 451 922 q 429 788 451 813 q 376 757 407 764 q 314 758 344 750 q 381 746 343 758 q 448 701 419 733 q 476 604 476 668 q 433 482 476 529 q 322 415 389 435 q 178 405 254 396 q 38 449 103 414 l 39 456 q 154 472 101 454 q 240 528 207 490 q 272 619 272 565 q 250 694 272 667 q 197 735 228 722 q 139 747 167 747 l 140 754 q 228 792 193 753 q 257 882 263 831 q 222 940 251 926 q 165 949 193 953 q 106 905 122 943 q 90 785 89 867 l 83 785 l 28 939 q 118 978 61 964 q 243 992 175 993 z "},"ª":{"ha":542,"x_min":-7,"x_max":549,"o":"m 263 986 l 506 528 l 315 528 l 192 783 l 263 986 m 117 568 q 118 540 107 550 q 143 529 129 529 l 150 529 l 150 524 l -7 524 l -7 529 q -4 529 -7 529 q -1 529 -1 529 q 32 538 15 529 q 58 568 49 547 l 117 568 m 263 986 l 261 867 l 96 525 l 38 525 l 215 882 q 230 913 221 893 q 247 954 239 933 q 257 986 256 975 l 263 986 m 310 646 l 310 610 l 119 610 l 119 646 l 310 646 m 296 568 l 483 568 q 511 538 494 547 q 543 529 528 529 q 546 529 543 529 q 549 529 549 529 l 549 524 l 264 524 l 264 529 l 271 529 q 294 540 283 529 q 296 568 306 550 z "},"º":{"ha":556,"x_min":28,"x_max":528,"o":"m 278 986 q 415 959 360 986 q 499 881 471 932 q 528 754 528 829 q 499 628 528 681 q 415 550 471 576 q 278 524 360 524 q 141 550 197 524 q 56 628 85 576 q 28 754 28 681 q 56 881 28 829 q 141 959 85 932 q 278 986 197 986 m 278 560 q 341 610 322 560 q 360 754 360 661 q 341 899 360 849 q 278 950 322 950 q 230 927 249 950 q 203 861 211 904 q 194 754 194 818 q 203 649 194 692 q 230 583 211 606 q 278 560 249 560 z "},"*":{"ha":542,"x_min":49,"x_max":494,"o":"m 407 658 l 336 631 l 283 732 l 271 833 l 281 840 l 374 797 l 456 717 l 407 658 m 136 657 l 89 717 l 169 797 l 263 840 l 271 833 l 260 732 l 208 631 l 136 657 m 53 914 l 94 978 l 196 926 l 265 851 l 263 840 l 161 821 l 49 839 l 53 914 m 271 1074 l 344 1054 l 328 942 l 278 851 l 265 851 l 217 942 l 197 1054 l 271 1074 m 490 915 l 494 839 l 381 821 l 281 840 l 278 851 l 347 926 l 449 979 l 490 915 m 276 853 l 281 850 l 282 842 l 281 839 l 272 833 q 269 833 271 833 q 268 833 268 833 l 261 839 l 261 843 l 264 851 l 268 853 l 276 853 z "},"\\":{"ha":610,"x_min":14,"x_max":597,"o":"m 96 1004 l 597 19 l 515 -19 l 14 968 l 96 1004 z "},"•":{"ha":540,"x_min":65,"x_max":472,"o":"m 299 267 q 243 267 269 257 q 172 294 199 282 q 130 322 146 306 q 102 364 114 338 q 75 435 90 390 q 75 490 65 461 q 102 561 90 535 q 130 603 114 588 q 172 632 146 619 q 243 658 199 644 q 299 658 269 668 q 369 632 343 644 q 412 603 396 619 q 440 561 428 588 q 467 490 453 535 q 472 462 472 475 q 465 431 471 449 q 440 362 451 388 q 412 320 428 336 q 369 293 396 304 q 299 267 343 282 z "},":":{"ha":347,"x_min":49,"x_max":299,"o":"m 174 513 q 85 549 122 513 q 49 638 49 586 q 85 726 49 690 q 174 763 122 763 q 263 726 226 763 q 299 638 299 690 q 263 549 299 586 q 174 513 226 513 m 174 -19 q 85 17 122 -19 q 49 106 49 54 q 85 194 49 158 q 174 231 122 231 q 263 194 226 231 q 299 106 299 158 q 263 17 299 54 q 174 -19 226 -19 z "},",":{"ha":361,"x_min":44,"x_max":319,"o":"m 94 207 q 165 230 126 231 q 240 209 204 229 q 292 150 275 189 q 311 26 319 89 q 267 -88 303 -37 q 178 -165 232 -139 q 63 -179 125 -192 l 57 -161 q 101 -124 82 -150 q 120 -62 121 -99 q 82 15 119 -26 q 51 81 57 44 q 56 153 44 118 q 94 207 68 188 z "},"…":{"ha":1028,"x_min":49,"x_max":979,"o":"m 514 -19 q 426 17 463 -19 q 389 106 389 54 q 426 194 389 158 q 514 231 463 231 q 603 194 567 231 q 639 106 639 158 q 603 17 639 54 q 514 -19 567 -19 m 854 -19 q 766 17 803 -19 q 729 106 729 54 q 766 194 729 158 q 854 231 803 231 q 943 194 907 231 q 979 106 979 158 q 943 17 979 54 q 854 -19 907 -19 m 174 -19 q 85 17 122 -19 q 49 106 49 54 q 85 194 49 158 q 174 231 122 231 q 263 194 226 231 q 299 106 299 158 q 263 17 299 54 q 174 -19 226 -19 z "},"!":{"ha":410,"x_min":63,"x_max":347,"o":"m 201 -19 q 113 17 150 -19 q 76 106 76 54 q 113 194 76 158 q 201 231 150 231 q 290 194 254 231 q 326 106 326 158 q 290 17 326 54 q 201 -19 254 -19 m 253 319 l 156 319 l 93 504 l 63 975 l 347 975 l 315 504 l 253 319 z "},"¡":{"ha":410,"x_min":63,"x_max":347,"o":"m 208 994 q 297 958 260 994 q 333 869 333 921 q 297 781 333 818 q 208 744 260 744 q 120 781 157 744 q 83 869 83 818 q 120 958 83 921 q 208 994 157 994 m 157 656 l 254 656 l 317 471 l 347 0 l 63 0 l 94 471 l 157 656 z "},"#":{"ha":833,"x_min":28,"x_max":758,"o":"m 294 972 l 381 972 l 210 0 l 124 0 l 294 972 m 572 972 l 658 972 l 488 0 l 401 0 l 572 972 m 758 690 l 758 607 l 89 607 l 89 690 l 758 690 m 697 385 l 697 301 l 28 301 l 28 385 l 697 385 z "},".":{"ha":347,"x_min":49,"x_max":299,"o":"m 174 -19 q 85 17 122 -19 q 49 106 49 54 q 85 194 49 158 q 174 231 122 231 q 263 194 226 231 q 299 106 299 158 q 263 17 299 54 q 174 -19 226 -19 z "},"·":{"ha":347,"x_min":49,"x_max":299,"o":"m 174 368 q 85 405 122 368 q 49 493 49 442 q 85 582 49 546 q 174 618 122 618 q 263 582 226 618 q 299 493 299 546 q 263 405 299 442 q 174 368 226 368 z "},"?":{"ha":685,"x_min":0,"x_max":643,"o":"m 0 868 q 113 957 32 922 q 307 992 193 992 q 557 927 471 992 q 643 746 643 863 q 635 683 643 711 q 612 628 628 654 q 572 578 596 603 q 514 526 547 553 q 439 468 481 499 q 387 426 411 447 q 355 376 363 404 q 368 307 347 347 l 356 299 q 253 358 296 314 q 217 471 210 401 q 235 528 221 506 q 267 572 249 551 q 304 615 286 592 q 334 672 322 638 q 344 758 346 706 q 311 880 343 838 q 218 922 279 922 q 119 871 154 922 q 83 708 83 819 l 69 708 l 0 868 m 314 -19 q 225 17 263 -19 q 188 106 188 54 q 225 194 188 158 q 314 231 263 231 q 401 194 365 231 q 438 106 438 158 q 401 17 438 54 q 314 -19 365 -19 z "},"¿":{"ha":726,"x_min":42,"x_max":685,"o":"m 685 104 q 574 15 654 50 q 378 -19 493 -19 q 128 45 214 -19 q 42 226 42 110 q 49 290 42 261 q 73 344 57 318 q 113 394 89 369 q 171 447 138 419 q 246 504 204 474 q 299 547 275 525 q 330 597 322 568 q 317 665 338 625 l 329 674 q 433 615 390 658 q 468 501 475 571 q 450 444 464 467 q 417 401 436 421 q 381 358 399 381 q 351 301 363 335 q 340 214 339 267 q 374 92 342 135 q 467 50 407 50 q 566 101 531 50 q 601 264 601 153 l 615 264 l 685 104 m 371 992 q 460 956 424 992 q 497 867 497 919 q 460 778 497 815 q 371 742 424 742 q 283 778 319 742 q 247 867 247 815 q 283 956 247 919 q 371 992 319 992 z "},"\"":{"ha":547,"x_min":42,"x_max":507,"o":"m 82 972 l 265 992 q 258 922 267 965 q 228 834 250 879 q 166 751 206 789 q 65 694 126 713 l 42 701 q 77 804 67 763 q 88 884 88 846 q 82 972 89 922 m 324 972 l 506 992 q 499 922 507 965 q 469 834 490 879 q 408 751 447 789 q 307 694 368 713 l 283 701 q 318 804 307 763 q 330 884 329 846 q 324 972 331 922 z "},"'":{"ha":306,"x_min":42,"x_max":267,"o":"m 82 972 l 265 992 q 258 922 267 965 q 228 834 250 879 q 166 751 206 789 q 65 694 126 713 l 42 701 q 77 804 67 763 q 88 884 88 846 q 82 972 89 922 z "},";":{"ha":361,"x_min":44,"x_max":319,"o":"m 94 207 q 165 230 126 231 q 240 209 204 229 q 292 150 275 189 q 311 26 319 89 q 267 -88 303 -37 q 178 -165 232 -139 q 63 -179 125 -192 l 57 -161 q 101 -124 82 -150 q 120 -62 121 -99 q 82 15 119 -26 q 51 81 57 44 q 56 153 44 118 q 94 207 68 188 m 174 551 q 85 588 122 551 q 49 676 49 625 q 85 765 49 729 q 174 801 122 801 q 263 765 226 801 q 299 676 299 729 q 263 588 299 625 q 174 551 226 551 z "},"/":{"ha":610,"x_min":14,"x_max":597,"o":"m 515 1004 l 597 968 l 96 -19 l 14 19 l 515 1004 z "},"_":{"ha":694,"x_min":0,"x_max":694,"o":"m 0 -83 l 694 -83 l 694 -153 l 0 -153 l 0 -83 z "},"{":{"ha":565,"x_min":118,"x_max":539,"o":"m 178 472 q 176 531 185 490 q 156 622 167 571 q 144 724 144 674 q 185 869 144 801 q 311 977 225 936 q 536 1018 397 1018 l 539 1007 q 453 953 475 990 q 430 862 431 915 q 429 744 429 808 q 415 582 429 639 q 374 499 400 525 q 313 462 347 472 q 238 439 278 451 q 313 413 278 428 q 374 370 347 399 q 415 290 400 342 q 429 153 429 239 q 424 57 429 103 q 422 -26 419 11 q 443 -89 424 -62 q 511 -128 463 -115 l 508 -139 q 290 -97 369 -139 q 178 10 211 -56 q 144 151 144 76 q 155 256 144 206 q 174 347 165 307 q 174 406 182 386 q 151 428 168 422 q 118 436 135 435 l 118 450 q 153 454 138 451 q 178 472 169 457 z "},"}":{"ha":565,"x_min":28,"x_max":449,"o":"m 31 1018 q 256 977 169 1018 q 382 869 342 936 q 422 724 422 801 q 411 622 422 674 q 391 531 400 571 q 389 472 382 490 q 413 454 396 457 q 449 450 431 451 l 449 436 q 416 428 432 435 q 393 406 400 422 q 394 347 386 386 q 412 256 401 307 q 422 151 422 206 q 389 10 422 76 q 276 -97 356 -56 q 58 -139 197 -139 l 56 -128 q 124 -89 104 -115 q 145 -26 143 -62 q 142 57 147 11 q 136 153 136 103 q 151 290 136 239 q 193 370 167 342 q 255 413 219 399 q 329 439 290 428 q 255 462 290 451 q 193 499 219 472 q 151 582 167 525 q 136 744 136 639 q 137 862 138 808 q 114 953 136 915 q 28 1007 92 990 l 31 1018 z "},"[":{"ha":656,"x_min":167,"x_max":600,"o":"m 167 1003 l 596 1003 l 596 989 l 451 919 l 451 -42 l 600 -111 l 600 -125 l 167 -125 l 167 1003 z "},"]":{"ha":656,"x_min":56,"x_max":489,"o":"m 489 1003 l 489 -125 l 56 -125 l 56 -111 l 204 -42 l 204 919 l 60 989 l 60 1003 l 489 1003 z "},"(":{"ha":664,"x_min":125,"x_max":624,"o":"m 624 1006 q 500 899 550 971 q 426 719 450 826 q 403 467 401 611 q 431 193 406 308 q 505 0 457 78 q 621 -126 553 -78 l 613 -139 q 392 -49 485 -108 q 241 92 300 11 q 153 269 182 174 q 125 464 125 364 q 153 667 125 572 q 242 835 182 761 q 394 956 301 908 q 615 1017 486 1003 l 624 1006 z "},")":{"ha":664,"x_min":42,"x_max":540,"o":"m 42 1006 l 50 1017 q 272 956 179 1003 q 424 835 364 908 q 512 667 483 761 q 540 464 540 572 q 512 269 540 364 q 424 92 483 174 q 273 -49 365 11 q 53 -139 181 -108 l 44 -126 q 160 0 113 -78 q 234 193 208 78 q 263 467 260 308 q 240 719 265 611 q 165 899 215 826 q 42 1006 115 971 z "},"—":{"ha":1111,"x_min":0,"x_max":1111,"o":"m 0 446 l 1111 446 l 1111 363 l 0 363 l 0 446 z "},"–":{"ha":694,"x_min":0,"x_max":694,"o":"m 0 446 l 694 446 l 694 363 l 0 363 l 0 446 z "},"-":{"ha":528,"x_min":42,"x_max":486,"o":"m 56 461 l 472 461 l 486 406 l 472 349 l 56 349 l 42 406 l 56 461 z "},"­":{"ha":528,"x_min":42,"x_max":486,"o":"m 56 461 l 472 461 l 486 406 l 472 349 l 56 349 l 42 406 l 56 461 z "},"«":{"ha":751,"x_min":56,"x_max":669,"o":"m 56 406 l 368 122 l 381 132 l 271 406 l 379 674 l 368 681 l 56 406 m 344 406 l 657 122 l 669 132 l 560 406 l 668 674 l 657 681 l 344 406 z "},"»":{"ha":751,"x_min":83,"x_max":697,"o":"m 697 406 l 385 681 l 374 674 l 482 406 l 372 132 l 385 122 l 697 406 m 408 406 l 96 681 l 85 674 l 193 406 l 83 132 l 96 122 l 408 406 z "},"‹":{"ha":463,"x_min":56,"x_max":381,"o":"m 56 406 l 368 122 l 381 132 l 271 406 l 379 674 l 368 681 l 56 406 z "},"›":{"ha":463,"x_min":83,"x_max":408,"o":"m 408 406 l 96 681 l 85 674 l 193 406 l 83 132 l 96 122 l 408 406 z "},"„":{"ha":706,"x_min":44,"x_max":665,"o":"m 418 217 q 496 242 453 242 q 577 219 539 242 q 633 154 615 196 q 656 18 665 88 q 608 -107 646 -51 q 510 -191 569 -162 q 382 -207 451 -219 l 376 -186 q 426 -146 404 -174 q 446 -78 447 -118 q 404 7 444 -39 q 371 78 378 38 q 376 158 364 119 q 418 217 389 196 m 99 217 q 176 242 133 242 q 258 219 219 242 q 314 154 296 196 q 336 18 346 88 q 288 -107 326 -51 q 191 -191 250 -162 q 63 -207 132 -219 l 57 -186 q 106 -146 85 -174 q 126 -78 128 -118 q 85 7 125 -39 q 51 78 58 38 q 57 158 44 119 q 99 217 69 196 z "},"“":{"ha":721,"x_min":42,"x_max":676,"o":"m 622 747 q 545 723 589 722 q 464 746 501 724 q 407 810 426 768 q 385 946 376 876 q 433 1071 394 1015 q 531 1155 471 1126 q 658 1171 590 1183 l 664 1150 q 615 1110 636 1139 q 594 1042 593 1082 q 636 957 596 1003 q 670 885 664 926 q 665 807 676 844 q 622 747 653 769 m 288 747 q 210 723 254 722 q 129 746 167 724 q 72 810 92 768 q 51 946 42 876 q 98 1071 60 1015 q 196 1155 136 1126 q 324 1171 256 1183 l 329 1150 q 280 1110 301 1139 q 260 1042 258 1082 q 301 957 261 1003 q 335 885 329 926 q 330 807 342 844 q 288 747 318 769 z "},"”":{"ha":706,"x_min":44,"x_max":665,"o":"m 418 1156 q 496 1181 453 1181 q 577 1158 539 1181 q 633 1093 615 1135 q 656 957 665 1026 q 608 832 646 888 q 510 748 569 776 q 382 732 451 719 l 376 753 q 426 793 404 765 q 446 860 447 821 q 404 946 444 900 q 371 1017 378 976 q 376 1097 364 1058 q 418 1156 389 1135 m 99 1156 q 176 1181 133 1181 q 258 1158 219 1181 q 314 1093 296 1135 q 336 957 346 1026 q 288 832 326 888 q 191 748 250 776 q 63 732 132 719 l 57 753 q 106 793 85 765 q 126 860 128 821 q 85 946 125 900 q 51 1017 58 976 q 57 1097 44 1058 q 99 1156 69 1135 z "},"‘":{"ha":386,"x_min":42,"x_max":342,"o":"m 288 747 q 210 723 254 722 q 129 746 167 724 q 72 810 92 768 q 51 946 42 876 q 98 1071 60 1015 q 196 1155 136 1126 q 324 1171 256 1183 l 329 1150 q 280 1110 301 1139 q 260 1042 258 1082 q 301 957 261 1003 q 335 885 329 926 q 330 807 342 844 q 288 747 318 769 z "},"’":{"ha":386,"x_min":44,"x_max":346,"o":"m 99 1156 q 176 1181 133 1181 q 258 1158 219 1181 q 314 1093 296 1135 q 336 957 346 1026 q 288 832 326 888 q 191 748 250 776 q 63 732 132 719 l 57 753 q 106 793 85 765 q 126 860 128 821 q 85 946 125 900 q 51 1017 58 976 q 57 1097 44 1058 q 99 1156 69 1135 z "},"‚":{"ha":386,"x_min":44,"x_max":346,"o":"m 99 228 q 176 253 133 253 q 258 230 219 253 q 314 165 296 207 q 336 29 346 99 q 288 -96 326 -40 q 191 -180 250 -151 q 63 -196 132 -208 l 57 -175 q 106 -135 85 -162 q 126 -67 128 -107 q 85 18 125 -28 q 51 90 58 49 q 57 169 44 131 q 99 228 69 207 z "}," ":{"ha":347,"x_min":0,"x_max":0,"o":""}}}
